%TF.GenerationSoftware,KiCad,Pcbnew,9.0.2*%
%TF.CreationDate,2025-12-18T22:45:00+05:30*%
%TF.ProjectId,ESP_32_devkit,4553505f-3332-45f6-9465-766b69742e6b,rev?*%
%TF.SameCoordinates,Original*%
%TF.FileFunction,Soldermask,Bot*%
%TF.FilePolarity,Negative*%
%FSLAX46Y46*%
G04 Gerber Fmt 4.6, Leading zero omitted, Abs format (unit mm)*
G04 Created by KiCad (PCBNEW 9.0.2) date 2025-12-18 22:45:00*
%MOMM*%
%LPD*%
G01*
G04 APERTURE LIST*
G04 Aperture macros list*
%AMRoundRect*
0 Rectangle with rounded corners*
0 $1 Rounding radius*
0 $2 $3 $4 $5 $6 $7 $8 $9 X,Y pos of 4 corners*
0 Add a 4 corners polygon primitive as box body*
4,1,4,$2,$3,$4,$5,$6,$7,$8,$9,$2,$3,0*
0 Add four circle primitives for the rounded corners*
1,1,$1+$1,$2,$3*
1,1,$1+$1,$4,$5*
1,1,$1+$1,$6,$7*
1,1,$1+$1,$8,$9*
0 Add four rect primitives between the rounded corners*
20,1,$1+$1,$2,$3,$4,$5,0*
20,1,$1+$1,$4,$5,$6,$7,0*
20,1,$1+$1,$6,$7,$8,$9,0*
20,1,$1+$1,$8,$9,$2,$3,0*%
G04 Aperture macros list end*
%ADD10RoundRect,0.250000X0.350000X-0.350000X0.350000X0.350000X-0.350000X0.350000X-0.350000X-0.350000X0*%
%ADD11C,1.200000*%
%ADD12R,1.700000X1.700000*%
%ADD13C,1.700000*%
%ADD14C,1.600000*%
%ADD15R,1.500000X1.050000*%
%ADD16O,1.500000X1.050000*%
%ADD17R,1.560000X1.560000*%
%ADD18C,1.560000*%
%ADD19C,2.400000*%
%ADD20RoundRect,0.250000X1.000000X-1.000000X1.000000X1.000000X-1.000000X1.000000X-1.000000X-1.000000X0*%
%ADD21R,1.800000X1.800000*%
%ADD22C,1.800000*%
%ADD23R,2.000000X4.600000*%
%ADD24O,2.000000X4.200000*%
%ADD25O,4.200000X2.000000*%
%ADD26C,2.000000*%
%ADD27R,3.000000X3.000000*%
%ADD28C,3.000000*%
%ADD29R,2.000000X2.000000*%
%ADD30RoundRect,0.249999X-0.850001X0.850001X-0.850001X-0.850001X0.850001X-0.850001X0.850001X0.850001X0*%
%ADD31C,2.200000*%
%ADD32RoundRect,0.249999X0.850001X-0.850001X0.850001X0.850001X-0.850001X0.850001X-0.850001X-0.850001X0*%
%ADD33RoundRect,0.250000X-0.550000X-0.550000X0.550000X-0.550000X0.550000X0.550000X-0.550000X0.550000X0*%
%ADD34C,1.500000*%
%ADD35R,1.905000X2.000000*%
%ADD36O,1.905000X2.000000*%
%ADD37R,1.800000X1.100000*%
%ADD38RoundRect,0.275000X0.625000X-0.275000X0.625000X0.275000X-0.625000X0.275000X-0.625000X-0.275000X0*%
%ADD39RoundRect,0.250000X-0.550000X0.550000X-0.550000X-0.550000X0.550000X-0.550000X0.550000X0.550000X0*%
G04 APERTURE END LIST*
D10*
%TO.C,C1*%
X127839604Y-45212000D03*
D11*
X127839604Y-43712000D03*
%TD*%
D12*
%TO.C,J21*%
X68031354Y-71425500D03*
D13*
X68031354Y-68885500D03*
%TD*%
D14*
%TO.C,R11*%
X74903354Y-86914500D03*
X74903354Y-99614500D03*
%TD*%
D15*
%TO.C,U2*%
X84936354Y-80104500D03*
D16*
X84936354Y-78834500D03*
X84936354Y-77564500D03*
%TD*%
D17*
%TO.C,RV1*%
X87476354Y-71166500D03*
D18*
X84976354Y-66166500D03*
X82476354Y-71166500D03*
%TD*%
D12*
%TO.C,J25*%
X107910000Y-108712000D03*
D13*
X107910000Y-111252000D03*
X107910000Y-113792000D03*
X107910000Y-116332000D03*
%TD*%
D19*
%TO.C,K2*%
X185024000Y-53941250D03*
X199224000Y-47941250D03*
X199224000Y-59941250D03*
D20*
X187024000Y-59941250D03*
D19*
X187024000Y-47941250D03*
%TD*%
D14*
%TO.C,R6*%
X149352000Y-71120000D03*
X149352000Y-83820000D03*
%TD*%
D12*
%TO.C,J7*%
X209804000Y-113030000D03*
D13*
X207264000Y-113030000D03*
X204724000Y-113030000D03*
X202184000Y-113030000D03*
%TD*%
D21*
%TO.C,SW5*%
X96343604Y-50800000D03*
D22*
X93843604Y-50800000D03*
X91343604Y-50800000D03*
X96343604Y-44800000D03*
X93843604Y-44800000D03*
X91343604Y-44800000D03*
%TD*%
D23*
%TO.C,J15*%
X75946000Y-48118000D03*
D24*
X69646000Y-48118000D03*
D25*
X73046000Y-52918000D03*
%TD*%
D12*
%TO.C,J2*%
X127508000Y-103124000D03*
D13*
X127508000Y-105664000D03*
X127508000Y-108204000D03*
X127508000Y-110744000D03*
X127508000Y-113284000D03*
X127508000Y-115824000D03*
X127508000Y-118364000D03*
X127508000Y-120904000D03*
X127508000Y-123444000D03*
X127508000Y-125984000D03*
X127508000Y-128524000D03*
X127508000Y-131064000D03*
X127508000Y-133604000D03*
X127508000Y-136144000D03*
X127508000Y-138684000D03*
%TD*%
D21*
%TO.C,D10*%
X69596000Y-122976000D03*
D22*
X67056000Y-122976000D03*
%TD*%
D12*
%TO.C,J19*%
X148336000Y-59944000D03*
D13*
X148336000Y-57404000D03*
X148336000Y-54864000D03*
X148336000Y-52324000D03*
X148336000Y-49784000D03*
%TD*%
D12*
%TO.C,J8*%
X181582249Y-88490079D03*
D13*
X184122249Y-88490079D03*
X186662249Y-88490079D03*
X189202249Y-88490079D03*
%TD*%
D26*
%TO.C,SW4*%
X214296249Y-100174079D03*
X207796249Y-100174079D03*
X214296249Y-95674079D03*
X207796249Y-95674079D03*
%TD*%
D27*
%TO.C,J12*%
X212020000Y-50706750D03*
D28*
X212020000Y-45626750D03*
%TD*%
D21*
%TO.C,D3*%
X158745000Y-77470000D03*
D22*
X156205000Y-77470000D03*
%TD*%
D21*
%TO.C,D2*%
X173477000Y-77470000D03*
D22*
X170937000Y-77470000D03*
%TD*%
D12*
%TO.C,J1*%
X161544000Y-103124000D03*
D13*
X161544000Y-105664000D03*
X161544000Y-108204000D03*
X161544000Y-110744000D03*
X161544000Y-113284000D03*
X161544000Y-115824000D03*
X161544000Y-118364000D03*
X161544000Y-120904000D03*
X161544000Y-123444000D03*
X161544000Y-125984000D03*
X161544000Y-128524000D03*
X161544000Y-131064000D03*
X161544000Y-133604000D03*
X161544000Y-136144000D03*
X161544000Y-138684000D03*
%TD*%
D14*
%TO.C,R13*%
X75438000Y-121198000D03*
X75438000Y-133898000D03*
%TD*%
D12*
%TO.C,J27*%
X170688000Y-136144000D03*
D13*
X170688000Y-138684000D03*
%TD*%
D14*
%TO.C,R3*%
X186366000Y-43340750D03*
X173666000Y-43340750D03*
%TD*%
D29*
%TO.C,BZ1*%
X94207354Y-97572500D03*
D26*
X94207354Y-89972500D03*
%TD*%
D12*
%TO.C,J17*%
X138507604Y-41656000D03*
D13*
X141047604Y-41656000D03*
X143587604Y-41656000D03*
X146127604Y-41656000D03*
X148667604Y-41656000D03*
%TD*%
D21*
%TO.C,D11*%
X67056000Y-130596000D03*
D22*
X69596000Y-130596000D03*
%TD*%
D12*
%TO.C,J20*%
X144603604Y-59944000D03*
D13*
X144603604Y-57404000D03*
X144603604Y-54864000D03*
X144603604Y-52324000D03*
X144603604Y-49784000D03*
%TD*%
D21*
%TO.C,D9*%
X133427604Y-51816000D03*
D22*
X133427604Y-49276000D03*
%TD*%
D30*
%TO.C,D1*%
X177984000Y-48928750D03*
D31*
X177984000Y-59088750D03*
%TD*%
D12*
%TO.C,J23*%
X67791354Y-94788500D03*
D13*
X67791354Y-92248500D03*
%TD*%
D14*
%TO.C,R2*%
X180086000Y-128524000D03*
X180086000Y-115824000D03*
%TD*%
%TO.C,R14*%
X91948000Y-138724000D03*
X79248000Y-138724000D03*
%TD*%
D21*
%TO.C,D7*%
X101092000Y-77470000D03*
D22*
X98552000Y-77470000D03*
%TD*%
D14*
%TO.C,R1*%
X214630000Y-128524000D03*
X214630000Y-115824000D03*
%TD*%
D21*
%TO.C,D6*%
X115565000Y-77470000D03*
D22*
X113025000Y-77470000D03*
%TD*%
D27*
%TO.C,J11*%
X212020000Y-62390750D03*
D28*
X212020000Y-57310750D03*
%TD*%
D12*
%TO.C,J26*%
X166116000Y-136144000D03*
D13*
X166116000Y-138684000D03*
%TD*%
D14*
%TO.C,R9*%
X106421000Y-71120000D03*
X106421000Y-83820000D03*
%TD*%
%TO.C,R10*%
X114885604Y-51816000D03*
X127585604Y-51816000D03*
%TD*%
D26*
%TO.C,SW3*%
X203628249Y-100174079D03*
X197128249Y-100174079D03*
X203628249Y-95674079D03*
X197128249Y-95674079D03*
%TD*%
D32*
%TO.C,D8*%
X85167604Y-59944000D03*
D31*
X85167604Y-49784000D03*
%TD*%
D17*
%TO.C,RV2*%
X96734000Y-117596000D03*
D18*
X94234000Y-112596000D03*
X91734000Y-117596000D03*
%TD*%
D26*
%TO.C,SW2*%
X192758249Y-100174079D03*
X186258249Y-100174079D03*
X192758249Y-95674079D03*
X186258249Y-95674079D03*
%TD*%
D14*
%TO.C,R12*%
X80518000Y-133898000D03*
X80518000Y-121198000D03*
%TD*%
D33*
%TO.C,U3*%
X90170000Y-123484000D03*
D14*
X90170000Y-126024000D03*
X90170000Y-128564000D03*
X90170000Y-131104000D03*
X97790000Y-131104000D03*
X97790000Y-128564000D03*
X97790000Y-126024000D03*
X97790000Y-123484000D03*
%TD*%
%TO.C,R5*%
X164333000Y-71120000D03*
X164333000Y-83820000D03*
%TD*%
D12*
%TO.C,J18*%
X138507604Y-45212000D03*
D13*
X141047604Y-45212000D03*
X143587604Y-45212000D03*
X146127604Y-45212000D03*
X148667604Y-45212000D03*
%TD*%
D12*
%TO.C,J24*%
X66802000Y-112268000D03*
D13*
X69342000Y-112268000D03*
X71882000Y-112268000D03*
X74422000Y-112268000D03*
%TD*%
D34*
%TO.C,R15*%
X95758000Y-138724000D03*
X99158000Y-138724000D03*
%TD*%
D12*
%TO.C,J22*%
X68031354Y-77629500D03*
D13*
X68031354Y-80169500D03*
%TD*%
D14*
%TO.C,R7*%
X134869000Y-71120000D03*
X134869000Y-83820000D03*
%TD*%
D12*
%TO.C,J13*%
X169856000Y-52733750D03*
D13*
X169856000Y-55273750D03*
%TD*%
D35*
%TO.C,U1*%
X116663604Y-45212000D03*
D36*
X119203604Y-45212000D03*
X121743604Y-45212000D03*
%TD*%
D37*
%TO.C,Q2*%
X82923354Y-90724500D03*
D38*
X80853354Y-89454500D03*
X82923354Y-88184500D03*
%TD*%
D26*
%TO.C,SW1*%
X181582249Y-100174079D03*
X175082249Y-100174079D03*
X181582249Y-95674079D03*
X175082249Y-95674079D03*
%TD*%
D27*
%TO.C,J16*%
X68580000Y-57404000D03*
D28*
X68580000Y-62484000D03*
%TD*%
D12*
%TO.C,J10*%
X200142000Y-80782000D03*
D13*
X200142000Y-83322000D03*
%TD*%
D17*
%TO.C,RV3*%
X107442000Y-132628000D03*
D18*
X104942000Y-127628000D03*
X102442000Y-132628000D03*
%TD*%
D21*
%TO.C,D4*%
X144272000Y-77470000D03*
D22*
X141732000Y-77470000D03*
%TD*%
D12*
%TO.C,J4*%
X152908000Y-103124000D03*
D13*
X152908000Y-105664000D03*
X152908000Y-108204000D03*
X152908000Y-110744000D03*
X152908000Y-113284000D03*
X152908000Y-115824000D03*
X152908000Y-118364000D03*
X152908000Y-120904000D03*
X152908000Y-123444000D03*
X152908000Y-125984000D03*
X152908000Y-128524000D03*
X152908000Y-131064000D03*
X152908000Y-133604000D03*
X152908000Y-136144000D03*
X152908000Y-138684000D03*
%TD*%
D12*
%TO.C,J9*%
X213892249Y-80870079D03*
D13*
X213892249Y-83410079D03*
X213892249Y-85950079D03*
X213892249Y-88490079D03*
%TD*%
D12*
%TO.C,J3*%
X118872000Y-103124000D03*
D13*
X118872000Y-105664000D03*
X118872000Y-108204000D03*
X118872000Y-110744000D03*
X118872000Y-113284000D03*
X118872000Y-115824000D03*
X118872000Y-118364000D03*
X118872000Y-120904000D03*
X118872000Y-123444000D03*
X118872000Y-125984000D03*
X118872000Y-128524000D03*
X118872000Y-131064000D03*
X118872000Y-133604000D03*
X118872000Y-136144000D03*
X118872000Y-138684000D03*
%TD*%
D12*
%TO.C,J6*%
X189230000Y-113030000D03*
D13*
X186690000Y-113030000D03*
X184150000Y-113030000D03*
%TD*%
D39*
%TO.C,C3*%
X106503604Y-45252000D03*
D14*
X106503604Y-48752000D03*
%TD*%
D12*
%TO.C,J14*%
X146812000Y-91440000D03*
D13*
X144272000Y-91440000D03*
X141732000Y-91440000D03*
X139192000Y-91440000D03*
X136652000Y-91440000D03*
X134112000Y-91440000D03*
%TD*%
D12*
%TO.C,J5*%
X214630000Y-135128000D03*
D13*
X212090000Y-135128000D03*
X209550000Y-135128000D03*
X207010000Y-135128000D03*
X204470000Y-135128000D03*
X201930000Y-135128000D03*
X199390000Y-135128000D03*
X196850000Y-135128000D03*
X194310000Y-135128000D03*
X191770000Y-135128000D03*
X189230000Y-135128000D03*
X186690000Y-135128000D03*
X184150000Y-135128000D03*
X181610000Y-135128000D03*
X179070000Y-135128000D03*
X176530000Y-135128000D03*
%TD*%
D37*
%TO.C,Q1*%
X194132000Y-44356750D03*
D38*
X192062000Y-43086750D03*
X194132000Y-41816750D03*
%TD*%
D14*
%TO.C,R4*%
X179065000Y-71120000D03*
X179065000Y-83820000D03*
%TD*%
%TO.C,R8*%
X120645000Y-71120000D03*
X120645000Y-83820000D03*
%TD*%
D21*
%TO.C,D5*%
X129789000Y-77470000D03*
D22*
X127249000Y-77470000D03*
%TD*%
M02*
