%TF.GenerationSoftware,KiCad,Pcbnew,9.0.2*%
%TF.CreationDate,2025-12-18T22:44:59+05:30*%
%TF.ProjectId,ESP_32_devkit,4553505f-3332-45f6-9465-766b69742e6b,rev?*%
%TF.SameCoordinates,Original*%
%TF.FileFunction,Copper,L1,Top*%
%TF.FilePolarity,Positive*%
%FSLAX46Y46*%
G04 Gerber Fmt 4.6, Leading zero omitted, Abs format (unit mm)*
G04 Created by KiCad (PCBNEW 9.0.2) date 2025-12-18 22:44:59*
%MOMM*%
%LPD*%
G01*
G04 APERTURE LIST*
G04 Aperture macros list*
%AMRoundRect*
0 Rectangle with rounded corners*
0 $1 Rounding radius*
0 $2 $3 $4 $5 $6 $7 $8 $9 X,Y pos of 4 corners*
0 Add a 4 corners polygon primitive as box body*
4,1,4,$2,$3,$4,$5,$6,$7,$8,$9,$2,$3,0*
0 Add four circle primitives for the rounded corners*
1,1,$1+$1,$2,$3*
1,1,$1+$1,$4,$5*
1,1,$1+$1,$6,$7*
1,1,$1+$1,$8,$9*
0 Add four rect primitives between the rounded corners*
20,1,$1+$1,$2,$3,$4,$5,0*
20,1,$1+$1,$4,$5,$6,$7,0*
20,1,$1+$1,$6,$7,$8,$9,0*
20,1,$1+$1,$8,$9,$2,$3,0*%
G04 Aperture macros list end*
%TA.AperFunction,ComponentPad*%
%ADD10RoundRect,0.250000X0.350000X-0.350000X0.350000X0.350000X-0.350000X0.350000X-0.350000X-0.350000X0*%
%TD*%
%TA.AperFunction,ComponentPad*%
%ADD11C,1.200000*%
%TD*%
%TA.AperFunction,ComponentPad*%
%ADD12R,1.700000X1.700000*%
%TD*%
%TA.AperFunction,ComponentPad*%
%ADD13C,1.700000*%
%TD*%
%TA.AperFunction,ComponentPad*%
%ADD14C,1.600000*%
%TD*%
%TA.AperFunction,ComponentPad*%
%ADD15R,1.500000X1.050000*%
%TD*%
%TA.AperFunction,ComponentPad*%
%ADD16O,1.500000X1.050000*%
%TD*%
%TA.AperFunction,ComponentPad*%
%ADD17R,1.560000X1.560000*%
%TD*%
%TA.AperFunction,ComponentPad*%
%ADD18C,1.560000*%
%TD*%
%TA.AperFunction,ComponentPad*%
%ADD19C,2.400000*%
%TD*%
%TA.AperFunction,ComponentPad*%
%ADD20RoundRect,0.250000X1.000000X-1.000000X1.000000X1.000000X-1.000000X1.000000X-1.000000X-1.000000X0*%
%TD*%
%TA.AperFunction,ComponentPad*%
%ADD21R,1.800000X1.800000*%
%TD*%
%TA.AperFunction,ComponentPad*%
%ADD22C,1.800000*%
%TD*%
%TA.AperFunction,ComponentPad*%
%ADD23R,2.000000X4.600000*%
%TD*%
%TA.AperFunction,ComponentPad*%
%ADD24O,2.000000X4.200000*%
%TD*%
%TA.AperFunction,ComponentPad*%
%ADD25O,4.200000X2.000000*%
%TD*%
%TA.AperFunction,ComponentPad*%
%ADD26C,2.000000*%
%TD*%
%TA.AperFunction,ComponentPad*%
%ADD27R,3.000000X3.000000*%
%TD*%
%TA.AperFunction,ComponentPad*%
%ADD28C,3.000000*%
%TD*%
%TA.AperFunction,ComponentPad*%
%ADD29R,2.000000X2.000000*%
%TD*%
%TA.AperFunction,ComponentPad*%
%ADD30RoundRect,0.249999X-0.850001X0.850001X-0.850001X-0.850001X0.850001X-0.850001X0.850001X0.850001X0*%
%TD*%
%TA.AperFunction,ComponentPad*%
%ADD31C,2.200000*%
%TD*%
%TA.AperFunction,ComponentPad*%
%ADD32RoundRect,0.249999X0.850001X-0.850001X0.850001X0.850001X-0.850001X0.850001X-0.850001X-0.850001X0*%
%TD*%
%TA.AperFunction,ComponentPad*%
%ADD33RoundRect,0.250000X-0.550000X-0.550000X0.550000X-0.550000X0.550000X0.550000X-0.550000X0.550000X0*%
%TD*%
%TA.AperFunction,ComponentPad*%
%ADD34C,1.500000*%
%TD*%
%TA.AperFunction,ComponentPad*%
%ADD35R,1.905000X2.000000*%
%TD*%
%TA.AperFunction,ComponentPad*%
%ADD36O,1.905000X2.000000*%
%TD*%
%TA.AperFunction,ComponentPad*%
%ADD37R,1.800000X1.100000*%
%TD*%
%TA.AperFunction,ComponentPad*%
%ADD38RoundRect,0.275000X0.625000X-0.275000X0.625000X0.275000X-0.625000X0.275000X-0.625000X-0.275000X0*%
%TD*%
%TA.AperFunction,ComponentPad*%
%ADD39RoundRect,0.250000X-0.550000X0.550000X-0.550000X-0.550000X0.550000X-0.550000X0.550000X0.550000X0*%
%TD*%
G04 APERTURE END LIST*
D10*
%TO.P,C1,1*%
%TO.N,+5V*%
X127839604Y-45212000D03*
D11*
%TO.P,C1,2*%
%TO.N,GND*%
X127839604Y-43712000D03*
%TD*%
D12*
%TO.P,J21,1,Pin_1*%
%TO.N,Net-(J21-Pin_1)*%
X68031354Y-71425500D03*
D13*
%TO.P,J21,2,Pin_2*%
%TO.N,Net-(J21-Pin_2)*%
X68031354Y-68885500D03*
%TD*%
D14*
%TO.P,R11,1*%
%TO.N,Net-(Q2-B)*%
X74903354Y-86914500D03*
%TO.P,R11,2*%
%TO.N,Net-(J23-Pin_1)*%
X74903354Y-99614500D03*
%TD*%
D15*
%TO.P,U2,1*%
%TO.N,Net-(J22-Pin_2)*%
X84936354Y-80104500D03*
D16*
%TO.P,U2,2,-*%
%TO.N,Net-(J22-Pin_1)*%
X84936354Y-78834500D03*
%TO.P,U2,3,+*%
%TO.N,GND*%
X84936354Y-77564500D03*
%TD*%
D17*
%TO.P,RV1,1,1*%
%TO.N,Net-(J21-Pin_1)*%
X87476354Y-71166500D03*
D18*
%TO.P,RV1,2,2*%
%TO.N,Net-(J21-Pin_2)*%
X84976354Y-66166500D03*
%TO.P,RV1,3,3*%
%TO.N,GND*%
X82476354Y-71166500D03*
%TD*%
D12*
%TO.P,J25,1,Pin_1*%
%TO.N,Net-(D10-A)*%
X107910000Y-108712000D03*
D13*
%TO.P,J25,2,Pin_2*%
%TO.N,GND*%
X107910000Y-111252000D03*
%TO.P,J25,3,Pin_3*%
%TO.N,Net-(J25-Pin_3)*%
X107910000Y-113792000D03*
%TO.P,J25,4,Pin_4*%
%TO.N,Net-(J25-Pin_4)*%
X107910000Y-116332000D03*
%TD*%
D19*
%TO.P,K2,11*%
%TO.N,Net-(J12-Pin_2)*%
X185024000Y-53941250D03*
%TO.P,K2,12*%
%TO.N,unconnected-(K2-Pad12)*%
X199224000Y-47941250D03*
%TO.P,K2,14*%
%TO.N,Net-(J11-Pin_1)*%
X199224000Y-59941250D03*
D20*
%TO.P,K2,A1*%
%TO.N,Net-(D1-A)*%
X187024000Y-59941250D03*
D19*
%TO.P,K2,A2*%
%TO.N,Net-(D1-K)*%
X187024000Y-47941250D03*
%TD*%
D14*
%TO.P,R6,1*%
%TO.N,GND*%
X149352000Y-71120000D03*
%TO.P,R6,2*%
%TO.N,Net-(D4-K)*%
X149352000Y-83820000D03*
%TD*%
D12*
%TO.P,J7,1,Pin_1*%
%TO.N,Net-(J5-Pin_3)*%
X209804000Y-113030000D03*
D13*
%TO.P,J7,2,Pin_2*%
%TO.N,Net-(J5-Pin_4)*%
X207264000Y-113030000D03*
%TO.P,J7,3,Pin_3*%
%TO.N,Net-(J5-Pin_5)*%
X204724000Y-113030000D03*
%TO.P,J7,4,Pin_4*%
%TO.N,Net-(J5-Pin_6)*%
X202184000Y-113030000D03*
%TD*%
D21*
%TO.P,SW5,1,A*%
%TO.N,unconnected-(SW5-A-Pad1)*%
X96343604Y-50800000D03*
D22*
%TO.P,SW5,2,B*%
%TO.N,GND*%
X93843604Y-50800000D03*
%TO.P,SW5,3,C*%
%TO.N,Net-(J16-Pin_1)*%
X91343604Y-50800000D03*
%TO.P,SW5,4,A*%
%TO.N,unconnected-(SW5-A-Pad4)*%
X96343604Y-44800000D03*
%TO.P,SW5,5,B*%
%TO.N,Net-(J17-Pin_1)*%
X93843604Y-44800000D03*
%TO.P,SW5,6,C*%
%TO.N,Net-(D8-A)*%
X91343604Y-44800000D03*
%TD*%
D23*
%TO.P,J15,1*%
%TO.N,Net-(D8-A)*%
X75946000Y-48118000D03*
D24*
%TO.P,J15,2*%
%TO.N,Net-(J16-Pin_1)*%
X69646000Y-48118000D03*
D25*
%TO.P,J15,3*%
X73046000Y-52918000D03*
%TD*%
D12*
%TO.P,J2,1,Pin_1*%
%TO.N,Net-(J2-Pin_1)*%
X127508000Y-103124000D03*
D13*
%TO.P,J2,2,Pin_2*%
%TO.N,Net-(J2-Pin_2)*%
X127508000Y-105664000D03*
%TO.P,J2,3,Pin_3*%
%TO.N,Net-(J2-Pin_3)*%
X127508000Y-108204000D03*
%TO.P,J2,4,Pin_4*%
%TO.N,Net-(J2-Pin_4)*%
X127508000Y-110744000D03*
%TO.P,J2,5,Pin_5*%
%TO.N,Net-(J2-Pin_5)*%
X127508000Y-113284000D03*
%TO.P,J2,6,Pin_6*%
%TO.N,Net-(J2-Pin_6)*%
X127508000Y-115824000D03*
%TO.P,J2,7,Pin_7*%
%TO.N,Net-(J2-Pin_7)*%
X127508000Y-118364000D03*
%TO.P,J2,8,Pin_8*%
%TO.N,Net-(J2-Pin_8)*%
X127508000Y-120904000D03*
%TO.P,J2,9,Pin_9*%
%TO.N,Net-(J2-Pin_9)*%
X127508000Y-123444000D03*
%TO.P,J2,10,Pin_10*%
%TO.N,Net-(J2-Pin_10)*%
X127508000Y-125984000D03*
%TO.P,J2,11,Pin_11*%
%TO.N,Net-(J2-Pin_11)*%
X127508000Y-128524000D03*
%TO.P,J2,12,Pin_12*%
%TO.N,Net-(J2-Pin_12)*%
X127508000Y-131064000D03*
%TO.P,J2,13,Pin_13*%
%TO.N,Net-(J2-Pin_13)*%
X127508000Y-133604000D03*
%TO.P,J2,14,Pin_14*%
%TO.N,GND*%
X127508000Y-136144000D03*
%TO.P,J2,15,Pin_15*%
%TO.N,Net-(J2-Pin_15)*%
X127508000Y-138684000D03*
%TD*%
D21*
%TO.P,D10,1,K*%
%TO.N,Net-(D10-K)*%
X69596000Y-122976000D03*
D22*
%TO.P,D10,2,A*%
%TO.N,Net-(D10-A)*%
X67056000Y-122976000D03*
%TD*%
D12*
%TO.P,J19,1,Pin_1*%
%TO.N,GND*%
X148336000Y-59944000D03*
D13*
%TO.P,J19,2,Pin_2*%
X148336000Y-57404000D03*
%TO.P,J19,3,Pin_3*%
X148336000Y-54864000D03*
%TO.P,J19,4,Pin_4*%
X148336000Y-52324000D03*
%TO.P,J19,5,Pin_5*%
X148336000Y-49784000D03*
%TD*%
D12*
%TO.P,J8,1,Pin_1*%
%TO.N,Net-(J8-Pin_1)*%
X181582249Y-88490079D03*
D13*
%TO.P,J8,2,Pin_2*%
%TO.N,Net-(J8-Pin_2)*%
X184122249Y-88490079D03*
%TO.P,J8,3,Pin_3*%
%TO.N,Net-(J8-Pin_3)*%
X186662249Y-88490079D03*
%TO.P,J8,4,Pin_4*%
%TO.N,Net-(J8-Pin_4)*%
X189202249Y-88490079D03*
%TD*%
D26*
%TO.P,SW4,1,1*%
%TO.N,GND*%
X214296249Y-100174079D03*
X207796249Y-100174079D03*
%TO.P,SW4,2,2*%
%TO.N,Net-(J8-Pin_4)*%
X214296249Y-95674079D03*
X207796249Y-95674079D03*
%TD*%
D27*
%TO.P,J12,1,Pin_1*%
%TO.N,Net-(J11-Pin_2)*%
X212020000Y-50706750D03*
D28*
%TO.P,J12,2,Pin_2*%
%TO.N,Net-(J12-Pin_2)*%
X212020000Y-45626750D03*
%TD*%
D21*
%TO.P,D3,1,K*%
%TO.N,Net-(D3-K)*%
X158745000Y-77470000D03*
D22*
%TO.P,D3,2,A*%
%TO.N,Net-(D3-A)*%
X156205000Y-77470000D03*
%TD*%
D21*
%TO.P,D2,1,K*%
%TO.N,Net-(D2-K)*%
X173477000Y-77470000D03*
D22*
%TO.P,D2,2,A*%
%TO.N,Net-(D2-A)*%
X170937000Y-77470000D03*
%TD*%
D12*
%TO.P,J1,1,Pin_1*%
%TO.N,Net-(J1-Pin_1)*%
X161544000Y-103124000D03*
D13*
%TO.P,J1,2,Pin_2*%
%TO.N,Net-(J1-Pin_2)*%
X161544000Y-105664000D03*
%TO.P,J1,3,Pin_3*%
%TO.N,Net-(J1-Pin_3)*%
X161544000Y-108204000D03*
%TO.P,J1,4,Pin_4*%
%TO.N,Net-(J1-Pin_4)*%
X161544000Y-110744000D03*
%TO.P,J1,5,Pin_5*%
%TO.N,Net-(J1-Pin_5)*%
X161544000Y-113284000D03*
%TO.P,J1,6,Pin_6*%
%TO.N,Net-(J1-Pin_6)*%
X161544000Y-115824000D03*
%TO.P,J1,7,Pin_7*%
%TO.N,Net-(J1-Pin_7)*%
X161544000Y-118364000D03*
%TO.P,J1,8,Pin_8*%
%TO.N,Net-(J1-Pin_8)*%
X161544000Y-120904000D03*
%TO.P,J1,9,Pin_9*%
%TO.N,Net-(J1-Pin_9)*%
X161544000Y-123444000D03*
%TO.P,J1,10,Pin_10*%
%TO.N,Net-(J1-Pin_10)*%
X161544000Y-125984000D03*
%TO.P,J1,11,Pin_11*%
%TO.N,Net-(J1-Pin_11)*%
X161544000Y-128524000D03*
%TO.P,J1,12,Pin_12*%
%TO.N,Net-(J1-Pin_12)*%
X161544000Y-131064000D03*
%TO.P,J1,13,Pin_13*%
%TO.N,Net-(J1-Pin_13)*%
X161544000Y-133604000D03*
%TO.P,J1,14,Pin_14*%
%TO.N,GND*%
X161544000Y-136144000D03*
%TO.P,J1,15,Pin_15*%
%TO.N,Net-(J1-Pin_15)*%
X161544000Y-138684000D03*
%TD*%
D14*
%TO.P,R13,1*%
%TO.N,Net-(D10-K)*%
X75438000Y-121198000D03*
%TO.P,R13,2*%
%TO.N,GND*%
X75438000Y-133898000D03*
%TD*%
D12*
%TO.P,J27,1,Pin_1*%
%TO.N,GND*%
X170688000Y-136144000D03*
D13*
%TO.P,J27,2,Pin_2*%
%TO.N,Net-(J1-Pin_15)*%
X170688000Y-138684000D03*
%TD*%
D14*
%TO.P,R3,1*%
%TO.N,Net-(Q1-B)*%
X186366000Y-43340750D03*
%TO.P,R3,2*%
%TO.N,Net-(J13-Pin_1)*%
X173666000Y-43340750D03*
%TD*%
D29*
%TO.P,BZ1,1,+*%
%TO.N,Net-(BZ1-+)*%
X94207354Y-97572500D03*
D26*
%TO.P,BZ1,2,-*%
%TO.N,Net-(BZ1--)*%
X94207354Y-89972500D03*
%TD*%
D12*
%TO.P,J17,1,Pin_1*%
%TO.N,Net-(J17-Pin_1)*%
X138507604Y-41656000D03*
D13*
%TO.P,J17,2,Pin_2*%
X141047604Y-41656000D03*
%TO.P,J17,3,Pin_3*%
X143587604Y-41656000D03*
%TO.P,J17,4,Pin_4*%
X146127604Y-41656000D03*
%TO.P,J17,5,Pin_5*%
X148667604Y-41656000D03*
%TD*%
D21*
%TO.P,D11,1,K*%
%TO.N,Net-(D10-A)*%
X67056000Y-130596000D03*
D22*
%TO.P,D11,2,A*%
%TO.N,Net-(D11-A)*%
X69596000Y-130596000D03*
%TD*%
D12*
%TO.P,J20,1,Pin_1*%
%TO.N,+5V*%
X144603604Y-59944000D03*
D13*
%TO.P,J20,2,Pin_2*%
X144603604Y-57404000D03*
%TO.P,J20,3,Pin_3*%
X144603604Y-54864000D03*
%TO.P,J20,4,Pin_4*%
X144603604Y-52324000D03*
%TO.P,J20,5,Pin_5*%
X144603604Y-49784000D03*
%TD*%
D21*
%TO.P,D9,1,K*%
%TO.N,Net-(D9-K)*%
X133427604Y-51816000D03*
D22*
%TO.P,D9,2,A*%
%TO.N,+5V*%
X133427604Y-49276000D03*
%TD*%
D30*
%TO.P,D1,1,K*%
%TO.N,Net-(D1-K)*%
X177984000Y-48928750D03*
D31*
%TO.P,D1,2,A*%
%TO.N,Net-(D1-A)*%
X177984000Y-59088750D03*
%TD*%
D12*
%TO.P,J23,1,Pin_1*%
%TO.N,Net-(J23-Pin_1)*%
X67791354Y-94788500D03*
D13*
%TO.P,J23,2,Pin_2*%
%TO.N,Net-(BZ1-+)*%
X67791354Y-92248500D03*
%TD*%
D14*
%TO.P,R2,1*%
%TO.N,Net-(J5-Pin_14)*%
X180086000Y-128524000D03*
%TO.P,R2,2*%
%TO.N,GND*%
X180086000Y-115824000D03*
%TD*%
%TO.P,R14,1*%
%TO.N,Net-(J25-Pin_4)*%
X91948000Y-138724000D03*
%TO.P,R14,2*%
%TO.N,Net-(D10-A)*%
X79248000Y-138724000D03*
%TD*%
D21*
%TO.P,D7,1,K*%
%TO.N,Net-(D7-K)*%
X101092000Y-77470000D03*
D22*
%TO.P,D7,2,A*%
%TO.N,Net-(D7-A)*%
X98552000Y-77470000D03*
%TD*%
D14*
%TO.P,R1,1*%
%TO.N,Net-(J5-Pin_1)*%
X214630000Y-128524000D03*
%TO.P,R1,2*%
%TO.N,GND*%
X214630000Y-115824000D03*
%TD*%
D21*
%TO.P,D6,1,K*%
%TO.N,Net-(D6-K)*%
X115565000Y-77470000D03*
D22*
%TO.P,D6,2,A*%
%TO.N,Net-(D6-A)*%
X113025000Y-77470000D03*
%TD*%
D27*
%TO.P,J11,1,Pin_1*%
%TO.N,Net-(J11-Pin_1)*%
X212020000Y-62390750D03*
D28*
%TO.P,J11,2,Pin_2*%
%TO.N,Net-(J11-Pin_2)*%
X212020000Y-57310750D03*
%TD*%
D12*
%TO.P,J26,1,Pin_1*%
%TO.N,GND*%
X166116000Y-136144000D03*
D13*
%TO.P,J26,2,Pin_2*%
%TO.N,Net-(J1-Pin_15)*%
X166116000Y-138684000D03*
%TD*%
D14*
%TO.P,R9,1*%
%TO.N,GND*%
X106421000Y-71120000D03*
%TO.P,R9,2*%
%TO.N,Net-(D7-K)*%
X106421000Y-83820000D03*
%TD*%
%TO.P,R10,1*%
%TO.N,GND*%
X114885604Y-51816000D03*
%TO.P,R10,2*%
%TO.N,Net-(D9-K)*%
X127585604Y-51816000D03*
%TD*%
D26*
%TO.P,SW3,1,1*%
%TO.N,GND*%
X203628249Y-100174079D03*
X197128249Y-100174079D03*
%TO.P,SW3,2,2*%
%TO.N,Net-(J8-Pin_3)*%
X203628249Y-95674079D03*
X197128249Y-95674079D03*
%TD*%
D32*
%TO.P,D8,1,K*%
%TO.N,Net-(D8-K)*%
X85167604Y-59944000D03*
D31*
%TO.P,D8,2,A*%
%TO.N,Net-(D8-A)*%
X85167604Y-49784000D03*
%TD*%
D17*
%TO.P,RV2,1,1*%
%TO.N,Net-(D10-A)*%
X96734000Y-117596000D03*
D18*
%TO.P,RV2,2,2*%
%TO.N,Net-(U3-TR)*%
X94234000Y-112596000D03*
%TO.P,RV2,3,3*%
%TO.N,GND*%
X91734000Y-117596000D03*
%TD*%
D26*
%TO.P,SW2,1,1*%
%TO.N,GND*%
X192758249Y-100174079D03*
X186258249Y-100174079D03*
%TO.P,SW2,2,2*%
%TO.N,Net-(J8-Pin_2)*%
X192758249Y-95674079D03*
X186258249Y-95674079D03*
%TD*%
D14*
%TO.P,R12,1*%
%TO.N,GND*%
X80518000Y-133898000D03*
%TO.P,R12,2*%
%TO.N,Net-(D11-A)*%
X80518000Y-121198000D03*
%TD*%
D33*
%TO.P,U3,1,GND*%
%TO.N,Net-(J24-Pin_4)*%
X90170000Y-123484000D03*
D14*
%TO.P,U3,2,TR*%
%TO.N,Net-(U3-TR)*%
X90170000Y-126024000D03*
%TO.P,U3,3,Q*%
%TO.N,Net-(D11-A)*%
X90170000Y-128564000D03*
%TO.P,U3,4,R*%
%TO.N,GND*%
X90170000Y-131104000D03*
%TO.P,U3,5,CV*%
%TO.N,Net-(J25-Pin_4)*%
X97790000Y-131104000D03*
%TO.P,U3,6,THR*%
%TO.N,Net-(U3-THR)*%
X97790000Y-128564000D03*
%TO.P,U3,7,DIS*%
%TO.N,Net-(J25-Pin_3)*%
X97790000Y-126024000D03*
%TO.P,U3,8,VCC*%
%TO.N,Net-(D10-A)*%
X97790000Y-123484000D03*
%TD*%
%TO.P,R5,1*%
%TO.N,GND*%
X164333000Y-71120000D03*
%TO.P,R5,2*%
%TO.N,Net-(D3-K)*%
X164333000Y-83820000D03*
%TD*%
D12*
%TO.P,J18,1,Pin_1*%
%TO.N,GND*%
X138507604Y-45212000D03*
D13*
%TO.P,J18,2,Pin_2*%
X141047604Y-45212000D03*
%TO.P,J18,3,Pin_3*%
X143587604Y-45212000D03*
%TO.P,J18,4,Pin_4*%
X146127604Y-45212000D03*
%TO.P,J18,5,Pin_5*%
X148667604Y-45212000D03*
%TD*%
D12*
%TO.P,J24,1,Pin_1*%
%TO.N,Net-(D10-A)*%
X66802000Y-112268000D03*
D13*
%TO.P,J24,2,Pin_2*%
%TO.N,GND*%
X69342000Y-112268000D03*
%TO.P,J24,3,Pin_3*%
%TO.N,Net-(D11-A)*%
X71882000Y-112268000D03*
%TO.P,J24,4,Pin_4*%
%TO.N,Net-(J24-Pin_4)*%
X74422000Y-112268000D03*
%TD*%
D34*
%TO.P,R15,1*%
%TO.N,Net-(J25-Pin_4)*%
X95758000Y-138724000D03*
%TO.P,R15,2*%
%TO.N,GND*%
X99158000Y-138724000D03*
%TD*%
D12*
%TO.P,J22,1,Pin_1*%
%TO.N,Net-(J22-Pin_1)*%
X68031354Y-77629500D03*
D13*
%TO.P,J22,2,Pin_2*%
%TO.N,Net-(J22-Pin_2)*%
X68031354Y-80169500D03*
%TD*%
D14*
%TO.P,R7,1*%
%TO.N,GND*%
X134869000Y-71120000D03*
%TO.P,R7,2*%
%TO.N,Net-(D5-K)*%
X134869000Y-83820000D03*
%TD*%
D12*
%TO.P,J13,1,Pin_1*%
%TO.N,Net-(J13-Pin_1)*%
X169856000Y-52733750D03*
D13*
%TO.P,J13,2,Pin_2*%
%TO.N,Net-(D1-K)*%
X169856000Y-55273750D03*
%TD*%
D35*
%TO.P,U1,1,IN*%
%TO.N,Net-(J17-Pin_1)*%
X116663604Y-45212000D03*
D36*
%TO.P,U1,2,GND*%
%TO.N,GND*%
X119203604Y-45212000D03*
%TO.P,U1,3,OUT*%
%TO.N,+5V*%
X121743604Y-45212000D03*
%TD*%
D37*
%TO.P,Q2,1,C*%
%TO.N,Net-(BZ1--)*%
X82923354Y-90724500D03*
D38*
%TO.P,Q2,2,B*%
%TO.N,Net-(Q2-B)*%
X80853354Y-89454500D03*
%TO.P,Q2,3,E*%
%TO.N,GND*%
X82923354Y-88184500D03*
%TD*%
D26*
%TO.P,SW1,1,1*%
%TO.N,GND*%
X181582249Y-100174079D03*
X175082249Y-100174079D03*
%TO.P,SW1,2,2*%
%TO.N,Net-(J8-Pin_1)*%
X181582249Y-95674079D03*
X175082249Y-95674079D03*
%TD*%
D27*
%TO.P,J16,1,Pin_1*%
%TO.N,Net-(J16-Pin_1)*%
X68580000Y-57404000D03*
D28*
%TO.P,J16,2,Pin_2*%
%TO.N,Net-(D8-K)*%
X68580000Y-62484000D03*
%TD*%
D12*
%TO.P,J10,1,Pin_1*%
%TO.N,Net-(J10-Pin_1)*%
X200142000Y-80782000D03*
D13*
%TO.P,J10,2,Pin_2*%
%TO.N,Net-(J10-Pin_2)*%
X200142000Y-83322000D03*
%TD*%
D17*
%TO.P,RV3,1,1*%
%TO.N,Net-(D10-A)*%
X107442000Y-132628000D03*
D18*
%TO.P,RV3,2,2*%
%TO.N,Net-(U3-THR)*%
X104942000Y-127628000D03*
%TO.P,RV3,3,3*%
%TO.N,GND*%
X102442000Y-132628000D03*
%TD*%
D21*
%TO.P,D4,1,K*%
%TO.N,Net-(D4-K)*%
X144272000Y-77470000D03*
D22*
%TO.P,D4,2,A*%
%TO.N,Net-(D4-A)*%
X141732000Y-77470000D03*
%TD*%
D12*
%TO.P,J4,1,Pin_1*%
%TO.N,Net-(J1-Pin_1)*%
X152908000Y-103124000D03*
D13*
%TO.P,J4,2,Pin_2*%
%TO.N,Net-(J1-Pin_2)*%
X152908000Y-105664000D03*
%TO.P,J4,3,Pin_3*%
%TO.N,Net-(J1-Pin_3)*%
X152908000Y-108204000D03*
%TO.P,J4,4,Pin_4*%
%TO.N,Net-(J1-Pin_4)*%
X152908000Y-110744000D03*
%TO.P,J4,5,Pin_5*%
%TO.N,Net-(J1-Pin_5)*%
X152908000Y-113284000D03*
%TO.P,J4,6,Pin_6*%
%TO.N,Net-(J1-Pin_6)*%
X152908000Y-115824000D03*
%TO.P,J4,7,Pin_7*%
%TO.N,Net-(J1-Pin_7)*%
X152908000Y-118364000D03*
%TO.P,J4,8,Pin_8*%
%TO.N,Net-(J1-Pin_8)*%
X152908000Y-120904000D03*
%TO.P,J4,9,Pin_9*%
%TO.N,Net-(J1-Pin_9)*%
X152908000Y-123444000D03*
%TO.P,J4,10,Pin_10*%
%TO.N,Net-(J1-Pin_10)*%
X152908000Y-125984000D03*
%TO.P,J4,11,Pin_11*%
%TO.N,Net-(J1-Pin_11)*%
X152908000Y-128524000D03*
%TO.P,J4,12,Pin_12*%
%TO.N,Net-(J1-Pin_12)*%
X152908000Y-131064000D03*
%TO.P,J4,13,Pin_13*%
%TO.N,Net-(J1-Pin_13)*%
X152908000Y-133604000D03*
%TO.P,J4,14,Pin_14*%
%TO.N,GND*%
X152908000Y-136144000D03*
%TO.P,J4,15,Pin_15*%
%TO.N,Net-(J1-Pin_15)*%
X152908000Y-138684000D03*
%TD*%
D12*
%TO.P,J9,1,Pin_1*%
%TO.N,Net-(J10-Pin_1)*%
X213892249Y-80870079D03*
D13*
%TO.P,J9,2,Pin_2*%
%TO.N,Net-(J10-Pin_2)*%
X213892249Y-83410079D03*
%TO.P,J9,3,Pin_3*%
%TO.N,unconnected-(J9-Pin_3-Pad3)*%
X213892249Y-85950079D03*
%TO.P,J9,4,Pin_4*%
%TO.N,GND*%
X213892249Y-88490079D03*
%TD*%
D12*
%TO.P,J3,1,Pin_1*%
%TO.N,Net-(J2-Pin_1)*%
X118872000Y-103124000D03*
D13*
%TO.P,J3,2,Pin_2*%
%TO.N,Net-(J2-Pin_2)*%
X118872000Y-105664000D03*
%TO.P,J3,3,Pin_3*%
%TO.N,Net-(J2-Pin_3)*%
X118872000Y-108204000D03*
%TO.P,J3,4,Pin_4*%
%TO.N,Net-(J2-Pin_4)*%
X118872000Y-110744000D03*
%TO.P,J3,5,Pin_5*%
%TO.N,Net-(J2-Pin_5)*%
X118872000Y-113284000D03*
%TO.P,J3,6,Pin_6*%
%TO.N,Net-(J2-Pin_6)*%
X118872000Y-115824000D03*
%TO.P,J3,7,Pin_7*%
%TO.N,Net-(J2-Pin_7)*%
X118872000Y-118364000D03*
%TO.P,J3,8,Pin_8*%
%TO.N,Net-(J2-Pin_8)*%
X118872000Y-120904000D03*
%TO.P,J3,9,Pin_9*%
%TO.N,Net-(J2-Pin_9)*%
X118872000Y-123444000D03*
%TO.P,J3,10,Pin_10*%
%TO.N,Net-(J2-Pin_10)*%
X118872000Y-125984000D03*
%TO.P,J3,11,Pin_11*%
%TO.N,Net-(J2-Pin_11)*%
X118872000Y-128524000D03*
%TO.P,J3,12,Pin_12*%
%TO.N,Net-(J2-Pin_12)*%
X118872000Y-131064000D03*
%TO.P,J3,13,Pin_13*%
%TO.N,Net-(J2-Pin_13)*%
X118872000Y-133604000D03*
%TO.P,J3,14,Pin_14*%
%TO.N,GND*%
X118872000Y-136144000D03*
%TO.P,J3,15,Pin_15*%
%TO.N,Net-(J2-Pin_15)*%
X118872000Y-138684000D03*
%TD*%
D12*
%TO.P,J6,1,Pin_1*%
%TO.N,Net-(J5-Pin_11)*%
X189230000Y-113030000D03*
D13*
%TO.P,J6,2,Pin_2*%
%TO.N,Net-(J5-Pin_12)*%
X186690000Y-113030000D03*
%TO.P,J6,3,Pin_3*%
%TO.N,Net-(J5-Pin_13)*%
X184150000Y-113030000D03*
%TD*%
D39*
%TO.P,C3,1*%
%TO.N,Net-(J17-Pin_1)*%
X106503604Y-45252000D03*
D14*
%TO.P,C3,2*%
%TO.N,GND*%
X106503604Y-48752000D03*
%TD*%
D12*
%TO.P,J14,1,Pin_1*%
%TO.N,Net-(D2-A)*%
X146812000Y-91440000D03*
D13*
%TO.P,J14,2,Pin_2*%
%TO.N,Net-(D3-A)*%
X144272000Y-91440000D03*
%TO.P,J14,3,Pin_3*%
%TO.N,Net-(D4-A)*%
X141732000Y-91440000D03*
%TO.P,J14,4,Pin_4*%
%TO.N,Net-(D5-A)*%
X139192000Y-91440000D03*
%TO.P,J14,5,Pin_5*%
%TO.N,Net-(D6-A)*%
X136652000Y-91440000D03*
%TO.P,J14,6,Pin_6*%
%TO.N,Net-(D7-A)*%
X134112000Y-91440000D03*
%TD*%
D12*
%TO.P,J5,1,Pin_1*%
%TO.N,Net-(J5-Pin_1)*%
X214630000Y-135128000D03*
D13*
%TO.P,J5,2,Pin_2*%
%TO.N,+5V*%
X212090000Y-135128000D03*
%TO.P,J5,3,Pin_3*%
%TO.N,Net-(J5-Pin_3)*%
X209550000Y-135128000D03*
%TO.P,J5,4,Pin_4*%
%TO.N,Net-(J5-Pin_4)*%
X207010000Y-135128000D03*
%TO.P,J5,5,Pin_5*%
%TO.N,Net-(J5-Pin_5)*%
X204470000Y-135128000D03*
%TO.P,J5,6,Pin_6*%
%TO.N,Net-(J5-Pin_6)*%
X201930000Y-135128000D03*
%TO.P,J5,7,Pin_7*%
%TO.N,unconnected-(J5-Pin_7-Pad7)*%
X199390000Y-135128000D03*
%TO.P,J5,8,Pin_8*%
%TO.N,unconnected-(J5-Pin_8-Pad8)*%
X196850000Y-135128000D03*
%TO.P,J5,9,Pin_9*%
%TO.N,unconnected-(J5-Pin_9-Pad9)*%
X194310000Y-135128000D03*
%TO.P,J5,10,Pin_10*%
%TO.N,unconnected-(J5-Pin_10-Pad10)*%
X191770000Y-135128000D03*
%TO.P,J5,11,Pin_11*%
%TO.N,Net-(J5-Pin_11)*%
X189230000Y-135128000D03*
%TO.P,J5,12,Pin_12*%
%TO.N,Net-(J5-Pin_12)*%
X186690000Y-135128000D03*
%TO.P,J5,13,Pin_13*%
%TO.N,Net-(J5-Pin_13)*%
X184150000Y-135128000D03*
%TO.P,J5,14,Pin_14*%
%TO.N,Net-(J5-Pin_14)*%
X181610000Y-135128000D03*
%TO.P,J5,15,Pin_15*%
%TO.N,+5V*%
X179070000Y-135128000D03*
%TO.P,J5,16,Pin_16*%
%TO.N,GND*%
X176530000Y-135128000D03*
%TD*%
D37*
%TO.P,Q1,1,C*%
%TO.N,Net-(D1-A)*%
X194132000Y-44356750D03*
D38*
%TO.P,Q1,2,B*%
%TO.N,Net-(Q1-B)*%
X192062000Y-43086750D03*
%TO.P,Q1,3,E*%
%TO.N,GND*%
X194132000Y-41816750D03*
%TD*%
D14*
%TO.P,R4,1*%
%TO.N,GND*%
X179065000Y-71120000D03*
%TO.P,R4,2*%
%TO.N,Net-(D2-K)*%
X179065000Y-83820000D03*
%TD*%
%TO.P,R8,1*%
%TO.N,GND*%
X120645000Y-71120000D03*
%TO.P,R8,2*%
%TO.N,Net-(D6-K)*%
X120645000Y-83820000D03*
%TD*%
D21*
%TO.P,D5,1,K*%
%TO.N,Net-(D5-K)*%
X129789000Y-77470000D03*
D22*
%TO.P,D5,2,A*%
%TO.N,Net-(D5-A)*%
X127249000Y-77470000D03*
%TD*%
M02*
