M48
; DRILL file {KiCad 9.0.2} date 2025-12-18T22:51:13+0530
; FORMAT={-:-/ absolute / metric / decimal}
; #@! TF.CreationDate,2025-12-18T22:51:13+05:30
; #@! TF.GenerationSoftware,Kicad,Pcbnew,9.0.2
; #@! TF.FileFunction,Plated,1,2,PTH
FMAT,2
METRIC
; #@! TA.AperFunction,Plated,PTH,ComponentDrill
T1C0.600
; #@! TA.AperFunction,Plated,PTH,ComponentDrill
T2C0.750
; #@! TA.AperFunction,Plated,PTH,ComponentDrill
T3C0.800
; #@! TA.AperFunction,Plated,PTH,ComponentDrill
T4C0.900
; #@! TA.AperFunction,Plated,PTH,ComponentDrill
T5C1.000
; #@! TA.AperFunction,Plated,PTH,ComponentDrill
T6C1.100
; #@! TA.AperFunction,Plated,PTH,ComponentDrill
T7C1.300
; #@! TA.AperFunction,Plated,PTH,ComponentDrill
T8C1.520
%
G90
G05
T1
X127.84Y-43.712
X127.84Y-45.212
T2
X81.253Y-89.454
X82.523Y-88.184
X82.523Y-90.724
X84.936Y-77.564
X84.936Y-78.834
X84.936Y-80.105
X192.462Y-43.087
X193.732Y-41.817
X193.732Y-44.357
T3
X74.903Y-86.914
X74.903Y-99.614
X75.438Y-121.198
X75.438Y-133.898
X79.248Y-138.724
X80.518Y-121.198
X80.518Y-133.898
X90.17Y-123.484
X90.17Y-126.024
X90.17Y-128.564
X90.17Y-131.104
X91.948Y-138.724
X95.758Y-138.724
X97.79Y-123.484
X97.79Y-126.024
X97.79Y-128.564
X97.79Y-131.104
X99.158Y-138.724
X106.421Y-71.12
X106.421Y-83.82
X106.504Y-45.252
X106.504Y-48.752
X114.886Y-51.816
X120.645Y-71.12
X120.645Y-83.82
X127.586Y-51.816
X134.869Y-71.12
X134.869Y-83.82
X149.352Y-71.12
X149.352Y-83.82
X164.333Y-71.12
X164.333Y-83.82
X173.666Y-43.341
X179.065Y-71.12
X179.065Y-83.82
X180.086Y-115.824
X180.086Y-128.524
X186.366Y-43.341
X214.63Y-115.824
X214.63Y-128.524
T4
X67.056Y-122.976
X67.056Y-130.596
X69.596Y-122.976
X69.596Y-130.596
X91.344Y-44.8
X91.344Y-50.8
X93.844Y-44.8
X93.844Y-50.8
X96.344Y-44.8
X96.344Y-50.8
X98.552Y-77.47
X101.092Y-77.47
X113.025Y-77.47
X115.565Y-77.47
X127.249Y-77.47
X129.789Y-77.47
X133.428Y-49.276
X133.428Y-51.816
X141.732Y-77.47
X144.272Y-77.47
X156.205Y-77.47
X158.745Y-77.47
X170.937Y-77.47
X173.477Y-77.47
T5
X66.802Y-112.268
X67.791Y-92.248
X67.791Y-94.788
X68.031Y-68.885
X68.031Y-71.425
X68.031Y-77.629
X68.031Y-80.169
X69.342Y-112.268
X71.882Y-112.268
X74.422Y-112.268
X82.476Y-71.166
X84.976Y-66.166
X87.476Y-71.166
X91.734Y-117.596
X94.207Y-89.972
X94.207Y-97.572
X94.234Y-112.596
X96.734Y-117.596
X102.442Y-132.628
X104.942Y-127.628
X107.442Y-132.628
X107.91Y-108.712
X107.91Y-111.252
X107.91Y-113.792
X107.91Y-116.332
X118.872Y-103.124
X118.872Y-105.664
X118.872Y-108.204
X118.872Y-110.744
X118.872Y-113.284
X118.872Y-115.824
X118.872Y-118.364
X118.872Y-120.904
X118.872Y-123.444
X118.872Y-125.984
X118.872Y-128.524
X118.872Y-131.064
X118.872Y-133.604
X118.872Y-136.144
X118.872Y-138.684
X127.508Y-103.124
X127.508Y-105.664
X127.508Y-108.204
X127.508Y-110.744
X127.508Y-113.284
X127.508Y-115.824
X127.508Y-118.364
X127.508Y-120.904
X127.508Y-123.444
X127.508Y-125.984
X127.508Y-128.524
X127.508Y-131.064
X127.508Y-133.604
X127.508Y-136.144
X127.508Y-138.684
X134.112Y-91.44
X136.652Y-91.44
X138.508Y-41.656
X138.508Y-45.212
X139.192Y-91.44
X141.048Y-41.656
X141.048Y-45.212
X141.732Y-91.44
X143.588Y-41.656
X143.588Y-45.212
X144.272Y-91.44
X144.604Y-49.784
X144.604Y-52.324
X144.604Y-54.864
X144.604Y-57.404
X144.604Y-59.944
X146.128Y-41.656
X146.128Y-45.212
X146.812Y-91.44
X148.336Y-49.784
X148.336Y-52.324
X148.336Y-54.864
X148.336Y-57.404
X148.336Y-59.944
X148.668Y-41.656
X148.668Y-45.212
X152.908Y-103.124
X152.908Y-105.664
X152.908Y-108.204
X152.908Y-110.744
X152.908Y-113.284
X152.908Y-115.824
X152.908Y-118.364
X152.908Y-120.904
X152.908Y-123.444
X152.908Y-125.984
X152.908Y-128.524
X152.908Y-131.064
X152.908Y-133.604
X152.908Y-136.144
X152.908Y-138.684
X161.544Y-103.124
X161.544Y-105.664
X161.544Y-108.204
X161.544Y-110.744
X161.544Y-113.284
X161.544Y-115.824
X161.544Y-118.364
X161.544Y-120.904
X161.544Y-123.444
X161.544Y-125.984
X161.544Y-128.524
X161.544Y-131.064
X161.544Y-133.604
X161.544Y-136.144
X161.544Y-138.684
X166.116Y-136.144
X166.116Y-138.684
X169.856Y-52.734
X169.856Y-55.274
X170.688Y-136.144
X170.688Y-138.684
X176.53Y-135.128
X179.07Y-135.128
X181.582Y-88.49
X181.61Y-135.128
X184.122Y-88.49
X184.15Y-113.03
X184.15Y-135.128
X186.662Y-88.49
X186.69Y-113.03
X186.69Y-135.128
X189.202Y-88.49
X189.23Y-113.03
X189.23Y-135.128
X191.77Y-135.128
X194.31Y-135.128
X196.85Y-135.128
X199.39Y-135.128
X200.142Y-80.782
X200.142Y-83.322
X201.93Y-135.128
X202.184Y-113.03
X204.47Y-135.128
X204.724Y-113.03
X207.01Y-135.128
X207.264Y-113.03
X209.55Y-135.128
X209.804Y-113.03
X212.09Y-135.128
X213.892Y-80.87
X213.892Y-83.41
X213.892Y-85.95
X213.892Y-88.49
X214.63Y-135.128
T6
X85.168Y-49.784
X85.168Y-59.944
X116.664Y-45.212
X119.204Y-45.212
X121.744Y-45.212
X175.082Y-95.674
X175.082Y-100.174
X177.984Y-48.929
X177.984Y-59.089
X181.582Y-95.674
X181.582Y-100.174
X186.258Y-95.674
X186.258Y-100.174
X192.758Y-95.674
X192.758Y-100.174
X197.128Y-95.674
X197.128Y-100.174
X203.628Y-95.674
X203.628Y-100.174
X207.796Y-95.674
X207.796Y-100.174
X214.296Y-95.674
X214.296Y-100.174
T7
X185.024Y-53.941
X187.024Y-47.941
X187.024Y-59.941
X199.224Y-47.941
X199.224Y-59.941
T8
X68.58Y-57.404
X68.58Y-62.484
X212.02Y-45.627
X212.02Y-50.707
X212.02Y-57.311
X212.02Y-62.391
T5
G00X69.646Y-47.018
M15
G01X69.646Y-49.218
M16
G05
G00X74.146Y-52.918
M15
G01X71.946Y-52.918
M16
G05
G00X75.946Y-46.818
M15
G01X75.946Y-49.418
M16
G05
M30
