%TF.GenerationSoftware,KiCad,Pcbnew,9.0.2*%
%TF.CreationDate,2025-12-18T22:44:59+05:30*%
%TF.ProjectId,ESP_32_devkit,4553505f-3332-45f6-9465-766b69742e6b,rev?*%
%TF.SameCoordinates,Original*%
%TF.FileFunction,Legend,Bot*%
%TF.FilePolarity,Positive*%
%FSLAX46Y46*%
G04 Gerber Fmt 4.6, Leading zero omitted, Abs format (unit mm)*
G04 Created by KiCad (PCBNEW 9.0.2) date 2025-12-18 22:44:59*
%MOMM*%
%LPD*%
G01*
G04 APERTURE LIST*
%ADD10C,0.500000*%
%ADD11C,0.625000*%
%ADD12C,0.010000*%
G04 APERTURE END LIST*
D10*
X121622862Y-147049238D02*
X121622862Y-145049238D01*
X121622862Y-145049238D02*
X121146672Y-145049238D01*
X121146672Y-145049238D02*
X120860957Y-145144476D01*
X120860957Y-145144476D02*
X120670481Y-145334952D01*
X120670481Y-145334952D02*
X120575243Y-145525428D01*
X120575243Y-145525428D02*
X120480005Y-145906380D01*
X120480005Y-145906380D02*
X120480005Y-146192095D01*
X120480005Y-146192095D02*
X120575243Y-146573047D01*
X120575243Y-146573047D02*
X120670481Y-146763523D01*
X120670481Y-146763523D02*
X120860957Y-146954000D01*
X120860957Y-146954000D02*
X121146672Y-147049238D01*
X121146672Y-147049238D02*
X121622862Y-147049238D01*
X118860957Y-146954000D02*
X119051433Y-147049238D01*
X119051433Y-147049238D02*
X119432386Y-147049238D01*
X119432386Y-147049238D02*
X119622862Y-146954000D01*
X119622862Y-146954000D02*
X119718100Y-146763523D01*
X119718100Y-146763523D02*
X119718100Y-146001619D01*
X119718100Y-146001619D02*
X119622862Y-145811142D01*
X119622862Y-145811142D02*
X119432386Y-145715904D01*
X119432386Y-145715904D02*
X119051433Y-145715904D01*
X119051433Y-145715904D02*
X118860957Y-145811142D01*
X118860957Y-145811142D02*
X118765719Y-146001619D01*
X118765719Y-146001619D02*
X118765719Y-146192095D01*
X118765719Y-146192095D02*
X119718100Y-146382571D01*
X118099052Y-145715904D02*
X117622862Y-147049238D01*
X117622862Y-147049238D02*
X117146671Y-145715904D01*
X115622861Y-146954000D02*
X115813337Y-147049238D01*
X115813337Y-147049238D02*
X116194290Y-147049238D01*
X116194290Y-147049238D02*
X116384766Y-146954000D01*
X116384766Y-146954000D02*
X116480004Y-146763523D01*
X116480004Y-146763523D02*
X116480004Y-146001619D01*
X116480004Y-146001619D02*
X116384766Y-145811142D01*
X116384766Y-145811142D02*
X116194290Y-145715904D01*
X116194290Y-145715904D02*
X115813337Y-145715904D01*
X115813337Y-145715904D02*
X115622861Y-145811142D01*
X115622861Y-145811142D02*
X115527623Y-146001619D01*
X115527623Y-146001619D02*
X115527623Y-146192095D01*
X115527623Y-146192095D02*
X116480004Y-146382571D01*
X114384766Y-147049238D02*
X114575242Y-146954000D01*
X114575242Y-146954000D02*
X114670480Y-146763523D01*
X114670480Y-146763523D02*
X114670480Y-145049238D01*
X113337147Y-147049238D02*
X113527623Y-146954000D01*
X113527623Y-146954000D02*
X113622861Y-146858761D01*
X113622861Y-146858761D02*
X113718099Y-146668285D01*
X113718099Y-146668285D02*
X113718099Y-146096857D01*
X113718099Y-146096857D02*
X113622861Y-145906380D01*
X113622861Y-145906380D02*
X113527623Y-145811142D01*
X113527623Y-145811142D02*
X113337147Y-145715904D01*
X113337147Y-145715904D02*
X113051432Y-145715904D01*
X113051432Y-145715904D02*
X112860956Y-145811142D01*
X112860956Y-145811142D02*
X112765718Y-145906380D01*
X112765718Y-145906380D02*
X112670480Y-146096857D01*
X112670480Y-146096857D02*
X112670480Y-146668285D01*
X112670480Y-146668285D02*
X112765718Y-146858761D01*
X112765718Y-146858761D02*
X112860956Y-146954000D01*
X112860956Y-146954000D02*
X113051432Y-147049238D01*
X113051432Y-147049238D02*
X113337147Y-147049238D01*
X111813337Y-145715904D02*
X111813337Y-147715904D01*
X111813337Y-145811142D02*
X111622861Y-145715904D01*
X111622861Y-145715904D02*
X111241908Y-145715904D01*
X111241908Y-145715904D02*
X111051432Y-145811142D01*
X111051432Y-145811142D02*
X110956194Y-145906380D01*
X110956194Y-145906380D02*
X110860956Y-146096857D01*
X110860956Y-146096857D02*
X110860956Y-146668285D01*
X110860956Y-146668285D02*
X110956194Y-146858761D01*
X110956194Y-146858761D02*
X111051432Y-146954000D01*
X111051432Y-146954000D02*
X111241908Y-147049238D01*
X111241908Y-147049238D02*
X111622861Y-147049238D01*
X111622861Y-147049238D02*
X111813337Y-146954000D01*
X109241908Y-146954000D02*
X109432384Y-147049238D01*
X109432384Y-147049238D02*
X109813337Y-147049238D01*
X109813337Y-147049238D02*
X110003813Y-146954000D01*
X110003813Y-146954000D02*
X110099051Y-146763523D01*
X110099051Y-146763523D02*
X110099051Y-146001619D01*
X110099051Y-146001619D02*
X110003813Y-145811142D01*
X110003813Y-145811142D02*
X109813337Y-145715904D01*
X109813337Y-145715904D02*
X109432384Y-145715904D01*
X109432384Y-145715904D02*
X109241908Y-145811142D01*
X109241908Y-145811142D02*
X109146670Y-146001619D01*
X109146670Y-146001619D02*
X109146670Y-146192095D01*
X109146670Y-146192095D02*
X110099051Y-146382571D01*
X107432384Y-147049238D02*
X107432384Y-145049238D01*
X107432384Y-146954000D02*
X107622860Y-147049238D01*
X107622860Y-147049238D02*
X108003813Y-147049238D01*
X108003813Y-147049238D02*
X108194289Y-146954000D01*
X108194289Y-146954000D02*
X108289527Y-146858761D01*
X108289527Y-146858761D02*
X108384765Y-146668285D01*
X108384765Y-146668285D02*
X108384765Y-146096857D01*
X108384765Y-146096857D02*
X108289527Y-145906380D01*
X108289527Y-145906380D02*
X108194289Y-145811142D01*
X108194289Y-145811142D02*
X108003813Y-145715904D01*
X108003813Y-145715904D02*
X107622860Y-145715904D01*
X107622860Y-145715904D02*
X107432384Y-145811142D01*
X104289526Y-146001619D02*
X104003812Y-146096857D01*
X104003812Y-146096857D02*
X103908574Y-146192095D01*
X103908574Y-146192095D02*
X103813336Y-146382571D01*
X103813336Y-146382571D02*
X103813336Y-146668285D01*
X103813336Y-146668285D02*
X103908574Y-146858761D01*
X103908574Y-146858761D02*
X104003812Y-146954000D01*
X104003812Y-146954000D02*
X104194288Y-147049238D01*
X104194288Y-147049238D02*
X104956193Y-147049238D01*
X104956193Y-147049238D02*
X104956193Y-145049238D01*
X104956193Y-145049238D02*
X104289526Y-145049238D01*
X104289526Y-145049238D02*
X104099050Y-145144476D01*
X104099050Y-145144476D02*
X104003812Y-145239714D01*
X104003812Y-145239714D02*
X103908574Y-145430190D01*
X103908574Y-145430190D02*
X103908574Y-145620666D01*
X103908574Y-145620666D02*
X104003812Y-145811142D01*
X104003812Y-145811142D02*
X104099050Y-145906380D01*
X104099050Y-145906380D02*
X104289526Y-146001619D01*
X104289526Y-146001619D02*
X104956193Y-146001619D01*
X103146669Y-145715904D02*
X102670479Y-147049238D01*
X102194288Y-145715904D02*
X102670479Y-147049238D01*
X102670479Y-147049238D02*
X102860955Y-147525428D01*
X102860955Y-147525428D02*
X102956193Y-147620666D01*
X102956193Y-147620666D02*
X103146669Y-147715904D01*
X99908573Y-147049238D02*
X99908573Y-145049238D01*
X99908573Y-145049238D02*
X98765716Y-147049238D01*
X98765716Y-147049238D02*
X98765716Y-145049238D01*
X97813335Y-147049238D02*
X97813335Y-145715904D01*
X97813335Y-145049238D02*
X97908573Y-145144476D01*
X97908573Y-145144476D02*
X97813335Y-145239714D01*
X97813335Y-145239714D02*
X97718097Y-145144476D01*
X97718097Y-145144476D02*
X97813335Y-145049238D01*
X97813335Y-145049238D02*
X97813335Y-145239714D01*
X96860954Y-147049238D02*
X96860954Y-145049238D01*
X96670478Y-146287333D02*
X96099049Y-147049238D01*
X96099049Y-145715904D02*
X96860954Y-146477809D01*
X95241906Y-147049238D02*
X95241906Y-145049238D01*
X94384763Y-147049238D02*
X94384763Y-146001619D01*
X94384763Y-146001619D02*
X94480001Y-145811142D01*
X94480001Y-145811142D02*
X94670477Y-145715904D01*
X94670477Y-145715904D02*
X94956192Y-145715904D01*
X94956192Y-145715904D02*
X95146668Y-145811142D01*
X95146668Y-145811142D02*
X95241906Y-145906380D01*
X93432382Y-147049238D02*
X93432382Y-145715904D01*
X93432382Y-145049238D02*
X93527620Y-145144476D01*
X93527620Y-145144476D02*
X93432382Y-145239714D01*
X93432382Y-145239714D02*
X93337144Y-145144476D01*
X93337144Y-145144476D02*
X93432382Y-145049238D01*
X93432382Y-145049238D02*
X93432382Y-145239714D01*
X92194287Y-147049238D02*
X92384763Y-146954000D01*
X92384763Y-146954000D02*
X92480001Y-146763523D01*
X92480001Y-146763523D02*
X92480001Y-145049238D01*
X89908572Y-147049238D02*
X89908572Y-145049238D01*
X89908572Y-145049238D02*
X89241905Y-146477809D01*
X89241905Y-146477809D02*
X88575239Y-145049238D01*
X88575239Y-145049238D02*
X88575239Y-147049238D01*
X87622858Y-147049238D02*
X87622858Y-145715904D01*
X87622858Y-145049238D02*
X87718096Y-145144476D01*
X87718096Y-145144476D02*
X87622858Y-145239714D01*
X87622858Y-145239714D02*
X87527620Y-145144476D01*
X87527620Y-145144476D02*
X87622858Y-145049238D01*
X87622858Y-145049238D02*
X87622858Y-145239714D01*
X86765715Y-146954000D02*
X86575239Y-147049238D01*
X86575239Y-147049238D02*
X86194287Y-147049238D01*
X86194287Y-147049238D02*
X86003810Y-146954000D01*
X86003810Y-146954000D02*
X85908572Y-146763523D01*
X85908572Y-146763523D02*
X85908572Y-146668285D01*
X85908572Y-146668285D02*
X86003810Y-146477809D01*
X86003810Y-146477809D02*
X86194287Y-146382571D01*
X86194287Y-146382571D02*
X86480001Y-146382571D01*
X86480001Y-146382571D02*
X86670477Y-146287333D01*
X86670477Y-146287333D02*
X86765715Y-146096857D01*
X86765715Y-146096857D02*
X86765715Y-146001619D01*
X86765715Y-146001619D02*
X86670477Y-145811142D01*
X86670477Y-145811142D02*
X86480001Y-145715904D01*
X86480001Y-145715904D02*
X86194287Y-145715904D01*
X86194287Y-145715904D02*
X86003810Y-145811142D01*
X84194286Y-147049238D02*
X84194286Y-146001619D01*
X84194286Y-146001619D02*
X84289524Y-145811142D01*
X84289524Y-145811142D02*
X84480000Y-145715904D01*
X84480000Y-145715904D02*
X84860953Y-145715904D01*
X84860953Y-145715904D02*
X85051429Y-145811142D01*
X84194286Y-146954000D02*
X84384762Y-147049238D01*
X84384762Y-147049238D02*
X84860953Y-147049238D01*
X84860953Y-147049238D02*
X85051429Y-146954000D01*
X85051429Y-146954000D02*
X85146667Y-146763523D01*
X85146667Y-146763523D02*
X85146667Y-146573047D01*
X85146667Y-146573047D02*
X85051429Y-146382571D01*
X85051429Y-146382571D02*
X84860953Y-146287333D01*
X84860953Y-146287333D02*
X84384762Y-146287333D01*
X84384762Y-146287333D02*
X84194286Y-146192095D01*
X82956191Y-147049238D02*
X83146667Y-146954000D01*
X83146667Y-146954000D02*
X83241905Y-146763523D01*
X83241905Y-146763523D02*
X83241905Y-145049238D01*
D11*
X167141577Y-98428023D02*
X166308244Y-98428023D01*
X165951101Y-99737547D02*
X167141577Y-99737547D01*
X167141577Y-99737547D02*
X167141577Y-97237547D01*
X167141577Y-97237547D02*
X165951101Y-97237547D01*
X164998720Y-99618500D02*
X164641577Y-99737547D01*
X164641577Y-99737547D02*
X164046339Y-99737547D01*
X164046339Y-99737547D02*
X163808244Y-99618500D01*
X163808244Y-99618500D02*
X163689196Y-99499452D01*
X163689196Y-99499452D02*
X163570149Y-99261357D01*
X163570149Y-99261357D02*
X163570149Y-99023261D01*
X163570149Y-99023261D02*
X163689196Y-98785166D01*
X163689196Y-98785166D02*
X163808244Y-98666119D01*
X163808244Y-98666119D02*
X164046339Y-98547071D01*
X164046339Y-98547071D02*
X164522530Y-98428023D01*
X164522530Y-98428023D02*
X164760625Y-98308976D01*
X164760625Y-98308976D02*
X164879672Y-98189928D01*
X164879672Y-98189928D02*
X164998720Y-97951833D01*
X164998720Y-97951833D02*
X164998720Y-97713738D01*
X164998720Y-97713738D02*
X164879672Y-97475642D01*
X164879672Y-97475642D02*
X164760625Y-97356595D01*
X164760625Y-97356595D02*
X164522530Y-97237547D01*
X164522530Y-97237547D02*
X163927291Y-97237547D01*
X163927291Y-97237547D02*
X163570149Y-97356595D01*
X162498720Y-99737547D02*
X162498720Y-97237547D01*
X162498720Y-97237547D02*
X161546339Y-97237547D01*
X161546339Y-97237547D02*
X161308244Y-97356595D01*
X161308244Y-97356595D02*
X161189197Y-97475642D01*
X161189197Y-97475642D02*
X161070149Y-97713738D01*
X161070149Y-97713738D02*
X161070149Y-98070880D01*
X161070149Y-98070880D02*
X161189197Y-98308976D01*
X161189197Y-98308976D02*
X161308244Y-98428023D01*
X161308244Y-98428023D02*
X161546339Y-98547071D01*
X161546339Y-98547071D02*
X162498720Y-98547071D01*
X160236816Y-97237547D02*
X158689197Y-97237547D01*
X158689197Y-97237547D02*
X159522530Y-98189928D01*
X159522530Y-98189928D02*
X159165387Y-98189928D01*
X159165387Y-98189928D02*
X158927292Y-98308976D01*
X158927292Y-98308976D02*
X158808244Y-98428023D01*
X158808244Y-98428023D02*
X158689197Y-98666119D01*
X158689197Y-98666119D02*
X158689197Y-99261357D01*
X158689197Y-99261357D02*
X158808244Y-99499452D01*
X158808244Y-99499452D02*
X158927292Y-99618500D01*
X158927292Y-99618500D02*
X159165387Y-99737547D01*
X159165387Y-99737547D02*
X159879673Y-99737547D01*
X159879673Y-99737547D02*
X160117768Y-99618500D01*
X160117768Y-99618500D02*
X160236816Y-99499452D01*
X157736816Y-97475642D02*
X157617768Y-97356595D01*
X157617768Y-97356595D02*
X157379673Y-97237547D01*
X157379673Y-97237547D02*
X156784435Y-97237547D01*
X156784435Y-97237547D02*
X156546340Y-97356595D01*
X156546340Y-97356595D02*
X156427292Y-97475642D01*
X156427292Y-97475642D02*
X156308245Y-97713738D01*
X156308245Y-97713738D02*
X156308245Y-97951833D01*
X156308245Y-97951833D02*
X156427292Y-98308976D01*
X156427292Y-98308976D02*
X157855864Y-99737547D01*
X157855864Y-99737547D02*
X156308245Y-99737547D01*
X153332054Y-99737547D02*
X153332054Y-97237547D01*
X153332054Y-97237547D02*
X152736816Y-97237547D01*
X152736816Y-97237547D02*
X152379673Y-97356595D01*
X152379673Y-97356595D02*
X152141578Y-97594690D01*
X152141578Y-97594690D02*
X152022531Y-97832785D01*
X152022531Y-97832785D02*
X151903483Y-98308976D01*
X151903483Y-98308976D02*
X151903483Y-98666119D01*
X151903483Y-98666119D02*
X152022531Y-99142309D01*
X152022531Y-99142309D02*
X152141578Y-99380404D01*
X152141578Y-99380404D02*
X152379673Y-99618500D01*
X152379673Y-99618500D02*
X152736816Y-99737547D01*
X152736816Y-99737547D02*
X153332054Y-99737547D01*
X150832054Y-98428023D02*
X149998721Y-98428023D01*
X149641578Y-99737547D02*
X150832054Y-99737547D01*
X150832054Y-99737547D02*
X150832054Y-97237547D01*
X150832054Y-97237547D02*
X149641578Y-97237547D01*
X148927292Y-97237547D02*
X148093959Y-99737547D01*
X148093959Y-99737547D02*
X147260626Y-97237547D01*
X146427292Y-98428023D02*
X145593959Y-98428023D01*
X145236816Y-99737547D02*
X146427292Y-99737547D01*
X146427292Y-99737547D02*
X146427292Y-97237547D01*
X146427292Y-97237547D02*
X145236816Y-97237547D01*
X142974911Y-99737547D02*
X144165387Y-99737547D01*
X144165387Y-99737547D02*
X144165387Y-97237547D01*
X141665387Y-97237547D02*
X141189196Y-97237547D01*
X141189196Y-97237547D02*
X140951101Y-97356595D01*
X140951101Y-97356595D02*
X140713006Y-97594690D01*
X140713006Y-97594690D02*
X140593958Y-98070880D01*
X140593958Y-98070880D02*
X140593958Y-98904214D01*
X140593958Y-98904214D02*
X140713006Y-99380404D01*
X140713006Y-99380404D02*
X140951101Y-99618500D01*
X140951101Y-99618500D02*
X141189196Y-99737547D01*
X141189196Y-99737547D02*
X141665387Y-99737547D01*
X141665387Y-99737547D02*
X141903482Y-99618500D01*
X141903482Y-99618500D02*
X142141577Y-99380404D01*
X142141577Y-99380404D02*
X142260625Y-98904214D01*
X142260625Y-98904214D02*
X142260625Y-98070880D01*
X142260625Y-98070880D02*
X142141577Y-97594690D01*
X142141577Y-97594690D02*
X141903482Y-97356595D01*
X141903482Y-97356595D02*
X141665387Y-97237547D01*
X139522529Y-99737547D02*
X139522529Y-97237547D01*
X139522529Y-97237547D02*
X138570148Y-97237547D01*
X138570148Y-97237547D02*
X138332053Y-97356595D01*
X138332053Y-97356595D02*
X138213006Y-97475642D01*
X138213006Y-97475642D02*
X138093958Y-97713738D01*
X138093958Y-97713738D02*
X138093958Y-98070880D01*
X138093958Y-98070880D02*
X138213006Y-98308976D01*
X138213006Y-98308976D02*
X138332053Y-98428023D01*
X138332053Y-98428023D02*
X138570148Y-98547071D01*
X138570148Y-98547071D02*
X139522529Y-98547071D01*
X137022529Y-99737547D02*
X137022529Y-97237547D01*
X137022529Y-97237547D02*
X136189196Y-99023261D01*
X136189196Y-99023261D02*
X135355863Y-97237547D01*
X135355863Y-97237547D02*
X135355863Y-99737547D01*
X134165386Y-98428023D02*
X133332053Y-98428023D01*
X132974910Y-99737547D02*
X134165386Y-99737547D01*
X134165386Y-99737547D02*
X134165386Y-97237547D01*
X134165386Y-97237547D02*
X132974910Y-97237547D01*
X131903481Y-99737547D02*
X131903481Y-97237547D01*
X131903481Y-97237547D02*
X130474910Y-99737547D01*
X130474910Y-99737547D02*
X130474910Y-97237547D01*
X129641576Y-97237547D02*
X128213005Y-97237547D01*
X128927291Y-99737547D02*
X128927291Y-97237547D01*
X124641576Y-98428023D02*
X124284433Y-98547071D01*
X124284433Y-98547071D02*
X124165386Y-98666119D01*
X124165386Y-98666119D02*
X124046338Y-98904214D01*
X124046338Y-98904214D02*
X124046338Y-99261357D01*
X124046338Y-99261357D02*
X124165386Y-99499452D01*
X124165386Y-99499452D02*
X124284433Y-99618500D01*
X124284433Y-99618500D02*
X124522528Y-99737547D01*
X124522528Y-99737547D02*
X125474909Y-99737547D01*
X125474909Y-99737547D02*
X125474909Y-97237547D01*
X125474909Y-97237547D02*
X124641576Y-97237547D01*
X124641576Y-97237547D02*
X124403481Y-97356595D01*
X124403481Y-97356595D02*
X124284433Y-97475642D01*
X124284433Y-97475642D02*
X124165386Y-97713738D01*
X124165386Y-97713738D02*
X124165386Y-97951833D01*
X124165386Y-97951833D02*
X124284433Y-98189928D01*
X124284433Y-98189928D02*
X124403481Y-98308976D01*
X124403481Y-98308976D02*
X124641576Y-98428023D01*
X124641576Y-98428023D02*
X125474909Y-98428023D01*
X122498719Y-97237547D02*
X122022528Y-97237547D01*
X122022528Y-97237547D02*
X121784433Y-97356595D01*
X121784433Y-97356595D02*
X121546338Y-97594690D01*
X121546338Y-97594690D02*
X121427290Y-98070880D01*
X121427290Y-98070880D02*
X121427290Y-98904214D01*
X121427290Y-98904214D02*
X121546338Y-99380404D01*
X121546338Y-99380404D02*
X121784433Y-99618500D01*
X121784433Y-99618500D02*
X122022528Y-99737547D01*
X122022528Y-99737547D02*
X122498719Y-99737547D01*
X122498719Y-99737547D02*
X122736814Y-99618500D01*
X122736814Y-99618500D02*
X122974909Y-99380404D01*
X122974909Y-99380404D02*
X123093957Y-98904214D01*
X123093957Y-98904214D02*
X123093957Y-98070880D01*
X123093957Y-98070880D02*
X122974909Y-97594690D01*
X122974909Y-97594690D02*
X122736814Y-97356595D01*
X122736814Y-97356595D02*
X122498719Y-97237547D01*
X120474909Y-99023261D02*
X119284433Y-99023261D01*
X120713004Y-99737547D02*
X119879671Y-97237547D01*
X119879671Y-97237547D02*
X119046338Y-99737547D01*
X116784433Y-99737547D02*
X117617766Y-98547071D01*
X118213004Y-99737547D02*
X118213004Y-97237547D01*
X118213004Y-97237547D02*
X117260623Y-97237547D01*
X117260623Y-97237547D02*
X117022528Y-97356595D01*
X117022528Y-97356595D02*
X116903481Y-97475642D01*
X116903481Y-97475642D02*
X116784433Y-97713738D01*
X116784433Y-97713738D02*
X116784433Y-98070880D01*
X116784433Y-98070880D02*
X116903481Y-98308976D01*
X116903481Y-98308976D02*
X117022528Y-98428023D01*
X117022528Y-98428023D02*
X117260623Y-98547071D01*
X117260623Y-98547071D02*
X118213004Y-98547071D01*
X115713004Y-99737547D02*
X115713004Y-97237547D01*
X115713004Y-97237547D02*
X115117766Y-97237547D01*
X115117766Y-97237547D02*
X114760623Y-97356595D01*
X114760623Y-97356595D02*
X114522528Y-97594690D01*
X114522528Y-97594690D02*
X114403481Y-97832785D01*
X114403481Y-97832785D02*
X114284433Y-98308976D01*
X114284433Y-98308976D02*
X114284433Y-98666119D01*
X114284433Y-98666119D02*
X114403481Y-99142309D01*
X114403481Y-99142309D02*
X114522528Y-99380404D01*
X114522528Y-99380404D02*
X114760623Y-99618500D01*
X114760623Y-99618500D02*
X115117766Y-99737547D01*
X115117766Y-99737547D02*
X115713004Y-99737547D01*
D12*
%TO.C,REF\u002A\u002A*%
X112895678Y-67672039D02*
X112947351Y-67703575D01*
X113000891Y-67746929D01*
X113000891Y-69047622D01*
X112947351Y-69090976D01*
X112884350Y-69126081D01*
X112812430Y-69127760D01*
X112749272Y-69086591D01*
X112741485Y-69077219D01*
X112730504Y-69058199D01*
X112722052Y-69030714D01*
X112715801Y-68989492D01*
X112711422Y-68929265D01*
X112708588Y-68844761D01*
X112706970Y-68730710D01*
X112706240Y-68581844D01*
X112706069Y-68392891D01*
X112706069Y-67746929D01*
X112759608Y-67703575D01*
X112807246Y-67673903D01*
X112853480Y-67660222D01*
X112895678Y-67672039D01*
G36*
X112895678Y-67672039D02*
G01*
X112947351Y-67703575D01*
X113000891Y-67746929D01*
X113000891Y-69047622D01*
X112947351Y-69090976D01*
X112884350Y-69126081D01*
X112812430Y-69127760D01*
X112749272Y-69086591D01*
X112741485Y-69077219D01*
X112730504Y-69058199D01*
X112722052Y-69030714D01*
X112715801Y-68989492D01*
X112711422Y-68929265D01*
X112708588Y-68844761D01*
X112706970Y-68730710D01*
X112706240Y-68581844D01*
X112706069Y-68392891D01*
X112706069Y-67746929D01*
X112759608Y-67703575D01*
X112807246Y-67673903D01*
X112853480Y-67660222D01*
X112895678Y-67672039D01*
G37*
X127220807Y-67669054D02*
X127289421Y-67715887D01*
X127345087Y-67771553D01*
X127345087Y-68400452D01*
X127345005Y-68569263D01*
X127344485Y-68718369D01*
X127343138Y-68832380D01*
X127340571Y-68916697D01*
X127336395Y-68976718D01*
X127330218Y-69017844D01*
X127321650Y-69045473D01*
X127310300Y-69065006D01*
X127295777Y-69081840D01*
X127232569Y-69124960D01*
X127161924Y-69128509D01*
X127095623Y-69088972D01*
X127084962Y-69077182D01*
X127074014Y-69058933D01*
X127065645Y-69032131D01*
X127059509Y-68991519D01*
X127055262Y-68931838D01*
X127052559Y-68847830D01*
X127051055Y-68734239D01*
X127050406Y-68585807D01*
X127050266Y-68397275D01*
X127050345Y-68245277D01*
X127050857Y-68088763D01*
X127052151Y-67968207D01*
X127054570Y-67878353D01*
X127058460Y-67813942D01*
X127064166Y-67769717D01*
X127072032Y-67740420D01*
X127082402Y-67720793D01*
X127095623Y-67705579D01*
X127154250Y-67667367D01*
X127220807Y-67669054D01*
G36*
X127220807Y-67669054D02*
G01*
X127289421Y-67715887D01*
X127345087Y-67771553D01*
X127345087Y-68400452D01*
X127345005Y-68569263D01*
X127344485Y-68718369D01*
X127343138Y-68832380D01*
X127340571Y-68916697D01*
X127336395Y-68976718D01*
X127330218Y-69017844D01*
X127321650Y-69045473D01*
X127310300Y-69065006D01*
X127295777Y-69081840D01*
X127232569Y-69124960D01*
X127161924Y-69128509D01*
X127095623Y-69088972D01*
X127084962Y-69077182D01*
X127074014Y-69058933D01*
X127065645Y-69032131D01*
X127059509Y-68991519D01*
X127055262Y-68931838D01*
X127052559Y-68847830D01*
X127051055Y-68734239D01*
X127050406Y-68585807D01*
X127050266Y-68397275D01*
X127050345Y-68245277D01*
X127050857Y-68088763D01*
X127052151Y-67968207D01*
X127054570Y-67878353D01*
X127058460Y-67813942D01*
X127064166Y-67769717D01*
X127072032Y-67740420D01*
X127082402Y-67720793D01*
X127095623Y-67705579D01*
X127154250Y-67667367D01*
X127220807Y-67669054D01*
G37*
X127277293Y-54828240D02*
X127487206Y-54879672D01*
X127686180Y-54971982D01*
X127867945Y-55105186D01*
X128026231Y-55279296D01*
X128154766Y-55494329D01*
X128189226Y-55570080D01*
X128217143Y-55646859D01*
X128232807Y-55723615D01*
X128239673Y-55818554D01*
X128241195Y-55949880D01*
X128240275Y-56059186D01*
X128234732Y-56159641D01*
X128221142Y-56238016D01*
X128196110Y-56312311D01*
X128156245Y-56400525D01*
X128144713Y-56424033D01*
X128008408Y-56639289D01*
X127836974Y-56816396D01*
X127635278Y-56951197D01*
X127408184Y-57039536D01*
X127291660Y-57064188D01*
X127055268Y-57075723D01*
X126826307Y-57038398D01*
X126611491Y-56956039D01*
X126417535Y-56832473D01*
X126251151Y-56671528D01*
X126119055Y-56477030D01*
X126027960Y-56252805D01*
X125994631Y-56069311D01*
X125991628Y-55866817D01*
X126018735Y-55669849D01*
X126074661Y-55499235D01*
X126139280Y-55377257D01*
X126283136Y-55183731D01*
X126453678Y-55030995D01*
X126644635Y-54919063D01*
X126849737Y-54847950D01*
X127062714Y-54817671D01*
X127277293Y-54828240D01*
G36*
X127277293Y-54828240D02*
G01*
X127487206Y-54879672D01*
X127686180Y-54971982D01*
X127867945Y-55105186D01*
X128026231Y-55279296D01*
X128154766Y-55494329D01*
X128189226Y-55570080D01*
X128217143Y-55646859D01*
X128232807Y-55723615D01*
X128239673Y-55818554D01*
X128241195Y-55949880D01*
X128240275Y-56059186D01*
X128234732Y-56159641D01*
X128221142Y-56238016D01*
X128196110Y-56312311D01*
X128156245Y-56400525D01*
X128144713Y-56424033D01*
X128008408Y-56639289D01*
X127836974Y-56816396D01*
X127635278Y-56951197D01*
X127408184Y-57039536D01*
X127291660Y-57064188D01*
X127055268Y-57075723D01*
X126826307Y-57038398D01*
X126611491Y-56956039D01*
X126417535Y-56832473D01*
X126251151Y-56671528D01*
X126119055Y-56477030D01*
X126027960Y-56252805D01*
X125994631Y-56069311D01*
X125991628Y-55866817D01*
X126018735Y-55669849D01*
X126074661Y-55499235D01*
X126139280Y-55377257D01*
X126283136Y-55183731D01*
X126453678Y-55030995D01*
X126644635Y-54919063D01*
X126849737Y-54847950D01*
X127062714Y-54817671D01*
X127277293Y-54828240D01*
G37*
X111490155Y-67660225D02*
X111679241Y-67660405D01*
X111828935Y-67661088D01*
X111944261Y-67662578D01*
X112030243Y-67665180D01*
X112091903Y-67669201D01*
X112134265Y-67674946D01*
X112162353Y-67682721D01*
X112181191Y-67692830D01*
X112195801Y-67705579D01*
X112233581Y-67771306D01*
X112236487Y-67846796D01*
X112203626Y-67913570D01*
X112200893Y-67916490D01*
X112178387Y-67933285D01*
X112144030Y-67944445D01*
X112089448Y-67951062D01*
X112006271Y-67954230D01*
X111886126Y-67955043D01*
X111606158Y-67955043D01*
X111606158Y-68484931D01*
X111606007Y-68637264D01*
X111605187Y-68771192D01*
X111603214Y-68871204D01*
X111599606Y-68943359D01*
X111593879Y-68993715D01*
X111585550Y-69028331D01*
X111574136Y-69053264D01*
X111559155Y-69074574D01*
X111554553Y-69080211D01*
X111491919Y-69125698D01*
X111422854Y-69128840D01*
X111356694Y-69088972D01*
X111342675Y-69072748D01*
X111331682Y-69051457D01*
X111323606Y-69019629D01*
X111317999Y-68971462D01*
X111314415Y-68901151D01*
X111312407Y-68802895D01*
X111311530Y-68670888D01*
X111311337Y-68499329D01*
X111311337Y-67955043D01*
X111018162Y-67955043D01*
X110995863Y-67955041D01*
X110882323Y-67954589D01*
X110804287Y-67952301D01*
X110753276Y-67946676D01*
X110720808Y-67936216D01*
X110698405Y-67919418D01*
X110677586Y-67894783D01*
X110645750Y-67833134D01*
X110651982Y-67765271D01*
X110703499Y-67699909D01*
X110713425Y-67692441D01*
X110733936Y-67682726D01*
X110764925Y-67675166D01*
X110811374Y-67669496D01*
X110878267Y-67665451D01*
X110970585Y-67662766D01*
X111093312Y-67661176D01*
X111251430Y-67660416D01*
X111449921Y-67660222D01*
X111490155Y-67660225D01*
G36*
X111490155Y-67660225D02*
G01*
X111679241Y-67660405D01*
X111828935Y-67661088D01*
X111944261Y-67662578D01*
X112030243Y-67665180D01*
X112091903Y-67669201D01*
X112134265Y-67674946D01*
X112162353Y-67682721D01*
X112181191Y-67692830D01*
X112195801Y-67705579D01*
X112233581Y-67771306D01*
X112236487Y-67846796D01*
X112203626Y-67913570D01*
X112200893Y-67916490D01*
X112178387Y-67933285D01*
X112144030Y-67944445D01*
X112089448Y-67951062D01*
X112006271Y-67954230D01*
X111886126Y-67955043D01*
X111606158Y-67955043D01*
X111606158Y-68484931D01*
X111606007Y-68637264D01*
X111605187Y-68771192D01*
X111603214Y-68871204D01*
X111599606Y-68943359D01*
X111593879Y-68993715D01*
X111585550Y-69028331D01*
X111574136Y-69053264D01*
X111559155Y-69074574D01*
X111554553Y-69080211D01*
X111491919Y-69125698D01*
X111422854Y-69128840D01*
X111356694Y-69088972D01*
X111342675Y-69072748D01*
X111331682Y-69051457D01*
X111323606Y-69019629D01*
X111317999Y-68971462D01*
X111314415Y-68901151D01*
X111312407Y-68802895D01*
X111311530Y-68670888D01*
X111311337Y-68499329D01*
X111311337Y-67955043D01*
X111018162Y-67955043D01*
X110995863Y-67955041D01*
X110882323Y-67954589D01*
X110804287Y-67952301D01*
X110753276Y-67946676D01*
X110720808Y-67936216D01*
X110698405Y-67919418D01*
X110677586Y-67894783D01*
X110645750Y-67833134D01*
X110651982Y-67765271D01*
X110703499Y-67699909D01*
X110713425Y-67692441D01*
X110733936Y-67682726D01*
X110764925Y-67675166D01*
X110811374Y-67669496D01*
X110878267Y-67665451D01*
X110970585Y-67662766D01*
X111093312Y-67661176D01*
X111251430Y-67660416D01*
X111449921Y-67660222D01*
X111490155Y-67660225D01*
G37*
X110132051Y-67705579D02*
X110143366Y-67718015D01*
X110153593Y-67734499D01*
X110161802Y-67758158D01*
X110168186Y-67793232D01*
X110172940Y-67843965D01*
X110176256Y-67914599D01*
X110178328Y-68009377D01*
X110179349Y-68132541D01*
X110179512Y-68288334D01*
X110179011Y-68480998D01*
X110178039Y-68714775D01*
X110177902Y-68743252D01*
X110176724Y-68867328D01*
X110174068Y-68955084D01*
X110168954Y-69014107D01*
X110160405Y-69051983D01*
X110147445Y-69076299D01*
X110129094Y-69094641D01*
X110061881Y-69129631D01*
X109991672Y-69123802D01*
X109929590Y-69074574D01*
X109911491Y-69048050D01*
X109896522Y-69010814D01*
X109887747Y-68958524D01*
X109883619Y-68881088D01*
X109882587Y-68768413D01*
X109882587Y-68522008D01*
X108884730Y-68522008D01*
X108884730Y-68792864D01*
X108884583Y-68864766D01*
X108883051Y-68957839D01*
X108878679Y-69019181D01*
X108870047Y-69057411D01*
X108855736Y-69081152D01*
X108834327Y-69099025D01*
X108769536Y-69129299D01*
X108698648Y-69123941D01*
X108636912Y-69074574D01*
X108627559Y-69062009D01*
X108615635Y-69040866D01*
X108606532Y-69012883D01*
X108599871Y-68972555D01*
X108595273Y-68914382D01*
X108592356Y-68832861D01*
X108590743Y-68722489D01*
X108590054Y-68577765D01*
X108589908Y-68393186D01*
X108589908Y-67771553D01*
X108645574Y-67715887D01*
X108708611Y-67671203D01*
X108775366Y-67665800D01*
X108839373Y-67705579D01*
X108856018Y-67725207D01*
X108870908Y-67757133D01*
X108879622Y-67805282D01*
X108883712Y-67879357D01*
X108884730Y-67989061D01*
X108884730Y-68227186D01*
X109882587Y-68227186D01*
X109882587Y-67999370D01*
X109882588Y-67995128D01*
X109883467Y-67891272D01*
X109887412Y-67821914D01*
X109896484Y-67776561D01*
X109912744Y-67744716D01*
X109938253Y-67715887D01*
X110001290Y-67671203D01*
X110068044Y-67665800D01*
X110132051Y-67705579D01*
G36*
X110132051Y-67705579D02*
G01*
X110143366Y-67718015D01*
X110153593Y-67734499D01*
X110161802Y-67758158D01*
X110168186Y-67793232D01*
X110172940Y-67843965D01*
X110176256Y-67914599D01*
X110178328Y-68009377D01*
X110179349Y-68132541D01*
X110179512Y-68288334D01*
X110179011Y-68480998D01*
X110178039Y-68714775D01*
X110177902Y-68743252D01*
X110176724Y-68867328D01*
X110174068Y-68955084D01*
X110168954Y-69014107D01*
X110160405Y-69051983D01*
X110147445Y-69076299D01*
X110129094Y-69094641D01*
X110061881Y-69129631D01*
X109991672Y-69123802D01*
X109929590Y-69074574D01*
X109911491Y-69048050D01*
X109896522Y-69010814D01*
X109887747Y-68958524D01*
X109883619Y-68881088D01*
X109882587Y-68768413D01*
X109882587Y-68522008D01*
X108884730Y-68522008D01*
X108884730Y-68792864D01*
X108884583Y-68864766D01*
X108883051Y-68957839D01*
X108878679Y-69019181D01*
X108870047Y-69057411D01*
X108855736Y-69081152D01*
X108834327Y-69099025D01*
X108769536Y-69129299D01*
X108698648Y-69123941D01*
X108636912Y-69074574D01*
X108627559Y-69062009D01*
X108615635Y-69040866D01*
X108606532Y-69012883D01*
X108599871Y-68972555D01*
X108595273Y-68914382D01*
X108592356Y-68832861D01*
X108590743Y-68722489D01*
X108590054Y-68577765D01*
X108589908Y-68393186D01*
X108589908Y-67771553D01*
X108645574Y-67715887D01*
X108708611Y-67671203D01*
X108775366Y-67665800D01*
X108839373Y-67705579D01*
X108856018Y-67725207D01*
X108870908Y-67757133D01*
X108879622Y-67805282D01*
X108883712Y-67879357D01*
X108884730Y-67989061D01*
X108884730Y-68227186D01*
X109882587Y-68227186D01*
X109882587Y-67999370D01*
X109882588Y-67995128D01*
X109883467Y-67891272D01*
X109887412Y-67821914D01*
X109896484Y-67776561D01*
X109912744Y-67744716D01*
X109938253Y-67715887D01*
X110001290Y-67671203D01*
X110068044Y-67665800D01*
X110132051Y-67705579D01*
G37*
X119584862Y-68888339D02*
X119580906Y-68954188D01*
X119575022Y-69000235D01*
X119566832Y-69031979D01*
X119555955Y-69054925D01*
X119542012Y-69074574D01*
X119495009Y-69134329D01*
X119162146Y-69133136D01*
X119092244Y-69132537D01*
X118894398Y-69125645D01*
X118731752Y-69110212D01*
X118596964Y-69084985D01*
X118482689Y-69048714D01*
X118381586Y-69000148D01*
X118374839Y-68996297D01*
X118258699Y-68922533D01*
X118173613Y-68848271D01*
X118107687Y-68760912D01*
X118049027Y-68647855D01*
X118040425Y-68628539D01*
X117995068Y-68501603D01*
X117983548Y-68410086D01*
X118283371Y-68410086D01*
X118294646Y-68459764D01*
X118306150Y-68491661D01*
X118372303Y-68612013D01*
X118467403Y-68703928D01*
X118595503Y-68770494D01*
X118760655Y-68814800D01*
X118766268Y-68815809D01*
X118859252Y-68827787D01*
X118972548Y-68836280D01*
X119082913Y-68839508D01*
X119271516Y-68839508D01*
X119271516Y-67955043D01*
X119095757Y-67955943D01*
X118961320Y-67960918D01*
X118775699Y-67983521D01*
X118616361Y-68022774D01*
X118491858Y-68076963D01*
X118429702Y-68118605D01*
X118373211Y-68178403D01*
X118326324Y-68263638D01*
X118312006Y-68295713D01*
X118288253Y-68361006D01*
X118283371Y-68410086D01*
X117983548Y-68410086D01*
X117981064Y-68390352D01*
X117998344Y-68279808D01*
X118046843Y-68154989D01*
X118048442Y-68151588D01*
X118129706Y-68012125D01*
X118231527Y-67898422D01*
X118357538Y-67808889D01*
X118511374Y-67741934D01*
X118696667Y-67695969D01*
X118917052Y-67669401D01*
X119176163Y-67660640D01*
X119183338Y-67660630D01*
X119303915Y-67660911D01*
X119388150Y-67662993D01*
X119444629Y-67668204D01*
X119481932Y-67677872D01*
X119508645Y-67693324D01*
X119533350Y-67715887D01*
X119589016Y-67771553D01*
X119589016Y-68393186D01*
X119588965Y-68516947D01*
X119588512Y-68675221D01*
X119587271Y-68797184D01*
X119586152Y-68839508D01*
X119584862Y-68888339D01*
G36*
X119584862Y-68888339D02*
G01*
X119580906Y-68954188D01*
X119575022Y-69000235D01*
X119566832Y-69031979D01*
X119555955Y-69054925D01*
X119542012Y-69074574D01*
X119495009Y-69134329D01*
X119162146Y-69133136D01*
X119092244Y-69132537D01*
X118894398Y-69125645D01*
X118731752Y-69110212D01*
X118596964Y-69084985D01*
X118482689Y-69048714D01*
X118381586Y-69000148D01*
X118374839Y-68996297D01*
X118258699Y-68922533D01*
X118173613Y-68848271D01*
X118107687Y-68760912D01*
X118049027Y-68647855D01*
X118040425Y-68628539D01*
X117995068Y-68501603D01*
X117983548Y-68410086D01*
X118283371Y-68410086D01*
X118294646Y-68459764D01*
X118306150Y-68491661D01*
X118372303Y-68612013D01*
X118467403Y-68703928D01*
X118595503Y-68770494D01*
X118760655Y-68814800D01*
X118766268Y-68815809D01*
X118859252Y-68827787D01*
X118972548Y-68836280D01*
X119082913Y-68839508D01*
X119271516Y-68839508D01*
X119271516Y-67955043D01*
X119095757Y-67955943D01*
X118961320Y-67960918D01*
X118775699Y-67983521D01*
X118616361Y-68022774D01*
X118491858Y-68076963D01*
X118429702Y-68118605D01*
X118373211Y-68178403D01*
X118326324Y-68263638D01*
X118312006Y-68295713D01*
X118288253Y-68361006D01*
X118283371Y-68410086D01*
X117983548Y-68410086D01*
X117981064Y-68390352D01*
X117998344Y-68279808D01*
X118046843Y-68154989D01*
X118048442Y-68151588D01*
X118129706Y-68012125D01*
X118231527Y-67898422D01*
X118357538Y-67808889D01*
X118511374Y-67741934D01*
X118696667Y-67695969D01*
X118917052Y-67669401D01*
X119176163Y-67660640D01*
X119183338Y-67660630D01*
X119303915Y-67660911D01*
X119388150Y-67662993D01*
X119444629Y-67668204D01*
X119481932Y-67677872D01*
X119508645Y-67693324D01*
X119533350Y-67715887D01*
X119589016Y-67771553D01*
X119589016Y-68393186D01*
X119588965Y-68516947D01*
X119588512Y-68675221D01*
X119587271Y-68797184D01*
X119586152Y-68839508D01*
X119584862Y-68888339D01*
G37*
X133831550Y-68032597D02*
X133831658Y-68194546D01*
X133831158Y-68397275D01*
X133831079Y-68549273D01*
X133830567Y-68705788D01*
X133829273Y-68826343D01*
X133826854Y-68916198D01*
X133822964Y-68980609D01*
X133817258Y-69024834D01*
X133809393Y-69054131D01*
X133799022Y-69073758D01*
X133785801Y-69088972D01*
X133771805Y-69101495D01*
X133745693Y-69116161D01*
X133707226Y-69125710D01*
X133648155Y-69131210D01*
X133560233Y-69133727D01*
X133435210Y-69134329D01*
X133336880Y-69133575D01*
X133122207Y-69124678D01*
X132942955Y-69104413D01*
X132792691Y-69071089D01*
X132664981Y-69023015D01*
X132553392Y-68958500D01*
X132451490Y-68875856D01*
X132439460Y-68864098D01*
X132365397Y-68766648D01*
X132302920Y-68644488D01*
X132259763Y-68515428D01*
X132249154Y-68437595D01*
X132544903Y-68437595D01*
X132581630Y-68539920D01*
X132641236Y-68632164D01*
X132735047Y-68717362D01*
X132858373Y-68777233D01*
X133017373Y-68815675D01*
X133020366Y-68816154D01*
X133118745Y-68827789D01*
X133236657Y-68836107D01*
X133349239Y-68839336D01*
X133536337Y-68839508D01*
X133536337Y-67955043D01*
X133383257Y-67955014D01*
X133377174Y-67955033D01*
X133274478Y-67958979D01*
X133153736Y-67968472D01*
X133039812Y-67981587D01*
X132939450Y-68000262D01*
X132789279Y-68053033D01*
X132673747Y-68131982D01*
X132590375Y-68238525D01*
X132547751Y-68341515D01*
X132544903Y-68437595D01*
X132249154Y-68437595D01*
X132243658Y-68397275D01*
X132246228Y-68354653D01*
X132270962Y-68239309D01*
X132316221Y-68118952D01*
X132374942Y-68010371D01*
X132440064Y-67930354D01*
X132479322Y-67896156D01*
X132589234Y-67817431D01*
X132710379Y-67756903D01*
X132849389Y-67712786D01*
X133012899Y-67683291D01*
X133207542Y-67666634D01*
X133439953Y-67661026D01*
X133519270Y-67660220D01*
X133611100Y-67659390D01*
X133683021Y-67663015D01*
X133737444Y-67675635D01*
X133776783Y-67701792D01*
X133803451Y-67746026D01*
X133819859Y-67812877D01*
X133828422Y-67906888D01*
X133829621Y-67955043D01*
X133831550Y-68032597D01*
G36*
X133831550Y-68032597D02*
G01*
X133831658Y-68194546D01*
X133831158Y-68397275D01*
X133831079Y-68549273D01*
X133830567Y-68705788D01*
X133829273Y-68826343D01*
X133826854Y-68916198D01*
X133822964Y-68980609D01*
X133817258Y-69024834D01*
X133809393Y-69054131D01*
X133799022Y-69073758D01*
X133785801Y-69088972D01*
X133771805Y-69101495D01*
X133745693Y-69116161D01*
X133707226Y-69125710D01*
X133648155Y-69131210D01*
X133560233Y-69133727D01*
X133435210Y-69134329D01*
X133336880Y-69133575D01*
X133122207Y-69124678D01*
X132942955Y-69104413D01*
X132792691Y-69071089D01*
X132664981Y-69023015D01*
X132553392Y-68958500D01*
X132451490Y-68875856D01*
X132439460Y-68864098D01*
X132365397Y-68766648D01*
X132302920Y-68644488D01*
X132259763Y-68515428D01*
X132249154Y-68437595D01*
X132544903Y-68437595D01*
X132581630Y-68539920D01*
X132641236Y-68632164D01*
X132735047Y-68717362D01*
X132858373Y-68777233D01*
X133017373Y-68815675D01*
X133020366Y-68816154D01*
X133118745Y-68827789D01*
X133236657Y-68836107D01*
X133349239Y-68839336D01*
X133536337Y-68839508D01*
X133536337Y-67955043D01*
X133383257Y-67955014D01*
X133377174Y-67955033D01*
X133274478Y-67958979D01*
X133153736Y-67968472D01*
X133039812Y-67981587D01*
X132939450Y-68000262D01*
X132789279Y-68053033D01*
X132673747Y-68131982D01*
X132590375Y-68238525D01*
X132547751Y-68341515D01*
X132544903Y-68437595D01*
X132249154Y-68437595D01*
X132243658Y-68397275D01*
X132246228Y-68354653D01*
X132270962Y-68239309D01*
X132316221Y-68118952D01*
X132374942Y-68010371D01*
X132440064Y-67930354D01*
X132479322Y-67896156D01*
X132589234Y-67817431D01*
X132710379Y-67756903D01*
X132849389Y-67712786D01*
X133012899Y-67683291D01*
X133207542Y-67666634D01*
X133439953Y-67661026D01*
X133519270Y-67660220D01*
X133611100Y-67659390D01*
X133683021Y-67663015D01*
X133737444Y-67675635D01*
X133776783Y-67701792D01*
X133803451Y-67746026D01*
X133819859Y-67812877D01*
X133828422Y-67906888D01*
X133829621Y-67955043D01*
X133831550Y-68032597D01*
G37*
X123897551Y-67657861D02*
X123920468Y-67670191D01*
X123941659Y-67691609D01*
X123964334Y-67719977D01*
X123973279Y-67731952D01*
X123985330Y-67753036D01*
X123994530Y-67780810D01*
X124001262Y-67820797D01*
X124005912Y-67878522D01*
X124008860Y-67959509D01*
X124010492Y-68069281D01*
X124011190Y-68213362D01*
X124011337Y-68397275D01*
X124011291Y-68514858D01*
X124010852Y-68673740D01*
X124009629Y-68796168D01*
X124007237Y-68887669D01*
X124003293Y-68953764D01*
X123997414Y-68999978D01*
X123989217Y-69031835D01*
X123978318Y-69054859D01*
X123964334Y-69074574D01*
X123903205Y-69123578D01*
X123833007Y-69129363D01*
X123758716Y-69091012D01*
X123750310Y-69084030D01*
X123733885Y-69066899D01*
X123721710Y-69043694D01*
X123712906Y-69007870D01*
X123706594Y-68952881D01*
X123701898Y-68872183D01*
X123697938Y-68759230D01*
X123693837Y-68607476D01*
X123682498Y-68167258D01*
X123149551Y-68650688D01*
X123001224Y-68784837D01*
X122870283Y-68901588D01*
X122765428Y-68991905D01*
X122682913Y-69058043D01*
X122618991Y-69102255D01*
X122569916Y-69126794D01*
X122531943Y-69133917D01*
X122501326Y-69125875D01*
X122474317Y-69104924D01*
X122447173Y-69073317D01*
X122434626Y-69056274D01*
X122423313Y-69035025D01*
X122414853Y-69006582D01*
X122408923Y-68965495D01*
X122405196Y-68906311D01*
X122403350Y-68823580D01*
X122403058Y-68711850D01*
X122403996Y-68565670D01*
X122405839Y-68379588D01*
X122412498Y-67746871D01*
X122466037Y-67703546D01*
X122518400Y-67671019D01*
X122584410Y-67665452D01*
X122653780Y-67703527D01*
X122662442Y-67710728D01*
X122678779Y-67727864D01*
X122690891Y-67751151D01*
X122699652Y-67787122D01*
X122705935Y-67842309D01*
X122710615Y-67923246D01*
X122714564Y-68036463D01*
X122718658Y-68188494D01*
X122729998Y-68630156D01*
X123092855Y-68301105D01*
X123267105Y-68143136D01*
X123419325Y-68005739D01*
X123544153Y-67894546D01*
X123644796Y-67807418D01*
X123724465Y-67742214D01*
X123786366Y-67696796D01*
X123833708Y-67669024D01*
X123869701Y-67656759D01*
X123897551Y-67657861D01*
G36*
X123897551Y-67657861D02*
G01*
X123920468Y-67670191D01*
X123941659Y-67691609D01*
X123964334Y-67719977D01*
X123973279Y-67731952D01*
X123985330Y-67753036D01*
X123994530Y-67780810D01*
X124001262Y-67820797D01*
X124005912Y-67878522D01*
X124008860Y-67959509D01*
X124010492Y-68069281D01*
X124011190Y-68213362D01*
X124011337Y-68397275D01*
X124011291Y-68514858D01*
X124010852Y-68673740D01*
X124009629Y-68796168D01*
X124007237Y-68887669D01*
X124003293Y-68953764D01*
X123997414Y-68999978D01*
X123989217Y-69031835D01*
X123978318Y-69054859D01*
X123964334Y-69074574D01*
X123903205Y-69123578D01*
X123833007Y-69129363D01*
X123758716Y-69091012D01*
X123750310Y-69084030D01*
X123733885Y-69066899D01*
X123721710Y-69043694D01*
X123712906Y-69007870D01*
X123706594Y-68952881D01*
X123701898Y-68872183D01*
X123697938Y-68759230D01*
X123693837Y-68607476D01*
X123682498Y-68167258D01*
X123149551Y-68650688D01*
X123001224Y-68784837D01*
X122870283Y-68901588D01*
X122765428Y-68991905D01*
X122682913Y-69058043D01*
X122618991Y-69102255D01*
X122569916Y-69126794D01*
X122531943Y-69133917D01*
X122501326Y-69125875D01*
X122474317Y-69104924D01*
X122447173Y-69073317D01*
X122434626Y-69056274D01*
X122423313Y-69035025D01*
X122414853Y-69006582D01*
X122408923Y-68965495D01*
X122405196Y-68906311D01*
X122403350Y-68823580D01*
X122403058Y-68711850D01*
X122403996Y-68565670D01*
X122405839Y-68379588D01*
X122412498Y-67746871D01*
X122466037Y-67703546D01*
X122518400Y-67671019D01*
X122584410Y-67665452D01*
X122653780Y-67703527D01*
X122662442Y-67710728D01*
X122678779Y-67727864D01*
X122690891Y-67751151D01*
X122699652Y-67787122D01*
X122705935Y-67842309D01*
X122710615Y-67923246D01*
X122714564Y-68036463D01*
X122718658Y-68188494D01*
X122729998Y-68630156D01*
X123092855Y-68301105D01*
X123267105Y-68143136D01*
X123419325Y-68005739D01*
X123544153Y-67894546D01*
X123644796Y-67807418D01*
X123724465Y-67742214D01*
X123786366Y-67696796D01*
X123833708Y-67669024D01*
X123869701Y-67656759D01*
X123897551Y-67657861D01*
G37*
X125499183Y-67670492D02*
X125712142Y-67703268D01*
X125900605Y-67759621D01*
X126058899Y-67837781D01*
X126181352Y-67935981D01*
X126233725Y-68001998D01*
X126293004Y-68100835D01*
X126343773Y-68209032D01*
X126379229Y-68311823D01*
X126392569Y-68394440D01*
X126389436Y-68434046D01*
X126363437Y-68537169D01*
X126316904Y-68650727D01*
X126256854Y-68759042D01*
X126190301Y-68846438D01*
X126169817Y-68867227D01*
X126035047Y-68971239D01*
X125874081Y-69051380D01*
X125700891Y-69100401D01*
X125590471Y-69116698D01*
X125402731Y-69129966D01*
X125222369Y-69125773D01*
X125056653Y-69105191D01*
X124912848Y-69069291D01*
X124798223Y-69019145D01*
X124720042Y-68955822D01*
X124717279Y-68951853D01*
X124703040Y-68901176D01*
X124694525Y-68806252D01*
X124691694Y-68666704D01*
X124693422Y-68541683D01*
X124702903Y-68446495D01*
X124726387Y-68382002D01*
X124770120Y-68342722D01*
X124840350Y-68323175D01*
X124943324Y-68317877D01*
X125085288Y-68321349D01*
X125182963Y-68327400D01*
X125283803Y-68343858D01*
X125349081Y-68372090D01*
X125384154Y-68414751D01*
X125394383Y-68474496D01*
X125394169Y-68483619D01*
X125376687Y-68553518D01*
X125328454Y-68600561D01*
X125245555Y-68627079D01*
X125124078Y-68635400D01*
X124986516Y-68635400D01*
X124986516Y-68712447D01*
X124986617Y-68730799D01*
X124991078Y-68765455D01*
X125009695Y-68786135D01*
X125052647Y-68800072D01*
X125130114Y-68814501D01*
X125141111Y-68816377D01*
X125335878Y-68836272D01*
X125516664Y-68830408D01*
X125679202Y-68800816D01*
X125819222Y-68749527D01*
X125932455Y-68678571D01*
X126014632Y-68589979D01*
X126061484Y-68485782D01*
X126068741Y-68368011D01*
X126057654Y-68309963D01*
X126004049Y-68197685D01*
X125911259Y-68105958D01*
X125780716Y-68035975D01*
X125613851Y-67988929D01*
X125564282Y-67979992D01*
X125384827Y-67958899D01*
X125224499Y-67961369D01*
X125067617Y-67987355D01*
X124997016Y-68000994D01*
X124905735Y-68003039D01*
X124842826Y-67977864D01*
X124802339Y-67924051D01*
X124789514Y-67867304D01*
X124808572Y-67804577D01*
X124827313Y-67777607D01*
X124896087Y-67730334D01*
X125001801Y-67694431D01*
X125139446Y-67671335D01*
X125304016Y-67662483D01*
X125499183Y-67670492D01*
G36*
X125499183Y-67670492D02*
G01*
X125712142Y-67703268D01*
X125900605Y-67759621D01*
X126058899Y-67837781D01*
X126181352Y-67935981D01*
X126233725Y-68001998D01*
X126293004Y-68100835D01*
X126343773Y-68209032D01*
X126379229Y-68311823D01*
X126392569Y-68394440D01*
X126389436Y-68434046D01*
X126363437Y-68537169D01*
X126316904Y-68650727D01*
X126256854Y-68759042D01*
X126190301Y-68846438D01*
X126169817Y-68867227D01*
X126035047Y-68971239D01*
X125874081Y-69051380D01*
X125700891Y-69100401D01*
X125590471Y-69116698D01*
X125402731Y-69129966D01*
X125222369Y-69125773D01*
X125056653Y-69105191D01*
X124912848Y-69069291D01*
X124798223Y-69019145D01*
X124720042Y-68955822D01*
X124717279Y-68951853D01*
X124703040Y-68901176D01*
X124694525Y-68806252D01*
X124691694Y-68666704D01*
X124693422Y-68541683D01*
X124702903Y-68446495D01*
X124726387Y-68382002D01*
X124770120Y-68342722D01*
X124840350Y-68323175D01*
X124943324Y-68317877D01*
X125085288Y-68321349D01*
X125182963Y-68327400D01*
X125283803Y-68343858D01*
X125349081Y-68372090D01*
X125384154Y-68414751D01*
X125394383Y-68474496D01*
X125394169Y-68483619D01*
X125376687Y-68553518D01*
X125328454Y-68600561D01*
X125245555Y-68627079D01*
X125124078Y-68635400D01*
X124986516Y-68635400D01*
X124986516Y-68712447D01*
X124986617Y-68730799D01*
X124991078Y-68765455D01*
X125009695Y-68786135D01*
X125052647Y-68800072D01*
X125130114Y-68814501D01*
X125141111Y-68816377D01*
X125335878Y-68836272D01*
X125516664Y-68830408D01*
X125679202Y-68800816D01*
X125819222Y-68749527D01*
X125932455Y-68678571D01*
X126014632Y-68589979D01*
X126061484Y-68485782D01*
X126068741Y-68368011D01*
X126057654Y-68309963D01*
X126004049Y-68197685D01*
X125911259Y-68105958D01*
X125780716Y-68035975D01*
X125613851Y-67988929D01*
X125564282Y-67979992D01*
X125384827Y-67958899D01*
X125224499Y-67961369D01*
X125067617Y-67987355D01*
X124997016Y-68000994D01*
X124905735Y-68003039D01*
X124842826Y-67977864D01*
X124802339Y-67924051D01*
X124789514Y-67867304D01*
X124808572Y-67804577D01*
X124827313Y-67777607D01*
X124896087Y-67730334D01*
X125001801Y-67694431D01*
X125139446Y-67671335D01*
X125304016Y-67662483D01*
X125499183Y-67670492D01*
G37*
X121583084Y-67719977D02*
X121593026Y-67733404D01*
X121604767Y-67754641D01*
X121613729Y-67782940D01*
X121620286Y-67823772D01*
X121624812Y-67882607D01*
X121627681Y-67964917D01*
X121629267Y-68076171D01*
X121629944Y-68221841D01*
X121630087Y-68407397D01*
X121630029Y-68539819D01*
X121629563Y-68697153D01*
X121628316Y-68818226D01*
X121625920Y-68908423D01*
X121622009Y-68973127D01*
X121616213Y-69017722D01*
X121608165Y-69047593D01*
X121597499Y-69068123D01*
X121583846Y-69084695D01*
X121574776Y-69094052D01*
X121558243Y-69107083D01*
X121535422Y-69116950D01*
X121500732Y-69124092D01*
X121448590Y-69128950D01*
X121373417Y-69131963D01*
X121269631Y-69133571D01*
X121131649Y-69134213D01*
X120953893Y-69134329D01*
X120914368Y-69134316D01*
X120739540Y-69133781D01*
X120603632Y-69132242D01*
X120501268Y-69129401D01*
X120427075Y-69124958D01*
X120375678Y-69118614D01*
X120341703Y-69110069D01*
X120319776Y-69099025D01*
X120298698Y-69078964D01*
X120272057Y-69016453D01*
X120274433Y-68944355D01*
X120306906Y-68880981D01*
X120311304Y-68876408D01*
X120328757Y-68863816D01*
X120355560Y-68854443D01*
X120397713Y-68847821D01*
X120461218Y-68843483D01*
X120552076Y-68840963D01*
X120676287Y-68839794D01*
X120839852Y-68839508D01*
X121335266Y-68839508D01*
X121335266Y-68522008D01*
X121008939Y-68522008D01*
X120937283Y-68521846D01*
X120825245Y-68520244D01*
X120746620Y-68516217D01*
X120693476Y-68508902D01*
X120657883Y-68497434D01*
X120631908Y-68480950D01*
X120624589Y-68474554D01*
X120587610Y-68412327D01*
X120586336Y-68339330D01*
X120621571Y-68271792D01*
X120621695Y-68271654D01*
X120641123Y-68254324D01*
X120667829Y-68242159D01*
X120709428Y-68234261D01*
X120773536Y-68229732D01*
X120867766Y-68227673D01*
X120999734Y-68227186D01*
X121337529Y-68227186D01*
X121330728Y-68096784D01*
X121323926Y-67966383D01*
X120837610Y-67960249D01*
X120787354Y-67959590D01*
X120623386Y-67956618D01*
X120498191Y-67951828D01*
X120406557Y-67943802D01*
X120343271Y-67931118D01*
X120303122Y-67912357D01*
X120280898Y-67886098D01*
X120271385Y-67850920D01*
X120269373Y-67805404D01*
X120269385Y-67800652D01*
X120271703Y-67760411D01*
X120281341Y-67728685D01*
X120303053Y-67704464D01*
X120341593Y-67686739D01*
X120401717Y-67674501D01*
X120488178Y-67666740D01*
X120605731Y-67662446D01*
X120759130Y-67660609D01*
X120953130Y-67660222D01*
X121536081Y-67660222D01*
X121583084Y-67719977D01*
G36*
X121583084Y-67719977D02*
G01*
X121593026Y-67733404D01*
X121604767Y-67754641D01*
X121613729Y-67782940D01*
X121620286Y-67823772D01*
X121624812Y-67882607D01*
X121627681Y-67964917D01*
X121629267Y-68076171D01*
X121629944Y-68221841D01*
X121630087Y-68407397D01*
X121630029Y-68539819D01*
X121629563Y-68697153D01*
X121628316Y-68818226D01*
X121625920Y-68908423D01*
X121622009Y-68973127D01*
X121616213Y-69017722D01*
X121608165Y-69047593D01*
X121597499Y-69068123D01*
X121583846Y-69084695D01*
X121574776Y-69094052D01*
X121558243Y-69107083D01*
X121535422Y-69116950D01*
X121500732Y-69124092D01*
X121448590Y-69128950D01*
X121373417Y-69131963D01*
X121269631Y-69133571D01*
X121131649Y-69134213D01*
X120953893Y-69134329D01*
X120914368Y-69134316D01*
X120739540Y-69133781D01*
X120603632Y-69132242D01*
X120501268Y-69129401D01*
X120427075Y-69124958D01*
X120375678Y-69118614D01*
X120341703Y-69110069D01*
X120319776Y-69099025D01*
X120298698Y-69078964D01*
X120272057Y-69016453D01*
X120274433Y-68944355D01*
X120306906Y-68880981D01*
X120311304Y-68876408D01*
X120328757Y-68863816D01*
X120355560Y-68854443D01*
X120397713Y-68847821D01*
X120461218Y-68843483D01*
X120552076Y-68840963D01*
X120676287Y-68839794D01*
X120839852Y-68839508D01*
X121335266Y-68839508D01*
X121335266Y-68522008D01*
X121008939Y-68522008D01*
X120937283Y-68521846D01*
X120825245Y-68520244D01*
X120746620Y-68516217D01*
X120693476Y-68508902D01*
X120657883Y-68497434D01*
X120631908Y-68480950D01*
X120624589Y-68474554D01*
X120587610Y-68412327D01*
X120586336Y-68339330D01*
X120621571Y-68271792D01*
X120621695Y-68271654D01*
X120641123Y-68254324D01*
X120667829Y-68242159D01*
X120709428Y-68234261D01*
X120773536Y-68229732D01*
X120867766Y-68227673D01*
X120999734Y-68227186D01*
X121337529Y-68227186D01*
X121330728Y-68096784D01*
X121323926Y-67966383D01*
X120837610Y-67960249D01*
X120787354Y-67959590D01*
X120623386Y-67956618D01*
X120498191Y-67951828D01*
X120406557Y-67943802D01*
X120343271Y-67931118D01*
X120303122Y-67912357D01*
X120280898Y-67886098D01*
X120271385Y-67850920D01*
X120269373Y-67805404D01*
X120269385Y-67800652D01*
X120271703Y-67760411D01*
X120281341Y-67728685D01*
X120303053Y-67704464D01*
X120341593Y-67686739D01*
X120401717Y-67674501D01*
X120488178Y-67666740D01*
X120605731Y-67662446D01*
X120759130Y-67660609D01*
X120953130Y-67660222D01*
X121536081Y-67660222D01*
X121583084Y-67719977D01*
G37*
X130978704Y-67660254D02*
X131133586Y-67660640D01*
X131252005Y-67661815D01*
X131339568Y-67664208D01*
X131401882Y-67668251D01*
X131444557Y-67674374D01*
X131473198Y-67683009D01*
X131493414Y-67694584D01*
X131510813Y-67709532D01*
X131514398Y-67712909D01*
X131528951Y-67728054D01*
X131540285Y-67746170D01*
X131548804Y-67772556D01*
X131554909Y-67812509D01*
X131559002Y-67871328D01*
X131561486Y-67954311D01*
X131562763Y-68066757D01*
X131563234Y-68213963D01*
X131563301Y-68401229D01*
X131563228Y-68547457D01*
X131562729Y-68704507D01*
X131561450Y-68825473D01*
X131559045Y-68915632D01*
X131555166Y-68980259D01*
X131549464Y-69024630D01*
X131541592Y-69054022D01*
X131531201Y-69073711D01*
X131517944Y-69088972D01*
X131511246Y-69095354D01*
X131494126Y-69107630D01*
X131470015Y-69117021D01*
X131433432Y-69123912D01*
X131378895Y-69128688D01*
X131300925Y-69131733D01*
X131194041Y-69133431D01*
X131052761Y-69134169D01*
X130871605Y-69134329D01*
X130787011Y-69134305D01*
X130623993Y-69133940D01*
X130498451Y-69132829D01*
X130404903Y-69130588D01*
X130337870Y-69126832D01*
X130291871Y-69121177D01*
X130261424Y-69113239D01*
X130241049Y-69102632D01*
X130225266Y-69088972D01*
X130195682Y-69045580D01*
X130179908Y-68986918D01*
X130190955Y-68938892D01*
X130225266Y-68884865D01*
X130235268Y-68875608D01*
X130254906Y-68862977D01*
X130283263Y-68853686D01*
X130326445Y-68847224D01*
X130390559Y-68843085D01*
X130481710Y-68840758D01*
X130606006Y-68839735D01*
X130769551Y-68839508D01*
X131268480Y-68839508D01*
X131268480Y-68522008D01*
X130944687Y-68522008D01*
X130872731Y-68521716D01*
X130740897Y-68518255D01*
X130645993Y-68509345D01*
X130582240Y-68493064D01*
X130543857Y-68467489D01*
X130525066Y-68430697D01*
X130520087Y-68380766D01*
X130521689Y-68340073D01*
X130532240Y-68296227D01*
X130557942Y-68265387D01*
X130604830Y-68245307D01*
X130678937Y-68233743D01*
X130786299Y-68228451D01*
X130932948Y-68227186D01*
X131270743Y-68227186D01*
X131263942Y-68096784D01*
X131257141Y-67966383D01*
X130759496Y-67960258D01*
X130633755Y-67958493D01*
X130496222Y-67955591D01*
X130393959Y-67951712D01*
X130321129Y-67946388D01*
X130271896Y-67939149D01*
X130240425Y-67929527D01*
X130220880Y-67917056D01*
X130208796Y-67904193D01*
X130182662Y-67840547D01*
X130189815Y-67768856D01*
X130229542Y-67706462D01*
X130236074Y-67700590D01*
X130254114Y-67687830D01*
X130278430Y-67678082D01*
X130314603Y-67670942D01*
X130368217Y-67666006D01*
X130444856Y-67662869D01*
X130550103Y-67661129D01*
X130689539Y-67660381D01*
X130868750Y-67660222D01*
X130978704Y-67660254D01*
G36*
X130978704Y-67660254D02*
G01*
X131133586Y-67660640D01*
X131252005Y-67661815D01*
X131339568Y-67664208D01*
X131401882Y-67668251D01*
X131444557Y-67674374D01*
X131473198Y-67683009D01*
X131493414Y-67694584D01*
X131510813Y-67709532D01*
X131514398Y-67712909D01*
X131528951Y-67728054D01*
X131540285Y-67746170D01*
X131548804Y-67772556D01*
X131554909Y-67812509D01*
X131559002Y-67871328D01*
X131561486Y-67954311D01*
X131562763Y-68066757D01*
X131563234Y-68213963D01*
X131563301Y-68401229D01*
X131563228Y-68547457D01*
X131562729Y-68704507D01*
X131561450Y-68825473D01*
X131559045Y-68915632D01*
X131555166Y-68980259D01*
X131549464Y-69024630D01*
X131541592Y-69054022D01*
X131531201Y-69073711D01*
X131517944Y-69088972D01*
X131511246Y-69095354D01*
X131494126Y-69107630D01*
X131470015Y-69117021D01*
X131433432Y-69123912D01*
X131378895Y-69128688D01*
X131300925Y-69131733D01*
X131194041Y-69133431D01*
X131052761Y-69134169D01*
X130871605Y-69134329D01*
X130787011Y-69134305D01*
X130623993Y-69133940D01*
X130498451Y-69132829D01*
X130404903Y-69130588D01*
X130337870Y-69126832D01*
X130291871Y-69121177D01*
X130261424Y-69113239D01*
X130241049Y-69102632D01*
X130225266Y-69088972D01*
X130195682Y-69045580D01*
X130179908Y-68986918D01*
X130190955Y-68938892D01*
X130225266Y-68884865D01*
X130235268Y-68875608D01*
X130254906Y-68862977D01*
X130283263Y-68853686D01*
X130326445Y-68847224D01*
X130390559Y-68843085D01*
X130481710Y-68840758D01*
X130606006Y-68839735D01*
X130769551Y-68839508D01*
X131268480Y-68839508D01*
X131268480Y-68522008D01*
X130944687Y-68522008D01*
X130872731Y-68521716D01*
X130740897Y-68518255D01*
X130645993Y-68509345D01*
X130582240Y-68493064D01*
X130543857Y-68467489D01*
X130525066Y-68430697D01*
X130520087Y-68380766D01*
X130521689Y-68340073D01*
X130532240Y-68296227D01*
X130557942Y-68265387D01*
X130604830Y-68245307D01*
X130678937Y-68233743D01*
X130786299Y-68228451D01*
X130932948Y-68227186D01*
X131270743Y-68227186D01*
X131263942Y-68096784D01*
X131257141Y-67966383D01*
X130759496Y-67960258D01*
X130633755Y-67958493D01*
X130496222Y-67955591D01*
X130393959Y-67951712D01*
X130321129Y-67946388D01*
X130271896Y-67939149D01*
X130240425Y-67929527D01*
X130220880Y-67917056D01*
X130208796Y-67904193D01*
X130182662Y-67840547D01*
X130189815Y-67768856D01*
X130229542Y-67706462D01*
X130236074Y-67700590D01*
X130254114Y-67687830D01*
X130278430Y-67678082D01*
X130314603Y-67670942D01*
X130368217Y-67666006D01*
X130444856Y-67662869D01*
X130550103Y-67661129D01*
X130689539Y-67660381D01*
X130868750Y-67660222D01*
X130978704Y-67660254D01*
G37*
X113768149Y-67679129D02*
X113804230Y-67716316D01*
X113845615Y-67778757D01*
X113895501Y-67870535D01*
X113957085Y-67995736D01*
X114033564Y-68158445D01*
X114062962Y-68221492D01*
X114122725Y-68348422D01*
X114175148Y-68458122D01*
X114217324Y-68544599D01*
X114246347Y-68601860D01*
X114259310Y-68623912D01*
X114262040Y-68622745D01*
X114282113Y-68594726D01*
X114316849Y-68535386D01*
X114362245Y-68451781D01*
X114414293Y-68350964D01*
X114446381Y-68287706D01*
X114504539Y-68176504D01*
X114549717Y-68098122D01*
X114586311Y-68046940D01*
X114618717Y-68017338D01*
X114651331Y-68003698D01*
X114688549Y-68000400D01*
X114709648Y-68001355D01*
X114742024Y-68009807D01*
X114772789Y-68031631D01*
X114806133Y-68072358D01*
X114846249Y-68137517D01*
X114897328Y-68232641D01*
X114963562Y-68363258D01*
X114983114Y-68401940D01*
X115032248Y-68495694D01*
X115072900Y-68568342D01*
X115101291Y-68613319D01*
X115113644Y-68624061D01*
X115116391Y-68617490D01*
X115135223Y-68575484D01*
X115169096Y-68501277D01*
X115215133Y-68401129D01*
X115270461Y-68281301D01*
X115332206Y-68148052D01*
X115385874Y-68033100D01*
X115445385Y-67908569D01*
X115491733Y-67816681D01*
X115527851Y-67752313D01*
X115556673Y-67710340D01*
X115581134Y-67685636D01*
X115604169Y-67673078D01*
X115623072Y-67667267D01*
X115673507Y-67666969D01*
X115728034Y-67697791D01*
X115730647Y-67699769D01*
X115775012Y-67745243D01*
X115797208Y-67789891D01*
X115797301Y-67791176D01*
X115788178Y-67826658D01*
X115762335Y-67896098D01*
X115722641Y-67993220D01*
X115671967Y-68111746D01*
X115613183Y-68245399D01*
X115549159Y-68387903D01*
X115482766Y-68532981D01*
X115416874Y-68674355D01*
X115354353Y-68805749D01*
X115298074Y-68920885D01*
X115250907Y-69013487D01*
X115215722Y-69077278D01*
X115195389Y-69105981D01*
X115126267Y-69132838D01*
X115042500Y-69120058D01*
X115031723Y-69110622D01*
X114999924Y-69066122D01*
X114955322Y-68992273D01*
X114902252Y-68896412D01*
X114845050Y-68785878D01*
X114684791Y-68465969D01*
X114537763Y-68760462D01*
X114518285Y-68799215D01*
X114464087Y-68904378D01*
X114415815Y-68994357D01*
X114378119Y-69060621D01*
X114355647Y-69094641D01*
X114353345Y-69097139D01*
X114296853Y-69127849D01*
X114226415Y-69131231D01*
X114164056Y-69105981D01*
X114159182Y-69100257D01*
X114134552Y-69058822D01*
X114094902Y-68983385D01*
X114042861Y-68879266D01*
X113981062Y-68751786D01*
X113912134Y-68606264D01*
X113838709Y-68448022D01*
X113798047Y-68359381D01*
X113724173Y-68197205D01*
X113667006Y-68069280D01*
X113624769Y-67970974D01*
X113595685Y-67897657D01*
X113577978Y-67844697D01*
X113569871Y-67807466D01*
X113569586Y-67781330D01*
X113575348Y-67761661D01*
X113604793Y-67719710D01*
X113658235Y-67678926D01*
X113659754Y-67678238D01*
X113699108Y-67664174D01*
X113734174Y-67663110D01*
X113768149Y-67679129D01*
G36*
X113768149Y-67679129D02*
G01*
X113804230Y-67716316D01*
X113845615Y-67778757D01*
X113895501Y-67870535D01*
X113957085Y-67995736D01*
X114033564Y-68158445D01*
X114062962Y-68221492D01*
X114122725Y-68348422D01*
X114175148Y-68458122D01*
X114217324Y-68544599D01*
X114246347Y-68601860D01*
X114259310Y-68623912D01*
X114262040Y-68622745D01*
X114282113Y-68594726D01*
X114316849Y-68535386D01*
X114362245Y-68451781D01*
X114414293Y-68350964D01*
X114446381Y-68287706D01*
X114504539Y-68176504D01*
X114549717Y-68098122D01*
X114586311Y-68046940D01*
X114618717Y-68017338D01*
X114651331Y-68003698D01*
X114688549Y-68000400D01*
X114709648Y-68001355D01*
X114742024Y-68009807D01*
X114772789Y-68031631D01*
X114806133Y-68072358D01*
X114846249Y-68137517D01*
X114897328Y-68232641D01*
X114963562Y-68363258D01*
X114983114Y-68401940D01*
X115032248Y-68495694D01*
X115072900Y-68568342D01*
X115101291Y-68613319D01*
X115113644Y-68624061D01*
X115116391Y-68617490D01*
X115135223Y-68575484D01*
X115169096Y-68501277D01*
X115215133Y-68401129D01*
X115270461Y-68281301D01*
X115332206Y-68148052D01*
X115385874Y-68033100D01*
X115445385Y-67908569D01*
X115491733Y-67816681D01*
X115527851Y-67752313D01*
X115556673Y-67710340D01*
X115581134Y-67685636D01*
X115604169Y-67673078D01*
X115623072Y-67667267D01*
X115673507Y-67666969D01*
X115728034Y-67697791D01*
X115730647Y-67699769D01*
X115775012Y-67745243D01*
X115797208Y-67789891D01*
X115797301Y-67791176D01*
X115788178Y-67826658D01*
X115762335Y-67896098D01*
X115722641Y-67993220D01*
X115671967Y-68111746D01*
X115613183Y-68245399D01*
X115549159Y-68387903D01*
X115482766Y-68532981D01*
X115416874Y-68674355D01*
X115354353Y-68805749D01*
X115298074Y-68920885D01*
X115250907Y-69013487D01*
X115215722Y-69077278D01*
X115195389Y-69105981D01*
X115126267Y-69132838D01*
X115042500Y-69120058D01*
X115031723Y-69110622D01*
X114999924Y-69066122D01*
X114955322Y-68992273D01*
X114902252Y-68896412D01*
X114845050Y-68785878D01*
X114684791Y-68465969D01*
X114537763Y-68760462D01*
X114518285Y-68799215D01*
X114464087Y-68904378D01*
X114415815Y-68994357D01*
X114378119Y-69060621D01*
X114355647Y-69094641D01*
X114353345Y-69097139D01*
X114296853Y-69127849D01*
X114226415Y-69131231D01*
X114164056Y-69105981D01*
X114159182Y-69100257D01*
X114134552Y-69058822D01*
X114094902Y-68983385D01*
X114042861Y-68879266D01*
X113981062Y-68751786D01*
X113912134Y-68606264D01*
X113838709Y-68448022D01*
X113798047Y-68359381D01*
X113724173Y-68197205D01*
X113667006Y-68069280D01*
X113624769Y-67970974D01*
X113595685Y-67897657D01*
X113577978Y-67844697D01*
X113569871Y-67807466D01*
X113569586Y-67781330D01*
X113575348Y-67761661D01*
X113604793Y-67719710D01*
X113658235Y-67678926D01*
X113659754Y-67678238D01*
X113699108Y-67664174D01*
X113734174Y-67663110D01*
X113768149Y-67679129D01*
G37*
X128937872Y-67661968D02*
X129070956Y-67672876D01*
X129182051Y-67692158D01*
X129284271Y-67722013D01*
X129427532Y-67788574D01*
X129530302Y-67874320D01*
X129592224Y-67978914D01*
X129612944Y-68102018D01*
X129611062Y-68164794D01*
X129599425Y-68214610D01*
X129569679Y-68258143D01*
X129513484Y-68313088D01*
X129497456Y-68327811D01*
X129449826Y-68369804D01*
X129404838Y-68403897D01*
X129356556Y-68431928D01*
X129299044Y-68455736D01*
X129226368Y-68477159D01*
X129132590Y-68498035D01*
X129011777Y-68520202D01*
X128857991Y-68545499D01*
X128665297Y-68575765D01*
X128628405Y-68581860D01*
X128503189Y-68609223D01*
X128412350Y-68640830D01*
X128359548Y-68675125D01*
X128348441Y-68710551D01*
X128353706Y-68719130D01*
X128389730Y-68749394D01*
X128446233Y-68782811D01*
X128471946Y-68794846D01*
X128514733Y-68809295D01*
X128567741Y-68818892D01*
X128639749Y-68824555D01*
X128739539Y-68827202D01*
X128875891Y-68827752D01*
X128911619Y-68827605D01*
X129047465Y-68825373D01*
X129177922Y-68820903D01*
X129289670Y-68814743D01*
X129369385Y-68807442D01*
X129440725Y-68799269D01*
X129499491Y-68797696D01*
X129537461Y-68806936D01*
X129567823Y-68828382D01*
X129575168Y-68835600D01*
X129607998Y-68899431D01*
X129605347Y-68971058D01*
X129567263Y-69032568D01*
X129526340Y-69055884D01*
X129454052Y-69081387D01*
X129368826Y-69101576D01*
X129361893Y-69102779D01*
X129276174Y-69113259D01*
X129160888Y-69122045D01*
X129030274Y-69128248D01*
X128898569Y-69130978D01*
X128865959Y-69131062D01*
X128668457Y-69126085D01*
X128507638Y-69110001D01*
X128376697Y-69080808D01*
X128268825Y-69036503D01*
X128177217Y-68975083D01*
X128095066Y-68894545D01*
X128054644Y-68841859D01*
X128031288Y-68782500D01*
X128025444Y-68702712D01*
X128025727Y-68678668D01*
X128033508Y-68613013D01*
X128058387Y-68559724D01*
X128108942Y-68497752D01*
X128151555Y-68453274D01*
X128204583Y-68407981D01*
X128264283Y-68371082D01*
X128337064Y-68340434D01*
X128429339Y-68313892D01*
X128547518Y-68289313D01*
X128698011Y-68264552D01*
X128887230Y-68237465D01*
X128978258Y-68223383D01*
X129114774Y-68194135D01*
X129213484Y-68160989D01*
X129272883Y-68125033D01*
X129291466Y-68087356D01*
X129267728Y-68049046D01*
X129200164Y-68011191D01*
X129194045Y-68008752D01*
X129100913Y-67984488D01*
X128975053Y-67968014D01*
X128827529Y-67959656D01*
X128669407Y-67959742D01*
X128511750Y-67968598D01*
X128365623Y-67986550D01*
X128357734Y-67987853D01*
X128259665Y-68003336D01*
X128194874Y-68010592D01*
X128152692Y-68009391D01*
X128122450Y-67999505D01*
X128093480Y-67980704D01*
X128091130Y-67978956D01*
X128041877Y-67917937D01*
X128032248Y-67846617D01*
X128064002Y-67777146D01*
X128073134Y-67768193D01*
X128132627Y-67737779D01*
X128227010Y-67711416D01*
X128348156Y-67689720D01*
X128487941Y-67673309D01*
X128638239Y-67662802D01*
X128790925Y-67658816D01*
X128937872Y-67661968D01*
G36*
X128937872Y-67661968D02*
G01*
X129070956Y-67672876D01*
X129182051Y-67692158D01*
X129284271Y-67722013D01*
X129427532Y-67788574D01*
X129530302Y-67874320D01*
X129592224Y-67978914D01*
X129612944Y-68102018D01*
X129611062Y-68164794D01*
X129599425Y-68214610D01*
X129569679Y-68258143D01*
X129513484Y-68313088D01*
X129497456Y-68327811D01*
X129449826Y-68369804D01*
X129404838Y-68403897D01*
X129356556Y-68431928D01*
X129299044Y-68455736D01*
X129226368Y-68477159D01*
X129132590Y-68498035D01*
X129011777Y-68520202D01*
X128857991Y-68545499D01*
X128665297Y-68575765D01*
X128628405Y-68581860D01*
X128503189Y-68609223D01*
X128412350Y-68640830D01*
X128359548Y-68675125D01*
X128348441Y-68710551D01*
X128353706Y-68719130D01*
X128389730Y-68749394D01*
X128446233Y-68782811D01*
X128471946Y-68794846D01*
X128514733Y-68809295D01*
X128567741Y-68818892D01*
X128639749Y-68824555D01*
X128739539Y-68827202D01*
X128875891Y-68827752D01*
X128911619Y-68827605D01*
X129047465Y-68825373D01*
X129177922Y-68820903D01*
X129289670Y-68814743D01*
X129369385Y-68807442D01*
X129440725Y-68799269D01*
X129499491Y-68797696D01*
X129537461Y-68806936D01*
X129567823Y-68828382D01*
X129575168Y-68835600D01*
X129607998Y-68899431D01*
X129605347Y-68971058D01*
X129567263Y-69032568D01*
X129526340Y-69055884D01*
X129454052Y-69081387D01*
X129368826Y-69101576D01*
X129361893Y-69102779D01*
X129276174Y-69113259D01*
X129160888Y-69122045D01*
X129030274Y-69128248D01*
X128898569Y-69130978D01*
X128865959Y-69131062D01*
X128668457Y-69126085D01*
X128507638Y-69110001D01*
X128376697Y-69080808D01*
X128268825Y-69036503D01*
X128177217Y-68975083D01*
X128095066Y-68894545D01*
X128054644Y-68841859D01*
X128031288Y-68782500D01*
X128025444Y-68702712D01*
X128025727Y-68678668D01*
X128033508Y-68613013D01*
X128058387Y-68559724D01*
X128108942Y-68497752D01*
X128151555Y-68453274D01*
X128204583Y-68407981D01*
X128264283Y-68371082D01*
X128337064Y-68340434D01*
X128429339Y-68313892D01*
X128547518Y-68289313D01*
X128698011Y-68264552D01*
X128887230Y-68237465D01*
X128978258Y-68223383D01*
X129114774Y-68194135D01*
X129213484Y-68160989D01*
X129272883Y-68125033D01*
X129291466Y-68087356D01*
X129267728Y-68049046D01*
X129200164Y-68011191D01*
X129194045Y-68008752D01*
X129100913Y-67984488D01*
X128975053Y-67968014D01*
X128827529Y-67959656D01*
X128669407Y-67959742D01*
X128511750Y-67968598D01*
X128365623Y-67986550D01*
X128357734Y-67987853D01*
X128259665Y-68003336D01*
X128194874Y-68010592D01*
X128152692Y-68009391D01*
X128122450Y-67999505D01*
X128093480Y-67980704D01*
X128091130Y-67978956D01*
X128041877Y-67917937D01*
X128032248Y-67846617D01*
X128064002Y-67777146D01*
X128073134Y-67768193D01*
X128132627Y-67737779D01*
X128227010Y-67711416D01*
X128348156Y-67689720D01*
X128487941Y-67673309D01*
X128638239Y-67662802D01*
X128790925Y-67658816D01*
X128937872Y-67661968D01*
G37*
X121086428Y-57079066D02*
X121453445Y-57112759D01*
X121794404Y-57180709D01*
X122121989Y-57285776D01*
X122448880Y-57430820D01*
X122772467Y-57616010D01*
X123119739Y-57868472D01*
X123441778Y-58160366D01*
X123731491Y-58484466D01*
X123981787Y-58833546D01*
X124185576Y-59200381D01*
X124204074Y-59239624D01*
X124358990Y-59618410D01*
X124476704Y-60012011D01*
X124558737Y-60427948D01*
X124606610Y-60873740D01*
X124621844Y-61356905D01*
X124603321Y-61856373D01*
X124544529Y-62348252D01*
X124444555Y-62808706D01*
X124302504Y-63241001D01*
X124117482Y-63648404D01*
X123888594Y-64034181D01*
X123673593Y-64328911D01*
X123376721Y-64660530D01*
X123053145Y-64944572D01*
X122703005Y-65180945D01*
X122326444Y-65369555D01*
X121923602Y-65510311D01*
X121494623Y-65603118D01*
X121489727Y-65603841D01*
X121407116Y-65611090D01*
X121282450Y-65616466D01*
X121127260Y-65619720D01*
X120953070Y-65620600D01*
X120771410Y-65618855D01*
X120644092Y-65616298D01*
X120455190Y-65610376D01*
X120303820Y-65601897D01*
X120179061Y-65589957D01*
X120069998Y-65573652D01*
X119965711Y-65552075D01*
X119848380Y-65524192D01*
X119725967Y-65492439D01*
X119615257Y-65459129D01*
X119506202Y-65420359D01*
X119388754Y-65372228D01*
X119252866Y-65310835D01*
X119088489Y-65232278D01*
X118885576Y-65132655D01*
X118324367Y-64855307D01*
X118773860Y-64117002D01*
X118832707Y-64020371D01*
X118938431Y-63846906D01*
X119033060Y-63691827D01*
X119113136Y-63560791D01*
X119175201Y-63459454D01*
X119215796Y-63393473D01*
X119231463Y-63368504D01*
X119235821Y-63369250D01*
X119270923Y-63393685D01*
X119332592Y-63444397D01*
X119411084Y-63513518D01*
X119550873Y-63632943D01*
X119800427Y-63809542D01*
X120042553Y-63932653D01*
X120217520Y-63994132D01*
X120513464Y-64056963D01*
X120804237Y-64068100D01*
X121085623Y-64028301D01*
X121353405Y-63938326D01*
X121603368Y-63798934D01*
X121831293Y-63610881D01*
X121958119Y-63472374D01*
X122136790Y-63216184D01*
X122283398Y-62918889D01*
X122398642Y-62578966D01*
X122483226Y-62194892D01*
X122487063Y-62171049D01*
X122504792Y-62016508D01*
X122517990Y-61824495D01*
X122526550Y-61608128D01*
X122530366Y-61380528D01*
X122529330Y-61154815D01*
X122523337Y-60944110D01*
X122512279Y-60761532D01*
X122496048Y-60620203D01*
X122433839Y-60300061D01*
X122329164Y-59926093D01*
X122197518Y-59598690D01*
X122039077Y-59318105D01*
X121854017Y-59084591D01*
X121642515Y-58898402D01*
X121404746Y-58759791D01*
X121140886Y-58669011D01*
X121082345Y-58657744D01*
X120935637Y-58643032D01*
X120764186Y-58638230D01*
X120587200Y-58643073D01*
X120423886Y-58657299D01*
X120293453Y-58680643D01*
X120076167Y-58754974D01*
X119824011Y-58890674D01*
X119599487Y-59069253D01*
X119559859Y-59106871D01*
X119488054Y-59173426D01*
X119437305Y-59218223D01*
X119416688Y-59233124D01*
X119411612Y-59225997D01*
X119380368Y-59180996D01*
X119323924Y-59099284D01*
X119246010Y-58986274D01*
X119150354Y-58847376D01*
X119040687Y-58688001D01*
X118920738Y-58513559D01*
X118430119Y-57799820D01*
X118539720Y-57766982D01*
X118551157Y-57763261D01*
X118625606Y-57733705D01*
X118732942Y-57686045D01*
X118860569Y-57626016D01*
X118995892Y-57559349D01*
X119054859Y-57529873D01*
X119382297Y-57377699D01*
X119684093Y-57260023D01*
X119971854Y-57173835D01*
X120257187Y-57116125D01*
X120551700Y-57083883D01*
X120867001Y-57074098D01*
X121086428Y-57079066D01*
G36*
X121086428Y-57079066D02*
G01*
X121453445Y-57112759D01*
X121794404Y-57180709D01*
X122121989Y-57285776D01*
X122448880Y-57430820D01*
X122772467Y-57616010D01*
X123119739Y-57868472D01*
X123441778Y-58160366D01*
X123731491Y-58484466D01*
X123981787Y-58833546D01*
X124185576Y-59200381D01*
X124204074Y-59239624D01*
X124358990Y-59618410D01*
X124476704Y-60012011D01*
X124558737Y-60427948D01*
X124606610Y-60873740D01*
X124621844Y-61356905D01*
X124603321Y-61856373D01*
X124544529Y-62348252D01*
X124444555Y-62808706D01*
X124302504Y-63241001D01*
X124117482Y-63648404D01*
X123888594Y-64034181D01*
X123673593Y-64328911D01*
X123376721Y-64660530D01*
X123053145Y-64944572D01*
X122703005Y-65180945D01*
X122326444Y-65369555D01*
X121923602Y-65510311D01*
X121494623Y-65603118D01*
X121489727Y-65603841D01*
X121407116Y-65611090D01*
X121282450Y-65616466D01*
X121127260Y-65619720D01*
X120953070Y-65620600D01*
X120771410Y-65618855D01*
X120644092Y-65616298D01*
X120455190Y-65610376D01*
X120303820Y-65601897D01*
X120179061Y-65589957D01*
X120069998Y-65573652D01*
X119965711Y-65552075D01*
X119848380Y-65524192D01*
X119725967Y-65492439D01*
X119615257Y-65459129D01*
X119506202Y-65420359D01*
X119388754Y-65372228D01*
X119252866Y-65310835D01*
X119088489Y-65232278D01*
X118885576Y-65132655D01*
X118324367Y-64855307D01*
X118773860Y-64117002D01*
X118832707Y-64020371D01*
X118938431Y-63846906D01*
X119033060Y-63691827D01*
X119113136Y-63560791D01*
X119175201Y-63459454D01*
X119215796Y-63393473D01*
X119231463Y-63368504D01*
X119235821Y-63369250D01*
X119270923Y-63393685D01*
X119332592Y-63444397D01*
X119411084Y-63513518D01*
X119550873Y-63632943D01*
X119800427Y-63809542D01*
X120042553Y-63932653D01*
X120217520Y-63994132D01*
X120513464Y-64056963D01*
X120804237Y-64068100D01*
X121085623Y-64028301D01*
X121353405Y-63938326D01*
X121603368Y-63798934D01*
X121831293Y-63610881D01*
X121958119Y-63472374D01*
X122136790Y-63216184D01*
X122283398Y-62918889D01*
X122398642Y-62578966D01*
X122483226Y-62194892D01*
X122487063Y-62171049D01*
X122504792Y-62016508D01*
X122517990Y-61824495D01*
X122526550Y-61608128D01*
X122530366Y-61380528D01*
X122529330Y-61154815D01*
X122523337Y-60944110D01*
X122512279Y-60761532D01*
X122496048Y-60620203D01*
X122433839Y-60300061D01*
X122329164Y-59926093D01*
X122197518Y-59598690D01*
X122039077Y-59318105D01*
X121854017Y-59084591D01*
X121642515Y-58898402D01*
X121404746Y-58759791D01*
X121140886Y-58669011D01*
X121082345Y-58657744D01*
X120935637Y-58643032D01*
X120764186Y-58638230D01*
X120587200Y-58643073D01*
X120423886Y-58657299D01*
X120293453Y-58680643D01*
X120076167Y-58754974D01*
X119824011Y-58890674D01*
X119599487Y-59069253D01*
X119559859Y-59106871D01*
X119488054Y-59173426D01*
X119437305Y-59218223D01*
X119416688Y-59233124D01*
X119411612Y-59225997D01*
X119380368Y-59180996D01*
X119323924Y-59099284D01*
X119246010Y-58986274D01*
X119150354Y-58847376D01*
X119040687Y-58688001D01*
X118920738Y-58513559D01*
X118430119Y-57799820D01*
X118539720Y-57766982D01*
X118551157Y-57763261D01*
X118625606Y-57733705D01*
X118732942Y-57686045D01*
X118860569Y-57626016D01*
X118995892Y-57559349D01*
X119054859Y-57529873D01*
X119382297Y-57377699D01*
X119684093Y-57260023D01*
X119971854Y-57173835D01*
X120257187Y-57116125D01*
X120551700Y-57083883D01*
X120867001Y-57074098D01*
X121086428Y-57079066D01*
G37*
X112164470Y-62770151D02*
X112158675Y-63022897D01*
X112142104Y-63245796D01*
X112113475Y-63450973D01*
X112071504Y-63650551D01*
X112014909Y-63856654D01*
X111929087Y-64103010D01*
X111771463Y-64435578D01*
X111578115Y-64733457D01*
X111352001Y-64993832D01*
X111096079Y-65213886D01*
X110813306Y-65390806D01*
X110506640Y-65521775D01*
X110179040Y-65603979D01*
X110175098Y-65604638D01*
X109935682Y-65627675D01*
X109672627Y-65624600D01*
X109404686Y-65597310D01*
X109150619Y-65547701D01*
X108929180Y-65477667D01*
X108834662Y-65435049D01*
X108711562Y-65370273D01*
X108585068Y-65296186D01*
X108468380Y-65220943D01*
X108374696Y-65152697D01*
X108317216Y-65099604D01*
X108304021Y-65085028D01*
X108288290Y-65079933D01*
X108277776Y-65105228D01*
X108270028Y-65168979D01*
X108262592Y-65279248D01*
X108248937Y-65509020D01*
X107202917Y-65516174D01*
X106156897Y-65523327D01*
X106229274Y-65399826D01*
X106233588Y-65392524D01*
X106254635Y-65358247D01*
X106273728Y-65327710D01*
X106290970Y-65298262D01*
X106306465Y-65267249D01*
X106320314Y-65232018D01*
X106332621Y-65189917D01*
X106343488Y-65138293D01*
X106353018Y-65074492D01*
X106361313Y-64995862D01*
X106368477Y-64899750D01*
X106374613Y-64783504D01*
X106379822Y-64644469D01*
X106384208Y-64479993D01*
X106387873Y-64287424D01*
X106390921Y-64064108D01*
X106393453Y-63807392D01*
X106395573Y-63514625D01*
X106397384Y-63183151D01*
X106398987Y-62810320D01*
X106400487Y-62393477D01*
X106401985Y-61929970D01*
X106403585Y-61417147D01*
X106404994Y-60975812D01*
X108385496Y-60975812D01*
X108385496Y-63814911D01*
X108522055Y-63904482D01*
X108574570Y-63936749D01*
X108694818Y-64001208D01*
X108808829Y-64052539D01*
X108858759Y-64069919D01*
X109017632Y-64104616D01*
X109218506Y-64122334D01*
X109320651Y-64126021D01*
X109415466Y-64125183D01*
X109486046Y-64115713D01*
X109549353Y-64095015D01*
X109622347Y-64060491D01*
X109762627Y-63968012D01*
X109884155Y-63837192D01*
X109981435Y-63668608D01*
X110055390Y-63459616D01*
X110106947Y-63207573D01*
X110137031Y-62909838D01*
X110146568Y-62563768D01*
X110146104Y-62485090D01*
X110132393Y-62120547D01*
X110099100Y-61803345D01*
X110045416Y-61530137D01*
X109970529Y-61297577D01*
X109873631Y-61102317D01*
X109753912Y-60941012D01*
X109704244Y-60891782D01*
X109550316Y-60789219D01*
X109369620Y-60726807D01*
X109169984Y-60704902D01*
X108959235Y-60723857D01*
X108745201Y-60784029D01*
X108535711Y-60885771D01*
X108385496Y-60975812D01*
X106404994Y-60975812D01*
X106405388Y-60852353D01*
X106419044Y-56687299D01*
X107504689Y-56680158D01*
X107583639Y-56679677D01*
X107815926Y-56678724D01*
X108028387Y-56678530D01*
X108215224Y-56679057D01*
X108370636Y-56680264D01*
X108488824Y-56682112D01*
X108563990Y-56684561D01*
X108590334Y-56687572D01*
X108586964Y-56697114D01*
X108561822Y-56742351D01*
X108520180Y-56808137D01*
X108516026Y-56814427D01*
X108483739Y-56865221D01*
X108456668Y-56914642D01*
X108434354Y-56967780D01*
X108416338Y-57029726D01*
X108402160Y-57105571D01*
X108391362Y-57200405D01*
X108383484Y-57319318D01*
X108378068Y-57467402D01*
X108374655Y-57649747D01*
X108372785Y-57871443D01*
X108371999Y-58137582D01*
X108371840Y-58453253D01*
X108372126Y-58699713D01*
X108373002Y-58941680D01*
X108374405Y-59161079D01*
X108376272Y-59352568D01*
X108378538Y-59510804D01*
X108381140Y-59630445D01*
X108384014Y-59706147D01*
X108387097Y-59732568D01*
X108397040Y-59728467D01*
X108440749Y-59699590D01*
X108503172Y-59652164D01*
X108593669Y-59588386D01*
X108763698Y-59494413D01*
X108958036Y-59410588D01*
X109158541Y-59345401D01*
X109327001Y-59312161D01*
X109536809Y-59290972D01*
X109763879Y-59283631D01*
X109990688Y-59290147D01*
X110199715Y-59310528D01*
X110373434Y-59344784D01*
X110550319Y-59402488D01*
X110845406Y-59542374D01*
X111118634Y-59728343D01*
X111364963Y-59956113D01*
X111579353Y-60221402D01*
X111756762Y-60519928D01*
X111800806Y-60611469D01*
X111924232Y-60920243D01*
X112020729Y-61255363D01*
X112091515Y-61622734D01*
X112137811Y-62028264D01*
X112160835Y-62477862D01*
X112161904Y-62563768D01*
X112164470Y-62770151D01*
G36*
X112164470Y-62770151D02*
G01*
X112158675Y-63022897D01*
X112142104Y-63245796D01*
X112113475Y-63450973D01*
X112071504Y-63650551D01*
X112014909Y-63856654D01*
X111929087Y-64103010D01*
X111771463Y-64435578D01*
X111578115Y-64733457D01*
X111352001Y-64993832D01*
X111096079Y-65213886D01*
X110813306Y-65390806D01*
X110506640Y-65521775D01*
X110179040Y-65603979D01*
X110175098Y-65604638D01*
X109935682Y-65627675D01*
X109672627Y-65624600D01*
X109404686Y-65597310D01*
X109150619Y-65547701D01*
X108929180Y-65477667D01*
X108834662Y-65435049D01*
X108711562Y-65370273D01*
X108585068Y-65296186D01*
X108468380Y-65220943D01*
X108374696Y-65152697D01*
X108317216Y-65099604D01*
X108304021Y-65085028D01*
X108288290Y-65079933D01*
X108277776Y-65105228D01*
X108270028Y-65168979D01*
X108262592Y-65279248D01*
X108248937Y-65509020D01*
X107202917Y-65516174D01*
X106156897Y-65523327D01*
X106229274Y-65399826D01*
X106233588Y-65392524D01*
X106254635Y-65358247D01*
X106273728Y-65327710D01*
X106290970Y-65298262D01*
X106306465Y-65267249D01*
X106320314Y-65232018D01*
X106332621Y-65189917D01*
X106343488Y-65138293D01*
X106353018Y-65074492D01*
X106361313Y-64995862D01*
X106368477Y-64899750D01*
X106374613Y-64783504D01*
X106379822Y-64644469D01*
X106384208Y-64479993D01*
X106387873Y-64287424D01*
X106390921Y-64064108D01*
X106393453Y-63807392D01*
X106395573Y-63514625D01*
X106397384Y-63183151D01*
X106398987Y-62810320D01*
X106400487Y-62393477D01*
X106401985Y-61929970D01*
X106403585Y-61417147D01*
X106404994Y-60975812D01*
X108385496Y-60975812D01*
X108385496Y-63814911D01*
X108522055Y-63904482D01*
X108574570Y-63936749D01*
X108694818Y-64001208D01*
X108808829Y-64052539D01*
X108858759Y-64069919D01*
X109017632Y-64104616D01*
X109218506Y-64122334D01*
X109320651Y-64126021D01*
X109415466Y-64125183D01*
X109486046Y-64115713D01*
X109549353Y-64095015D01*
X109622347Y-64060491D01*
X109762627Y-63968012D01*
X109884155Y-63837192D01*
X109981435Y-63668608D01*
X110055390Y-63459616D01*
X110106947Y-63207573D01*
X110137031Y-62909838D01*
X110146568Y-62563768D01*
X110146104Y-62485090D01*
X110132393Y-62120547D01*
X110099100Y-61803345D01*
X110045416Y-61530137D01*
X109970529Y-61297577D01*
X109873631Y-61102317D01*
X109753912Y-60941012D01*
X109704244Y-60891782D01*
X109550316Y-60789219D01*
X109369620Y-60726807D01*
X109169984Y-60704902D01*
X108959235Y-60723857D01*
X108745201Y-60784029D01*
X108535711Y-60885771D01*
X108385496Y-60975812D01*
X106404994Y-60975812D01*
X106405388Y-60852353D01*
X106419044Y-56687299D01*
X107504689Y-56680158D01*
X107583639Y-56679677D01*
X107815926Y-56678724D01*
X108028387Y-56678530D01*
X108215224Y-56679057D01*
X108370636Y-56680264D01*
X108488824Y-56682112D01*
X108563990Y-56684561D01*
X108590334Y-56687572D01*
X108586964Y-56697114D01*
X108561822Y-56742351D01*
X108520180Y-56808137D01*
X108516026Y-56814427D01*
X108483739Y-56865221D01*
X108456668Y-56914642D01*
X108434354Y-56967780D01*
X108416338Y-57029726D01*
X108402160Y-57105571D01*
X108391362Y-57200405D01*
X108383484Y-57319318D01*
X108378068Y-57467402D01*
X108374655Y-57649747D01*
X108372785Y-57871443D01*
X108371999Y-58137582D01*
X108371840Y-58453253D01*
X108372126Y-58699713D01*
X108373002Y-58941680D01*
X108374405Y-59161079D01*
X108376272Y-59352568D01*
X108378538Y-59510804D01*
X108381140Y-59630445D01*
X108384014Y-59706147D01*
X108387097Y-59732568D01*
X108397040Y-59728467D01*
X108440749Y-59699590D01*
X108503172Y-59652164D01*
X108593669Y-59588386D01*
X108763698Y-59494413D01*
X108958036Y-59410588D01*
X109158541Y-59345401D01*
X109327001Y-59312161D01*
X109536809Y-59290972D01*
X109763879Y-59283631D01*
X109990688Y-59290147D01*
X110199715Y-59310528D01*
X110373434Y-59344784D01*
X110550319Y-59402488D01*
X110845406Y-59542374D01*
X111118634Y-59728343D01*
X111364963Y-59956113D01*
X111579353Y-60221402D01*
X111756762Y-60519928D01*
X111800806Y-60611469D01*
X111924232Y-60920243D01*
X112020729Y-61255363D01*
X112091515Y-61622734D01*
X112137811Y-62028264D01*
X112160835Y-62477862D01*
X112161904Y-62563768D01*
X112164470Y-62770151D01*
G37*
X118337846Y-63629570D02*
X118325580Y-63849784D01*
X118299070Y-64054682D01*
X118259068Y-64225364D01*
X118195240Y-64400970D01*
X118047287Y-64690367D01*
X117858172Y-64944982D01*
X117629854Y-65163080D01*
X117364290Y-65342925D01*
X117063439Y-65482782D01*
X116729259Y-65580917D01*
X116592989Y-65603051D01*
X116398261Y-65618433D01*
X116186189Y-65621893D01*
X115974496Y-65613708D01*
X115780902Y-65594157D01*
X115623130Y-65563520D01*
X115543850Y-65539399D01*
X115363793Y-65468812D01*
X115180760Y-65379195D01*
X115013636Y-65280266D01*
X114881304Y-65181744D01*
X114879678Y-65180322D01*
X114807162Y-65118837D01*
X114751370Y-65075056D01*
X114724261Y-65058375D01*
X114721297Y-65062357D01*
X114714591Y-65105377D01*
X114709930Y-65185613D01*
X114708184Y-65290525D01*
X114708184Y-65522676D01*
X113683990Y-65522676D01*
X113656726Y-65522671D01*
X113428061Y-65522271D01*
X113218193Y-65521276D01*
X113033093Y-65519759D01*
X112878732Y-65517795D01*
X112761082Y-65515457D01*
X112686113Y-65512821D01*
X112659797Y-65509960D01*
X112660410Y-65507460D01*
X112677627Y-65470554D01*
X112713718Y-65401217D01*
X112762216Y-65311949D01*
X112864635Y-65126654D01*
X112879653Y-63297261D01*
X114817431Y-63297261D01*
X114818193Y-63441798D01*
X114821884Y-63593666D01*
X114829115Y-63703439D01*
X114840412Y-63778263D01*
X114856302Y-63825287D01*
X114876742Y-63858866D01*
X114953718Y-63950401D01*
X115056856Y-64045695D01*
X115169898Y-64130602D01*
X115276587Y-64190975D01*
X115335781Y-64213127D01*
X115472079Y-64242620D01*
X115650095Y-64257699D01*
X115837780Y-64255415D01*
X116016008Y-64224400D01*
X116164773Y-64160327D01*
X116293482Y-64060309D01*
X116329689Y-64023314D01*
X116423958Y-63897148D01*
X116474963Y-63761159D01*
X116490281Y-63597526D01*
X116486131Y-63511078D01*
X116445092Y-63333116D01*
X116358879Y-63180368D01*
X116225920Y-63051116D01*
X116044647Y-62943641D01*
X115813491Y-62856224D01*
X115720302Y-62833283D01*
X115607486Y-62817575D01*
X115465507Y-62808852D01*
X115281732Y-62805919D01*
X115251879Y-62805921D01*
X115114393Y-62807599D01*
X114996293Y-62811656D01*
X114909323Y-62817559D01*
X114865227Y-62824776D01*
X114860153Y-62827119D01*
X114843747Y-62841832D01*
X114832128Y-62871398D01*
X114824491Y-62923772D01*
X114820033Y-63006905D01*
X114817947Y-63128750D01*
X114817431Y-63297261D01*
X112879653Y-63297261D01*
X112880442Y-63201170D01*
X112882791Y-62920724D01*
X112886078Y-62563053D01*
X112889528Y-62252543D01*
X112893420Y-61984804D01*
X112898032Y-61755442D01*
X112903645Y-61560068D01*
X112910535Y-61394289D01*
X112918982Y-61253715D01*
X112929266Y-61133953D01*
X112941663Y-61030614D01*
X112956454Y-60939305D01*
X112973916Y-60855635D01*
X112994329Y-60775213D01*
X113017972Y-60693647D01*
X113045122Y-60606547D01*
X113152082Y-60333490D01*
X113298559Y-60081128D01*
X113480977Y-59865068D01*
X113701005Y-59684178D01*
X113960313Y-59537328D01*
X114260572Y-59423389D01*
X114603451Y-59341228D01*
X114990621Y-59289717D01*
X115125942Y-59279474D01*
X115353844Y-59271984D01*
X115579731Y-59278729D01*
X115814178Y-59300844D01*
X116067761Y-59339468D01*
X116351055Y-59395737D01*
X116674635Y-59470789D01*
X116749430Y-59488948D01*
X116937260Y-59533634D01*
X117115285Y-59574779D01*
X117272710Y-59609953D01*
X117398739Y-59636725D01*
X117482574Y-59652665D01*
X117675996Y-59684434D01*
X117404069Y-60343501D01*
X117336051Y-60508055D01*
X117269136Y-60669296D01*
X117211723Y-60806961D01*
X117166631Y-60914316D01*
X117136678Y-60984624D01*
X117124682Y-61011149D01*
X117122796Y-61011529D01*
X117088035Y-60999686D01*
X117019682Y-60969337D01*
X116930069Y-60925884D01*
X116743811Y-60841261D01*
X116487508Y-60748735D01*
X116225183Y-60677878D01*
X115967093Y-60630469D01*
X115723499Y-60608289D01*
X115504658Y-60613116D01*
X115320829Y-60646730D01*
X115192529Y-60700066D01*
X115046820Y-60809368D01*
X114934652Y-60957649D01*
X114859236Y-61140349D01*
X114823784Y-61352904D01*
X114811299Y-61548805D01*
X115463021Y-61550589D01*
X115682806Y-61552432D01*
X115925904Y-61558977D01*
X116133576Y-61571330D01*
X116316564Y-61590691D01*
X116485611Y-61618261D01*
X116651459Y-61655242D01*
X116824850Y-61702833D01*
X117084286Y-61793420D01*
X117389436Y-61942598D01*
X117657245Y-62125327D01*
X117885070Y-62339038D01*
X118070270Y-62581160D01*
X118210203Y-62849123D01*
X118302229Y-63140358D01*
X118316641Y-63218795D01*
X118335117Y-63412940D01*
X118337443Y-63597526D01*
X118337846Y-63629570D01*
G36*
X118337846Y-63629570D02*
G01*
X118325580Y-63849784D01*
X118299070Y-64054682D01*
X118259068Y-64225364D01*
X118195240Y-64400970D01*
X118047287Y-64690367D01*
X117858172Y-64944982D01*
X117629854Y-65163080D01*
X117364290Y-65342925D01*
X117063439Y-65482782D01*
X116729259Y-65580917D01*
X116592989Y-65603051D01*
X116398261Y-65618433D01*
X116186189Y-65621893D01*
X115974496Y-65613708D01*
X115780902Y-65594157D01*
X115623130Y-65563520D01*
X115543850Y-65539399D01*
X115363793Y-65468812D01*
X115180760Y-65379195D01*
X115013636Y-65280266D01*
X114881304Y-65181744D01*
X114879678Y-65180322D01*
X114807162Y-65118837D01*
X114751370Y-65075056D01*
X114724261Y-65058375D01*
X114721297Y-65062357D01*
X114714591Y-65105377D01*
X114709930Y-65185613D01*
X114708184Y-65290525D01*
X114708184Y-65522676D01*
X113683990Y-65522676D01*
X113656726Y-65522671D01*
X113428061Y-65522271D01*
X113218193Y-65521276D01*
X113033093Y-65519759D01*
X112878732Y-65517795D01*
X112761082Y-65515457D01*
X112686113Y-65512821D01*
X112659797Y-65509960D01*
X112660410Y-65507460D01*
X112677627Y-65470554D01*
X112713718Y-65401217D01*
X112762216Y-65311949D01*
X112864635Y-65126654D01*
X112879653Y-63297261D01*
X114817431Y-63297261D01*
X114818193Y-63441798D01*
X114821884Y-63593666D01*
X114829115Y-63703439D01*
X114840412Y-63778263D01*
X114856302Y-63825287D01*
X114876742Y-63858866D01*
X114953718Y-63950401D01*
X115056856Y-64045695D01*
X115169898Y-64130602D01*
X115276587Y-64190975D01*
X115335781Y-64213127D01*
X115472079Y-64242620D01*
X115650095Y-64257699D01*
X115837780Y-64255415D01*
X116016008Y-64224400D01*
X116164773Y-64160327D01*
X116293482Y-64060309D01*
X116329689Y-64023314D01*
X116423958Y-63897148D01*
X116474963Y-63761159D01*
X116490281Y-63597526D01*
X116486131Y-63511078D01*
X116445092Y-63333116D01*
X116358879Y-63180368D01*
X116225920Y-63051116D01*
X116044647Y-62943641D01*
X115813491Y-62856224D01*
X115720302Y-62833283D01*
X115607486Y-62817575D01*
X115465507Y-62808852D01*
X115281732Y-62805919D01*
X115251879Y-62805921D01*
X115114393Y-62807599D01*
X114996293Y-62811656D01*
X114909323Y-62817559D01*
X114865227Y-62824776D01*
X114860153Y-62827119D01*
X114843747Y-62841832D01*
X114832128Y-62871398D01*
X114824491Y-62923772D01*
X114820033Y-63006905D01*
X114817947Y-63128750D01*
X114817431Y-63297261D01*
X112879653Y-63297261D01*
X112880442Y-63201170D01*
X112882791Y-62920724D01*
X112886078Y-62563053D01*
X112889528Y-62252543D01*
X112893420Y-61984804D01*
X112898032Y-61755442D01*
X112903645Y-61560068D01*
X112910535Y-61394289D01*
X112918982Y-61253715D01*
X112929266Y-61133953D01*
X112941663Y-61030614D01*
X112956454Y-60939305D01*
X112973916Y-60855635D01*
X112994329Y-60775213D01*
X113017972Y-60693647D01*
X113045122Y-60606547D01*
X113152082Y-60333490D01*
X113298559Y-60081128D01*
X113480977Y-59865068D01*
X113701005Y-59684178D01*
X113960313Y-59537328D01*
X114260572Y-59423389D01*
X114603451Y-59341228D01*
X114990621Y-59289717D01*
X115125942Y-59279474D01*
X115353844Y-59271984D01*
X115579731Y-59278729D01*
X115814178Y-59300844D01*
X116067761Y-59339468D01*
X116351055Y-59395737D01*
X116674635Y-59470789D01*
X116749430Y-59488948D01*
X116937260Y-59533634D01*
X117115285Y-59574779D01*
X117272710Y-59609953D01*
X117398739Y-59636725D01*
X117482574Y-59652665D01*
X117675996Y-59684434D01*
X117404069Y-60343501D01*
X117336051Y-60508055D01*
X117269136Y-60669296D01*
X117211723Y-60806961D01*
X117166631Y-60914316D01*
X117136678Y-60984624D01*
X117124682Y-61011149D01*
X117122796Y-61011529D01*
X117088035Y-60999686D01*
X117019682Y-60969337D01*
X116930069Y-60925884D01*
X116743811Y-60841261D01*
X116487508Y-60748735D01*
X116225183Y-60677878D01*
X115967093Y-60630469D01*
X115723499Y-60608289D01*
X115504658Y-60613116D01*
X115320829Y-60646730D01*
X115192529Y-60700066D01*
X115046820Y-60809368D01*
X114934652Y-60957649D01*
X114859236Y-61140349D01*
X114823784Y-61352904D01*
X114811299Y-61548805D01*
X115463021Y-61550589D01*
X115682806Y-61552432D01*
X115925904Y-61558977D01*
X116133576Y-61571330D01*
X116316564Y-61590691D01*
X116485611Y-61618261D01*
X116651459Y-61655242D01*
X116824850Y-61702833D01*
X117084286Y-61793420D01*
X117389436Y-61942598D01*
X117657245Y-62125327D01*
X117885070Y-62339038D01*
X118070270Y-62581160D01*
X118210203Y-62849123D01*
X118302229Y-63140358D01*
X118316641Y-63218795D01*
X118335117Y-63412940D01*
X118337443Y-63597526D01*
X118337846Y-63629570D01*
G37*
X136660440Y-65576659D02*
X136657628Y-65788454D01*
X136654138Y-65970895D01*
X136649898Y-66126241D01*
X136644838Y-66256750D01*
X136638887Y-66364680D01*
X136631973Y-66452291D01*
X136624026Y-66521839D01*
X136614973Y-66575585D01*
X136604745Y-66615785D01*
X136593270Y-66644700D01*
X136580477Y-66664586D01*
X136566295Y-66677703D01*
X136550653Y-66686309D01*
X136533480Y-66692663D01*
X136514705Y-66699022D01*
X136494256Y-66707646D01*
X136482750Y-66711968D01*
X136461645Y-66716687D01*
X136430284Y-66721011D01*
X136386451Y-66724957D01*
X136327927Y-66728542D01*
X136252493Y-66731784D01*
X136157930Y-66734700D01*
X136042020Y-66737307D01*
X135902545Y-66739622D01*
X135737287Y-66741663D01*
X135544026Y-66743447D01*
X135320545Y-66744992D01*
X135064625Y-66746315D01*
X134774047Y-66747433D01*
X134446593Y-66748364D01*
X134080044Y-66749124D01*
X133672183Y-66749732D01*
X133220790Y-66750204D01*
X132723648Y-66750559D01*
X132178537Y-66750812D01*
X131583240Y-66750982D01*
X130935537Y-66751086D01*
X130730282Y-66751106D01*
X130096636Y-66751119D01*
X129514749Y-66751040D01*
X128982428Y-66750851D01*
X128497481Y-66750538D01*
X128057715Y-66750085D01*
X127660940Y-66749475D01*
X127304961Y-66748693D01*
X126987587Y-66747723D01*
X126706627Y-66746549D01*
X126459886Y-66745155D01*
X126245174Y-66743525D01*
X126060299Y-66741643D01*
X125903067Y-66739493D01*
X125771287Y-66737060D01*
X125662766Y-66734327D01*
X125575313Y-66731279D01*
X125506735Y-66727899D01*
X125454839Y-66724172D01*
X125417434Y-66720082D01*
X125392327Y-66715612D01*
X125377327Y-66710748D01*
X125372554Y-66708583D01*
X125353016Y-66701472D01*
X125335099Y-66696279D01*
X125318730Y-66690742D01*
X125303836Y-66682599D01*
X125290346Y-66669590D01*
X125278186Y-66649452D01*
X125267283Y-66619924D01*
X125257566Y-66578744D01*
X125248961Y-66523650D01*
X125241395Y-66452381D01*
X125234797Y-66362675D01*
X125229093Y-66252270D01*
X125224211Y-66118906D01*
X125220078Y-65960319D01*
X125216622Y-65774249D01*
X125213769Y-65558434D01*
X125212833Y-65458497D01*
X125933046Y-65458497D01*
X125933836Y-65468067D01*
X125948323Y-65475823D01*
X125981055Y-65481955D01*
X126036578Y-65486652D01*
X126119441Y-65490106D01*
X126234191Y-65492506D01*
X126385375Y-65494041D01*
X126577540Y-65494903D01*
X126815234Y-65495280D01*
X127103004Y-65495364D01*
X128308441Y-65495364D01*
X128104635Y-65126654D01*
X128104635Y-59773536D01*
X128308441Y-59404826D01*
X126153764Y-59404826D01*
X126145974Y-62238428D01*
X126138184Y-65072031D01*
X126061801Y-65235161D01*
X126021530Y-65316016D01*
X125975929Y-65397013D01*
X125941492Y-65446827D01*
X125941406Y-65446923D01*
X125933046Y-65458497D01*
X125212833Y-65458497D01*
X125211448Y-65310612D01*
X125209586Y-65028521D01*
X125208109Y-64709901D01*
X125206946Y-64352488D01*
X125206024Y-63954023D01*
X125205269Y-63512242D01*
X125204610Y-63024884D01*
X125203974Y-62489688D01*
X125203288Y-61904393D01*
X125202480Y-61266735D01*
X125202375Y-61189539D01*
X125201474Y-60555923D01*
X125200612Y-59974404D01*
X125199853Y-59442720D01*
X125199261Y-58958608D01*
X125198900Y-58519806D01*
X125198833Y-58124052D01*
X125199125Y-57769081D01*
X125199840Y-57452633D01*
X125201040Y-57172443D01*
X125202790Y-56926250D01*
X125205153Y-56711790D01*
X125208195Y-56526802D01*
X125211977Y-56369022D01*
X125216564Y-56236188D01*
X125222020Y-56126036D01*
X125228409Y-56036305D01*
X125235794Y-55964732D01*
X125244239Y-55909053D01*
X125253808Y-55867007D01*
X125264565Y-55836331D01*
X125276574Y-55814761D01*
X125289898Y-55800036D01*
X125304601Y-55789893D01*
X125320748Y-55782068D01*
X125338401Y-55774300D01*
X125357624Y-55764325D01*
X125363249Y-55761146D01*
X125448363Y-55730379D01*
X125541538Y-55717734D01*
X125646571Y-55717738D01*
X125648321Y-55956712D01*
X125648765Y-55984212D01*
X125682149Y-56263749D01*
X125767177Y-56526767D01*
X125902666Y-56770482D01*
X126087436Y-56992107D01*
X126186589Y-57082499D01*
X126407362Y-57232323D01*
X126648246Y-57336803D01*
X126902226Y-57395882D01*
X127162286Y-57409505D01*
X127421410Y-57377616D01*
X127672583Y-57300158D01*
X127879059Y-57192568D01*
X128792891Y-57192568D01*
X128913064Y-57279027D01*
X129014698Y-57360286D01*
X129157909Y-57492826D01*
X129320345Y-57658936D01*
X129495856Y-57852286D01*
X129678291Y-58066547D01*
X129725272Y-58123844D01*
X129805259Y-58222116D01*
X129909814Y-58351045D01*
X130035472Y-58506327D01*
X130178770Y-58683660D01*
X130336243Y-58878739D01*
X130504429Y-59087263D01*
X130679862Y-59304927D01*
X130760328Y-59404826D01*
X130859080Y-59527429D01*
X131038619Y-59750465D01*
X131215014Y-59969733D01*
X131384802Y-60180928D01*
X131544519Y-60379749D01*
X131690701Y-60561890D01*
X131819885Y-60723051D01*
X131928606Y-60858926D01*
X132013401Y-60965214D01*
X132070806Y-61037610D01*
X132097357Y-61071812D01*
X132099548Y-61084665D01*
X132092259Y-61109110D01*
X132073370Y-61147569D01*
X132040996Y-61202768D01*
X131993250Y-61277437D01*
X131928248Y-61374302D01*
X131844105Y-61496092D01*
X131738934Y-61645536D01*
X131610850Y-61825360D01*
X131457968Y-62038293D01*
X131278401Y-62287063D01*
X131070265Y-62574398D01*
X130831675Y-62903026D01*
X130641568Y-63164610D01*
X130409633Y-63483503D01*
X130205615Y-63763552D01*
X130027144Y-64007866D01*
X129871845Y-64219552D01*
X129737347Y-64401720D01*
X129621276Y-64557476D01*
X129521260Y-64689929D01*
X129434927Y-64802187D01*
X129359904Y-64897357D01*
X129293818Y-64978549D01*
X129234297Y-65048870D01*
X129178969Y-65111428D01*
X129125459Y-65169331D01*
X129071397Y-65225688D01*
X129014409Y-65283606D01*
X128804398Y-65495364D01*
X130216129Y-65495421D01*
X131627861Y-65495478D01*
X131618990Y-65324380D01*
X131618560Y-65315783D01*
X131616876Y-65247383D01*
X131620068Y-65181848D01*
X131630271Y-65115586D01*
X131649621Y-65045009D01*
X131680252Y-64966526D01*
X131724300Y-64876547D01*
X131783900Y-64771484D01*
X131861188Y-64647746D01*
X131958298Y-64501743D01*
X132077366Y-64329886D01*
X132220528Y-64128584D01*
X132389918Y-63894249D01*
X132587672Y-63623289D01*
X132815926Y-63312116D01*
X133621625Y-62215229D01*
X133628723Y-63487038D01*
X133629352Y-63605672D01*
X133630462Y-63925218D01*
X133629957Y-64197013D01*
X133627245Y-64426201D01*
X133621730Y-64617926D01*
X133612819Y-64777331D01*
X133599918Y-64909559D01*
X133582433Y-65019754D01*
X133559770Y-65113059D01*
X133531334Y-65194618D01*
X133496533Y-65269575D01*
X133454771Y-65343074D01*
X133405454Y-65420256D01*
X133355880Y-65495364D01*
X135932254Y-65495364D01*
X135865704Y-65406600D01*
X135855282Y-65392558D01*
X135771957Y-65263856D01*
X135714517Y-65133753D01*
X135676798Y-64984674D01*
X135652638Y-64799047D01*
X135651975Y-64790955D01*
X135648469Y-64714389D01*
X135645303Y-64586641D01*
X135642492Y-64410633D01*
X135640049Y-64189283D01*
X135637987Y-63925510D01*
X135636322Y-63622233D01*
X135635065Y-63282371D01*
X135634231Y-62908844D01*
X135633834Y-62504570D01*
X135633887Y-62072468D01*
X135634405Y-61615459D01*
X135635401Y-61136460D01*
X135636455Y-60706797D01*
X135637583Y-60239100D01*
X135638694Y-59820649D01*
X135639926Y-59448515D01*
X135641420Y-59119764D01*
X135643315Y-58831465D01*
X135645750Y-58580687D01*
X135648864Y-58364499D01*
X135652797Y-58179967D01*
X135657689Y-58024161D01*
X135663679Y-57894149D01*
X135670906Y-57787000D01*
X135679509Y-57699781D01*
X135689629Y-57629561D01*
X135701404Y-57573409D01*
X135714974Y-57528392D01*
X135730479Y-57491580D01*
X135748057Y-57460039D01*
X135767848Y-57430840D01*
X135789992Y-57401050D01*
X135814628Y-57367737D01*
X135838457Y-57334354D01*
X135884513Y-57268349D01*
X135912101Y-57226708D01*
X135912767Y-57224964D01*
X135903134Y-57217089D01*
X135869141Y-57210519D01*
X135807004Y-57205151D01*
X135712941Y-57200886D01*
X135583169Y-57197623D01*
X135413907Y-57195260D01*
X135201370Y-57193697D01*
X134941778Y-57192834D01*
X134631346Y-57192568D01*
X133329995Y-57192568D01*
X133398580Y-57274078D01*
X133438330Y-57330060D01*
X133504495Y-57462056D01*
X133562477Y-57626223D01*
X133606731Y-57808326D01*
X133609552Y-57825614D01*
X133617944Y-57916750D01*
X133624300Y-58057599D01*
X133628635Y-58249136D01*
X133630967Y-58492336D01*
X133631313Y-58788175D01*
X133629689Y-59137628D01*
X133621625Y-60304301D01*
X132788614Y-59250889D01*
X132764755Y-59220715D01*
X132553511Y-58953291D01*
X132373166Y-58724266D01*
X132220848Y-58529748D01*
X132093689Y-58365841D01*
X131988816Y-58228653D01*
X131903362Y-58114287D01*
X131834454Y-58018852D01*
X131779224Y-57938451D01*
X131734802Y-57869192D01*
X131698316Y-57807180D01*
X131666897Y-57748522D01*
X131637675Y-57689322D01*
X131592721Y-57584532D01*
X131563681Y-57473989D01*
X131555957Y-57354752D01*
X131556733Y-57192568D01*
X128792891Y-57192568D01*
X127879059Y-57192568D01*
X127908788Y-57177077D01*
X128123011Y-57008316D01*
X128182563Y-56948820D01*
X128358579Y-56728530D01*
X128483477Y-56489465D01*
X128557925Y-56230082D01*
X128582592Y-55948840D01*
X128582592Y-55717729D01*
X132503196Y-55717729D01*
X132748137Y-55717719D01*
X133274339Y-55717647D01*
X133749687Y-55717596D01*
X134176811Y-55717667D01*
X134558338Y-55717966D01*
X134896897Y-55718597D01*
X135195117Y-55719662D01*
X135455626Y-55721267D01*
X135681054Y-55723515D01*
X135874028Y-55726510D01*
X136037177Y-55730356D01*
X136173131Y-55735156D01*
X136284517Y-55741016D01*
X136373964Y-55748038D01*
X136444101Y-55756327D01*
X136497556Y-55765986D01*
X136536958Y-55777120D01*
X136564936Y-55789832D01*
X136584119Y-55804227D01*
X136597134Y-55820407D01*
X136606611Y-55838478D01*
X136615178Y-55858543D01*
X136625463Y-55880706D01*
X136625648Y-55881068D01*
X136630642Y-55895576D01*
X136635223Y-55919870D01*
X136639408Y-55956190D01*
X136643214Y-56006780D01*
X136646660Y-56073881D01*
X136649762Y-56159735D01*
X136652538Y-56266584D01*
X136655006Y-56396670D01*
X136657181Y-56552234D01*
X136659083Y-56735519D01*
X136660729Y-56948767D01*
X136662135Y-57194219D01*
X136663319Y-57474118D01*
X136664299Y-57790705D01*
X136665091Y-58146222D01*
X136665715Y-58542911D01*
X136666185Y-58983015D01*
X136666521Y-59468774D01*
X136666740Y-60002431D01*
X136666858Y-60586228D01*
X136666893Y-61222407D01*
X136666895Y-61347385D01*
X136666955Y-61976934D01*
X136667049Y-62554544D01*
X136667104Y-63082474D01*
X136667049Y-63562983D01*
X136666815Y-63998329D01*
X136666328Y-64390770D01*
X136665518Y-64742565D01*
X136664314Y-65055973D01*
X136662645Y-65333251D01*
X136661176Y-65495364D01*
X136660440Y-65576659D01*
G36*
X136660440Y-65576659D02*
G01*
X136657628Y-65788454D01*
X136654138Y-65970895D01*
X136649898Y-66126241D01*
X136644838Y-66256750D01*
X136638887Y-66364680D01*
X136631973Y-66452291D01*
X136624026Y-66521839D01*
X136614973Y-66575585D01*
X136604745Y-66615785D01*
X136593270Y-66644700D01*
X136580477Y-66664586D01*
X136566295Y-66677703D01*
X136550653Y-66686309D01*
X136533480Y-66692663D01*
X136514705Y-66699022D01*
X136494256Y-66707646D01*
X136482750Y-66711968D01*
X136461645Y-66716687D01*
X136430284Y-66721011D01*
X136386451Y-66724957D01*
X136327927Y-66728542D01*
X136252493Y-66731784D01*
X136157930Y-66734700D01*
X136042020Y-66737307D01*
X135902545Y-66739622D01*
X135737287Y-66741663D01*
X135544026Y-66743447D01*
X135320545Y-66744992D01*
X135064625Y-66746315D01*
X134774047Y-66747433D01*
X134446593Y-66748364D01*
X134080044Y-66749124D01*
X133672183Y-66749732D01*
X133220790Y-66750204D01*
X132723648Y-66750559D01*
X132178537Y-66750812D01*
X131583240Y-66750982D01*
X130935537Y-66751086D01*
X130730282Y-66751106D01*
X130096636Y-66751119D01*
X129514749Y-66751040D01*
X128982428Y-66750851D01*
X128497481Y-66750538D01*
X128057715Y-66750085D01*
X127660940Y-66749475D01*
X127304961Y-66748693D01*
X126987587Y-66747723D01*
X126706627Y-66746549D01*
X126459886Y-66745155D01*
X126245174Y-66743525D01*
X126060299Y-66741643D01*
X125903067Y-66739493D01*
X125771287Y-66737060D01*
X125662766Y-66734327D01*
X125575313Y-66731279D01*
X125506735Y-66727899D01*
X125454839Y-66724172D01*
X125417434Y-66720082D01*
X125392327Y-66715612D01*
X125377327Y-66710748D01*
X125372554Y-66708583D01*
X125353016Y-66701472D01*
X125335099Y-66696279D01*
X125318730Y-66690742D01*
X125303836Y-66682599D01*
X125290346Y-66669590D01*
X125278186Y-66649452D01*
X125267283Y-66619924D01*
X125257566Y-66578744D01*
X125248961Y-66523650D01*
X125241395Y-66452381D01*
X125234797Y-66362675D01*
X125229093Y-66252270D01*
X125224211Y-66118906D01*
X125220078Y-65960319D01*
X125216622Y-65774249D01*
X125213769Y-65558434D01*
X125212833Y-65458497D01*
X125933046Y-65458497D01*
X125933836Y-65468067D01*
X125948323Y-65475823D01*
X125981055Y-65481955D01*
X126036578Y-65486652D01*
X126119441Y-65490106D01*
X126234191Y-65492506D01*
X126385375Y-65494041D01*
X126577540Y-65494903D01*
X126815234Y-65495280D01*
X127103004Y-65495364D01*
X128308441Y-65495364D01*
X128104635Y-65126654D01*
X128104635Y-59773536D01*
X128308441Y-59404826D01*
X126153764Y-59404826D01*
X126145974Y-62238428D01*
X126138184Y-65072031D01*
X126061801Y-65235161D01*
X126021530Y-65316016D01*
X125975929Y-65397013D01*
X125941492Y-65446827D01*
X125941406Y-65446923D01*
X125933046Y-65458497D01*
X125212833Y-65458497D01*
X125211448Y-65310612D01*
X125209586Y-65028521D01*
X125208109Y-64709901D01*
X125206946Y-64352488D01*
X125206024Y-63954023D01*
X125205269Y-63512242D01*
X125204610Y-63024884D01*
X125203974Y-62489688D01*
X125203288Y-61904393D01*
X125202480Y-61266735D01*
X125202375Y-61189539D01*
X125201474Y-60555923D01*
X125200612Y-59974404D01*
X125199853Y-59442720D01*
X125199261Y-58958608D01*
X125198900Y-58519806D01*
X125198833Y-58124052D01*
X125199125Y-57769081D01*
X125199840Y-57452633D01*
X125201040Y-57172443D01*
X125202790Y-56926250D01*
X125205153Y-56711790D01*
X125208195Y-56526802D01*
X125211977Y-56369022D01*
X125216564Y-56236188D01*
X125222020Y-56126036D01*
X125228409Y-56036305D01*
X125235794Y-55964732D01*
X125244239Y-55909053D01*
X125253808Y-55867007D01*
X125264565Y-55836331D01*
X125276574Y-55814761D01*
X125289898Y-55800036D01*
X125304601Y-55789893D01*
X125320748Y-55782068D01*
X125338401Y-55774300D01*
X125357624Y-55764325D01*
X125363249Y-55761146D01*
X125448363Y-55730379D01*
X125541538Y-55717734D01*
X125646571Y-55717738D01*
X125648321Y-55956712D01*
X125648765Y-55984212D01*
X125682149Y-56263749D01*
X125767177Y-56526767D01*
X125902666Y-56770482D01*
X126087436Y-56992107D01*
X126186589Y-57082499D01*
X126407362Y-57232323D01*
X126648246Y-57336803D01*
X126902226Y-57395882D01*
X127162286Y-57409505D01*
X127421410Y-57377616D01*
X127672583Y-57300158D01*
X127879059Y-57192568D01*
X128792891Y-57192568D01*
X128913064Y-57279027D01*
X129014698Y-57360286D01*
X129157909Y-57492826D01*
X129320345Y-57658936D01*
X129495856Y-57852286D01*
X129678291Y-58066547D01*
X129725272Y-58123844D01*
X129805259Y-58222116D01*
X129909814Y-58351045D01*
X130035472Y-58506327D01*
X130178770Y-58683660D01*
X130336243Y-58878739D01*
X130504429Y-59087263D01*
X130679862Y-59304927D01*
X130760328Y-59404826D01*
X130859080Y-59527429D01*
X131038619Y-59750465D01*
X131215014Y-59969733D01*
X131384802Y-60180928D01*
X131544519Y-60379749D01*
X131690701Y-60561890D01*
X131819885Y-60723051D01*
X131928606Y-60858926D01*
X132013401Y-60965214D01*
X132070806Y-61037610D01*
X132097357Y-61071812D01*
X132099548Y-61084665D01*
X132092259Y-61109110D01*
X132073370Y-61147569D01*
X132040996Y-61202768D01*
X131993250Y-61277437D01*
X131928248Y-61374302D01*
X131844105Y-61496092D01*
X131738934Y-61645536D01*
X131610850Y-61825360D01*
X131457968Y-62038293D01*
X131278401Y-62287063D01*
X131070265Y-62574398D01*
X130831675Y-62903026D01*
X130641568Y-63164610D01*
X130409633Y-63483503D01*
X130205615Y-63763552D01*
X130027144Y-64007866D01*
X129871845Y-64219552D01*
X129737347Y-64401720D01*
X129621276Y-64557476D01*
X129521260Y-64689929D01*
X129434927Y-64802187D01*
X129359904Y-64897357D01*
X129293818Y-64978549D01*
X129234297Y-65048870D01*
X129178969Y-65111428D01*
X129125459Y-65169331D01*
X129071397Y-65225688D01*
X129014409Y-65283606D01*
X128804398Y-65495364D01*
X130216129Y-65495421D01*
X131627861Y-65495478D01*
X131618990Y-65324380D01*
X131618560Y-65315783D01*
X131616876Y-65247383D01*
X131620068Y-65181848D01*
X131630271Y-65115586D01*
X131649621Y-65045009D01*
X131680252Y-64966526D01*
X131724300Y-64876547D01*
X131783900Y-64771484D01*
X131861188Y-64647746D01*
X131958298Y-64501743D01*
X132077366Y-64329886D01*
X132220528Y-64128584D01*
X132389918Y-63894249D01*
X132587672Y-63623289D01*
X132815926Y-63312116D01*
X133621625Y-62215229D01*
X133628723Y-63487038D01*
X133629352Y-63605672D01*
X133630462Y-63925218D01*
X133629957Y-64197013D01*
X133627245Y-64426201D01*
X133621730Y-64617926D01*
X133612819Y-64777331D01*
X133599918Y-64909559D01*
X133582433Y-65019754D01*
X133559770Y-65113059D01*
X133531334Y-65194618D01*
X133496533Y-65269575D01*
X133454771Y-65343074D01*
X133405454Y-65420256D01*
X133355880Y-65495364D01*
X135932254Y-65495364D01*
X135865704Y-65406600D01*
X135855282Y-65392558D01*
X135771957Y-65263856D01*
X135714517Y-65133753D01*
X135676798Y-64984674D01*
X135652638Y-64799047D01*
X135651975Y-64790955D01*
X135648469Y-64714389D01*
X135645303Y-64586641D01*
X135642492Y-64410633D01*
X135640049Y-64189283D01*
X135637987Y-63925510D01*
X135636322Y-63622233D01*
X135635065Y-63282371D01*
X135634231Y-62908844D01*
X135633834Y-62504570D01*
X135633887Y-62072468D01*
X135634405Y-61615459D01*
X135635401Y-61136460D01*
X135636455Y-60706797D01*
X135637583Y-60239100D01*
X135638694Y-59820649D01*
X135639926Y-59448515D01*
X135641420Y-59119764D01*
X135643315Y-58831465D01*
X135645750Y-58580687D01*
X135648864Y-58364499D01*
X135652797Y-58179967D01*
X135657689Y-58024161D01*
X135663679Y-57894149D01*
X135670906Y-57787000D01*
X135679509Y-57699781D01*
X135689629Y-57629561D01*
X135701404Y-57573409D01*
X135714974Y-57528392D01*
X135730479Y-57491580D01*
X135748057Y-57460039D01*
X135767848Y-57430840D01*
X135789992Y-57401050D01*
X135814628Y-57367737D01*
X135838457Y-57334354D01*
X135884513Y-57268349D01*
X135912101Y-57226708D01*
X135912767Y-57224964D01*
X135903134Y-57217089D01*
X135869141Y-57210519D01*
X135807004Y-57205151D01*
X135712941Y-57200886D01*
X135583169Y-57197623D01*
X135413907Y-57195260D01*
X135201370Y-57193697D01*
X134941778Y-57192834D01*
X134631346Y-57192568D01*
X133329995Y-57192568D01*
X133398580Y-57274078D01*
X133438330Y-57330060D01*
X133504495Y-57462056D01*
X133562477Y-57626223D01*
X133606731Y-57808326D01*
X133609552Y-57825614D01*
X133617944Y-57916750D01*
X133624300Y-58057599D01*
X133628635Y-58249136D01*
X133630967Y-58492336D01*
X133631313Y-58788175D01*
X133629689Y-59137628D01*
X133621625Y-60304301D01*
X132788614Y-59250889D01*
X132764755Y-59220715D01*
X132553511Y-58953291D01*
X132373166Y-58724266D01*
X132220848Y-58529748D01*
X132093689Y-58365841D01*
X131988816Y-58228653D01*
X131903362Y-58114287D01*
X131834454Y-58018852D01*
X131779224Y-57938451D01*
X131734802Y-57869192D01*
X131698316Y-57807180D01*
X131666897Y-57748522D01*
X131637675Y-57689322D01*
X131592721Y-57584532D01*
X131563681Y-57473989D01*
X131555957Y-57354752D01*
X131556733Y-57192568D01*
X128792891Y-57192568D01*
X127879059Y-57192568D01*
X127908788Y-57177077D01*
X128123011Y-57008316D01*
X128182563Y-56948820D01*
X128358579Y-56728530D01*
X128483477Y-56489465D01*
X128557925Y-56230082D01*
X128582592Y-55948840D01*
X128582592Y-55717729D01*
X132503196Y-55717729D01*
X132748137Y-55717719D01*
X133274339Y-55717647D01*
X133749687Y-55717596D01*
X134176811Y-55717667D01*
X134558338Y-55717966D01*
X134896897Y-55718597D01*
X135195117Y-55719662D01*
X135455626Y-55721267D01*
X135681054Y-55723515D01*
X135874028Y-55726510D01*
X136037177Y-55730356D01*
X136173131Y-55735156D01*
X136284517Y-55741016D01*
X136373964Y-55748038D01*
X136444101Y-55756327D01*
X136497556Y-55765986D01*
X136536958Y-55777120D01*
X136564936Y-55789832D01*
X136584119Y-55804227D01*
X136597134Y-55820407D01*
X136606611Y-55838478D01*
X136615178Y-55858543D01*
X136625463Y-55880706D01*
X136625648Y-55881068D01*
X136630642Y-55895576D01*
X136635223Y-55919870D01*
X136639408Y-55956190D01*
X136643214Y-56006780D01*
X136646660Y-56073881D01*
X136649762Y-56159735D01*
X136652538Y-56266584D01*
X136655006Y-56396670D01*
X136657181Y-56552234D01*
X136659083Y-56735519D01*
X136660729Y-56948767D01*
X136662135Y-57194219D01*
X136663319Y-57474118D01*
X136664299Y-57790705D01*
X136665091Y-58146222D01*
X136665715Y-58542911D01*
X136666185Y-58983015D01*
X136666521Y-59468774D01*
X136666740Y-60002431D01*
X136666858Y-60586228D01*
X136666893Y-61222407D01*
X136666895Y-61347385D01*
X136666955Y-61976934D01*
X136667049Y-62554544D01*
X136667104Y-63082474D01*
X136667049Y-63562983D01*
X136666815Y-63998329D01*
X136666328Y-64390770D01*
X136665518Y-64742565D01*
X136664314Y-65055973D01*
X136662645Y-65333251D01*
X136661176Y-65495364D01*
X136660440Y-65576659D01*
G37*
%TD*%
M02*
